<svg xmlns="http://www.w3.org/2000/svg" height="16" width="16" viewBox="0 0 64 64"><defs><style>.a{fill:#37b57e;}</style></defs><title>online-goodGreen</title><path class="a" d="M6.79,26.48,26,44.46c.78-1.13,1.5-2.14,2.18-3.17q5.3-8,10.57-16.08C44.15,17.05,49.53,8.9,54.85.72c.56-.86,1-.9,1.77-.37,2.29,1.56,4.62,3.08,7,4.58.53.34.51.62.19,1.11Q54.14,20.62,44.53,35.23q-8,12.14-16,24.29c-.53.83-.91.49-1.4,0L16,49.23Q8.81,42.54,1.58,35.87C-.51,34-.51,34,1.47,32c1.5-1.53,3-3.1,4.42-4.65C6.13,27.06,6.4,26.83,6.79,26.48Z"/></svg>