<svg xmlns="http://www.w3.org/2000/svg" viewBox="0 0 64 64"><defs><style>.a{fill:#aaa;}</style></defs><title>summary-warning-acknowledged</title><path class="a" d="M32,64A32,32,0,1,1,64,32,32,32,0,0,1,32,64ZM32,6A26,26,0,1,0,58,32,26,26,0,0,0,32,6Z"/><circle class="a" cx="32" cy="48.5" r="5.5"/><path class="a" d="M32,10c-3.31,0-6,2.13-6,4.77,0,.13,0,.26,0,.39.19,2,2.55,20.52,2.56,20.6a3.24,3.24,0,0,0,3.73,2.93,3.1,3.1,0,0,0,3.13-2.93c0-.08,2.35-18.58,2.54-20.6.27-2.63-2.19-4.93-5.49-5.14Z"/></svg>