<svg xmlns="http://www.w3.org/2000/svg" viewBox="0 0 64 64"><defs><style>.a{fill:#007dc5;}</style></defs><title>tools-pelcoBlue</title><polygon class="a" points="36.24 30.59 30.59 36.24 30.59 36.24 36.24 30.59 36.24 30.59"/><path class="a" d="M22.82,17.16A11.93,11.93,0,0,0,22.39,6L12.63,1,9.16,3.5,16,10.34,10.34,16,3.5,9.16,1,12.63l5,9.76a11.93,11.93,0,0,0,11.16.43l7.77,7.77,5.66-5.66Z"/><path class="a" d="M60.5,54.84,63,51.37l-5-9.76a11.93,11.93,0,0,0-11.16-.43l-7.77-7.77-5.66,5.66,7.77,7.77A11.93,11.93,0,0,0,41.61,58l9.76,5,3.47-2.5L48,53.66,53.66,48Z"/><path class="a" d="M55.11,5.35l-8.84,5.3.36,3.19.35.35L39.2,22l-5.79,5.79-5.65,5.65-2.7,2.7-.71.71-.56-.57a4.22,4.22,0,0,0-5.94,0L2.58,51.52a4.21,4.21,0,0,0,0,5.95l4,4a4.21,4.21,0,0,0,6,0L27.75,46.15a4.22,4.22,0,0,0,0-5.94l-.57-.56,3.41-3.41,5.65-5.65L49.81,17l.35.35,3.19.36,5.3-8.84Z"/></svg>