<svg xmlns="http://www.w3.org/2000/svg" height="16" width="16" viewBox="0 0 64 64"><defs><style>.a{fill:#eb6524;}</style></defs><title>warning-alertOrange</title><path class="a" d="M63.09,50.91c-1.26-2.32-24-43.89-24.59-45a7.34,7.34,0,0,0-13,0C24.94,7,2.17,48.59.91,50.91A7.59,7.59,0,0,0,0,54.52,7.45,7.45,0,0,0,7.38,62H56.62A7.45,7.45,0,0,0,64,54.52,7.59,7.59,0,0,0,63.09,50.91ZM32,13.25l.33,0a4.71,4.71,0,0,1,4.17,5.19C36.36,20.52,35,39.21,35,39.3a3,3,0,0,1-6,0c0-.09-1.35-18.78-1.49-20.83,0-.11,0-.21,0-.32A4.71,4.71,0,0,1,32,13.25Zm0,43.51a5,5,0,1,1,5-5A5,5,0,0,1,32,56.76Z"/></svg>