<svg xmlns="http://www.w3.org/2000/svg" viewBox="0 0 2200 150"><defs><style>.a{fill:#222;}</style></defs><title>alternating-triangles</title><polygon class="a" points="-14.43 25 0 0 14.43 25 -14.43 25"/><polygon class="a" points="14.43 25 28.87 0 43.3 25 14.43 25"/><polygon class="a" points="43.3 25 57.73 0 72.17 25 43.3 25"/><polygon class="a" points="72.17 25 86.6 0 101.04 25 72.17 25"/><polygon class="a" points="57.73 50 72.17 25 86.6 50 57.73 50"/><polygon class="a" points="101.04 25 115.47 0 129.9 25 101.04 25"/><polygon class="a" points="129.9 25 144.34 0 158.77 25 129.9 25"/><polygon class="a" points="158.77 25 173.21 0 187.64 25 158.77 25"/><polygon class="a" points="144.34 50 158.77 25 173.21 50 144.34 50"/><polygon class="a" points="187.64 25 202.07 0 216.51 25 187.64 25"/><polygon class="a" points="216.51 25 230.94 0 245.37 25 216.51 25"/><polygon class="a" points="230.94 50 245.37 25 259.81 50 230.94 50"/><polygon class="a" points="-14.43 75 0 50 14.43 75 -14.43 75"/><polygon class="a" points="0 50 14.43 25 28.87 50 0 50"/><polygon class="a" points="28.87 50 43.3 25 57.73 50 28.87 50"/><polygon class="a" points="14.43 75 28.87 50 43.3 75 14.43 75"/><polygon class="a" points="0 100 14.43 75 28.87 100 0 100"/><polygon class="a" points="28.87 100 43.3 75 57.73 100 28.87 100"/><polygon class="a" points="14.43 125 28.87 100 43.3 125 14.43 125"/><polygon class="a" points="43.3 75 57.73 50 72.17 75 43.3 75"/><polygon class="a" points="72.17 75 86.6 50 101.04 75 72.17 75"/><polygon class="a" points="57.73 100 72.17 75 86.6 100 57.73 100"/><polygon class="a" points="86.6 50 101.04 25 115.47 50 86.6 50"/><polygon class="a" points="115.47 50 129.9 25 144.34 50 115.47 50"/><polygon class="a" points="101.04 75 115.47 50 129.9 75 101.04 75"/><polygon class="a" points="86.6 100 101.04 75 115.47 100 86.6 100"/><polygon class="a" points="115.47 100 129.9 75 144.34 100 115.47 100"/><polygon class="a" points="101.04 125 115.47 100 129.9 125 101.04 125"/><polygon class="a" points="129.9 75 144.34 50 158.77 75 129.9 75"/><polygon class="a" points="158.77 75 173.21 50 187.64 75 158.77 75"/><polygon class="a" points="144.34 100 158.77 75 173.21 100 144.34 100"/><polygon class="a" points="173.21 50 187.64 25 202.07 50 173.21 50"/><polygon class="a" points="202.07 50 216.51 25 230.94 50 202.07 50"/><polygon class="a" points="187.64 75 202.07 50 216.51 75 187.64 75"/><polygon class="a" points="173.21 100 187.64 75 202.07 100 173.21 100"/><polygon class="a" points="202.07 100 216.51 75 230.94 100 202.07 100"/><polygon class="a" points="187.64 125 202.07 100 216.51 125 187.64 125"/><polygon class="a" points="216.51 75 230.94 50 245.37 75 216.51 75"/><polygon class="a" points="230.94 100 245.37 75 259.81 100 230.94 100"/><polygon class="a" points="-14.43 125 0 100 14.43 125 -14.43 125"/><polygon class="a" points="0 150 14.43 125 28.87 150 0 150"/><polygon class="a" points="28.87 150 43.3 125 57.73 150 28.87 150"/><polygon class="a" points="43.3 125 57.73 100 72.17 125 43.3 125"/><polygon class="a" points="72.17 125 86.6 100 101.04 125 72.17 125"/><polygon class="a" points="57.73 150 72.17 125 86.6 150 57.73 150"/><polygon class="a" points="86.6 150 101.04 125 115.47 150 86.6 150"/><polygon class="a" points="115.47 150 129.9 125 144.34 150 115.47 150"/><polygon class="a" points="129.9 125 144.34 100 158.77 125 129.9 125"/><polygon class="a" points="158.77 125 173.21 100 187.64 125 158.77 125"/><polygon class="a" points="144.34 150 158.77 125 173.21 150 144.34 150"/><polygon class="a" points="173.21 150 187.64 125 202.07 150 173.21 150"/><polygon class="a" points="202.07 150 216.51 125 230.94 150 202.07 150"/><polygon class="a" points="216.51 125 230.94 100 245.37 125 216.51 125"/><polygon class="a" points="230.94 150 245.37 125 259.81 150 230.94 150"/><polygon class="a" points="245.23 25 259.65 0 274.07 25 245.23 25"/><polygon class="a" points="274.07 25 288.49 0 302.91 25 274.07 25"/><polygon class="a" points="259.65 50 274.07 25 288.49 50 259.65 50"/><polygon class="a" points="302.91 25 317.32 0 331.74 25 302.91 25"/><polygon class="a" points="331.74 25 346.16 0 360.58 25 331.74 25"/><polygon class="a" points="360.58 25 375 0 389.42 25 360.58 25"/><polygon class="a" points="346.16 50 360.58 25 375 50 346.16 50"/><polygon class="a" points="389.42 25 403.84 0 418.26 25 389.42 25"/><polygon class="a" points="418.26 25 432.68 0 447.09 25 418.26 25"/><polygon class="a" points="447.09 25 461.51 0 475.93 25 447.09 25"/><polygon class="a" points="432.68 50 447.09 25 461.51 50 432.68 50"/><polygon class="a" points="475.93 25 490.35 0 504.77 25 475.93 25"/><polygon class="a" points="504.77 25 519.19 0 533.61 25 504.77 25"/><polygon class="a" points="519.19 50 533.61 25 548.02 50 519.19 50"/><polygon class="a" points="245.23 75 259.65 50 274.07 75 245.23 75"/><polygon class="a" points="274.07 75 288.49 50 302.91 75 274.07 75"/><polygon class="a" points="259.65 100 274.07 75 288.49 100 259.65 100"/><polygon class="a" points="288.49 50 302.91 25 317.32 50 288.49 50"/><polygon class="a" points="317.32 50 331.74 25 346.16 50 317.32 50"/><polygon class="a" points="302.91 75 317.32 50 331.74 75 302.91 75"/><polygon class="a" points="288.49 100 302.91 75 317.32 100 288.49 100"/><polygon class="a" points="317.32 100 331.74 75 346.16 100 317.32 100"/><polygon class="a" points="302.91 125 317.32 100 331.74 125 302.91 125"/><polygon class="a" points="331.74 75 346.16 50 360.58 75 331.74 75"/><polygon class="a" points="360.58 75 375 50 389.42 75 360.58 75"/><polygon class="a" points="346.16 100 360.58 75 375 100 346.16 100"/><polygon class="a" points="375 50 389.42 25 403.84 50 375 50"/><polygon class="a" points="403.84 50 418.26 25 432.68 50 403.84 50"/><polygon class="a" points="389.42 75 403.84 50 418.26 75 389.42 75"/><polygon class="a" points="375 100 389.42 75 403.84 100 375 100"/><polygon class="a" points="403.84 100 418.26 75 432.68 100 403.84 100"/><polygon class="a" points="389.42 125 403.84 100 418.26 125 389.42 125"/><polygon class="a" points="418.26 75 432.68 50 447.09 75 418.26 75"/><polygon class="a" points="447.09 75 461.51 50 475.93 75 447.09 75"/><polygon class="a" points="432.68 100 447.09 75 461.51 100 432.68 100"/><polygon class="a" points="461.51 50 475.93 25 490.35 50 461.51 50"/><polygon class="a" points="490.35 50 504.77 25 519.19 50 490.35 50"/><polygon class="a" points="475.93 75 490.35 50 504.77 75 475.93 75"/><polygon class="a" points="461.51 100 475.93 75 490.35 100 461.51 100"/><polygon class="a" points="490.35 100 504.77 75 519.19 100 490.35 100"/><polygon class="a" points="475.93 125 490.35 100 504.77 125 475.93 125"/><polygon class="a" points="504.77 75 519.19 50 533.61 75 504.77 75"/><polygon class="a" points="519.19 100 533.61 75 548.02 100 519.19 100"/><polygon class="a" points="245.23 125 259.65 100 274.07 125 245.23 125"/><polygon class="a" points="274.07 125 288.49 100 302.91 125 274.07 125"/><polygon class="a" points="259.65 150 274.07 125 288.49 150 259.65 150"/><polygon class="a" points="288.49 150 302.91 125 317.32 150 288.49 150"/><polygon class="a" points="317.32 150 331.74 125 346.16 150 317.32 150"/><polygon class="a" points="331.74 125 346.16 100 360.58 125 331.74 125"/><polygon class="a" points="360.58 125 375 100 389.42 125 360.58 125"/><polygon class="a" points="346.16 150 360.58 125 375 150 346.16 150"/><polygon class="a" points="375 150 389.42 125 403.84 150 375 150"/><polygon class="a" points="403.84 150 418.26 125 432.68 150 403.84 150"/><polygon class="a" points="418.26 125 432.68 100 447.09 125 418.26 125"/><polygon class="a" points="447.09 125 461.51 100 475.93 125 447.09 125"/><polygon class="a" points="432.68 150 447.09 125 461.51 150 432.68 150"/><polygon class="a" points="461.51 150 475.93 125 490.35 150 461.51 150"/><polygon class="a" points="490.35 150 504.77 125 519.19 150 490.35 150"/><polygon class="a" points="504.77 125 519.19 100 533.61 125 504.77 125"/><polygon class="a" points="519.19 150 533.61 125 548.02 150 519.19 150"/><polygon class="a" points="533.45 25 547.88 0 562.32 25 533.45 25"/><polygon class="a" points="562.32 25 576.75 0 591.18 25 562.32 25"/><polygon class="a" points="547.88 50 562.32 25 576.75 50 547.88 50"/><polygon class="a" points="591.18 25 605.62 0 620.05 25 591.18 25"/><polygon class="a" points="620.05 25 634.49 0 648.92 25 620.05 25"/><polygon class="a" points="648.92 25 663.35 0 677.79 25 648.92 25"/><polygon class="a" points="634.49 50 648.92 25 663.35 50 634.49 50"/><polygon class="a" points="677.79 25 692.22 0 706.65 25 677.79 25"/><polygon class="a" points="706.65 25 721.09 0 735.52 25 706.65 25"/><polygon class="a" points="735.52 25 749.96 0 764.39 25 735.52 25"/><polygon class="a" points="721.09 50 735.52 25 749.96 50 721.09 50"/><polygon class="a" points="764.39 25 778.82 0 793.26 25 764.39 25"/><polygon class="a" points="793.26 25 807.69 0 822.13 25 793.26 25"/><polygon class="a" points="807.69 50 822.13 25 836.56 50 807.69 50"/><polygon class="a" points="533.45 75 547.88 50 562.32 75 533.45 75"/><polygon class="a" points="562.32 75 576.75 50 591.18 75 562.32 75"/><polygon class="a" points="547.88 100 562.32 75 576.75 100 547.88 100"/><polygon class="a" points="576.75 50 591.18 25 605.62 50 576.75 50"/><polygon class="a" points="605.62 50 620.05 25 634.49 50 605.62 50"/><polygon class="a" points="591.18 75 605.62 50 620.05 75 591.18 75"/><polygon class="a" points="576.75 100 591.18 75 605.62 100 576.75 100"/><polygon class="a" points="605.62 100 620.05 75 634.49 100 605.62 100"/><polygon class="a" points="591.18 125 605.62 100 620.05 125 591.18 125"/><polygon class="a" points="620.05 75 634.49 50 648.92 75 620.05 75"/><polygon class="a" points="648.92 75 663.35 50 677.79 75 648.92 75"/><polygon class="a" points="634.49 100 648.92 75 663.35 100 634.49 100"/><polygon class="a" points="663.35 50 677.79 25 692.22 50 663.35 50"/><polygon class="a" points="692.22 50 706.65 25 721.09 50 692.22 50"/><polygon class="a" points="677.79 75 692.22 50 706.65 75 677.79 75"/><polygon class="a" points="663.35 100 677.79 75 692.22 100 663.35 100"/><polygon class="a" points="692.22 100 706.65 75 721.09 100 692.22 100"/><polygon class="a" points="677.79 125 692.22 100 706.65 125 677.79 125"/><polygon class="a" points="706.65 75 721.09 50 735.52 75 706.65 75"/><polygon class="a" points="735.52 75 749.96 50 764.39 75 735.52 75"/><polygon class="a" points="721.09 100 735.52 75 749.96 100 721.09 100"/><polygon class="a" points="749.96 50 764.39 25 778.82 50 749.96 50"/><polygon class="a" points="778.82 50 793.26 25 807.69 50 778.82 50"/><polygon class="a" points="764.39 75 778.82 50 793.26 75 764.39 75"/><polygon class="a" points="749.96 100 764.39 75 778.82 100 749.96 100"/><polygon class="a" points="778.82 100 793.26 75 807.69 100 778.82 100"/><polygon class="a" points="764.39 125 778.82 100 793.26 125 764.39 125"/><polygon class="a" points="793.26 75 807.69 50 822.13 75 793.26 75"/><polygon class="a" points="807.69 100 822.13 75 836.56 100 807.69 100"/><polygon class="a" points="533.45 125 547.88 100 562.32 125 533.45 125"/><polygon class="a" points="562.32 125 576.75 100 591.18 125 562.32 125"/><polygon class="a" points="547.88 150 562.32 125 576.75 150 547.88 150"/><polygon class="a" points="576.75 150 591.18 125 605.62 150 576.75 150"/><polygon class="a" points="605.62 150 620.05 125 634.49 150 605.62 150"/><polygon class="a" points="620.05 125 634.49 100 648.92 125 620.05 125"/><polygon class="a" points="648.92 125 663.35 100 677.79 125 648.92 125"/><polygon class="a" points="634.49 150 648.92 125 663.35 150 634.49 150"/><polygon class="a" points="663.35 150 677.79 125 692.22 150 663.35 150"/><polygon class="a" points="692.22 150 706.65 125 721.09 150 692.22 150"/><polygon class="a" points="706.65 125 721.09 100 735.52 125 706.65 125"/><polygon class="a" points="735.52 125 749.96 100 764.39 125 735.52 125"/><polygon class="a" points="721.09 150 735.52 125 749.96 150 721.09 150"/><polygon class="a" points="749.96 150 764.39 125 778.82 150 749.96 150"/><polygon class="a" points="778.82 150 793.26 125 807.69 150 778.82 150"/><polygon class="a" points="793.26 125 807.69 100 822.13 125 793.26 125"/><polygon class="a" points="807.69 150 822.13 125 836.56 150 807.69 150"/><polygon class="a" points="821.98 25 836.4 0 850.82 25 821.98 25"/><polygon class="a" points="850.82 25 865.24 0 879.66 25 850.82 25"/><polygon class="a" points="836.4 50 850.82 25 865.24 50 836.4 50"/><polygon class="a" points="879.66 25 894.08 0 908.5 25 879.66 25"/><polygon class="a" points="908.5 25 922.91 0 937.33 25 908.5 25"/><polygon class="a" points="937.33 25 951.75 0 966.17 25 937.33 25"/><polygon class="a" points="922.91 50 937.33 25 951.75 50 922.91 50"/><polygon class="a" points="966.17 25 980.59 0 995.01 25 966.17 25"/><polygon class="a" points="995.01 25 1009.43 0 1023.85 25 995.01 25"/><polygon class="a" points="1023.85 25 1038.26 0 1052.68 25 1023.85 25"/><polygon class="a" points="1009.43 50 1023.85 25 1038.26 50 1009.43 50"/><polygon class="a" points="1052.68 25 1067.1 0 1081.52 25 1052.68 25"/><polygon class="a" points="1081.52 25 1095.94 0 1110.36 25 1081.52 25"/><polygon class="a" points="1095.94 50 1110.36 25 1124.78 50 1095.94 50"/><polygon class="a" points="821.98 75 836.4 50 850.82 75 821.98 75"/><polygon class="a" points="850.82 75 865.24 50 879.66 75 850.82 75"/><polygon class="a" points="836.4 100 850.82 75 865.24 100 836.4 100"/><polygon class="a" points="865.24 50 879.66 25 894.08 50 865.24 50"/><polygon class="a" points="894.08 50 908.5 25 922.91 50 894.08 50"/><polygon class="a" points="879.66 75 894.08 50 908.5 75 879.66 75"/><polygon class="a" points="865.24 100 879.66 75 894.08 100 865.24 100"/><polygon class="a" points="894.08 100 908.5 75 922.91 100 894.08 100"/><polygon class="a" points="879.66 125 894.08 100 908.5 125 879.66 125"/><polygon class="a" points="908.5 75 922.91 50 937.33 75 908.5 75"/><polygon class="a" points="937.33 75 951.75 50 966.17 75 937.33 75"/><polygon class="a" points="922.91 100 937.33 75 951.75 100 922.91 100"/><polygon class="a" points="951.75 50 966.17 25 980.59 50 951.75 50"/><polygon class="a" points="980.59 50 995.01 25 1009.43 50 980.59 50"/><polygon class="a" points="966.17 75 980.59 50 995.01 75 966.17 75"/><polygon class="a" points="951.75 100 966.17 75 980.59 100 951.75 100"/><polygon class="a" points="980.59 100 995.01 75 1009.43 100 980.59 100"/><polygon class="a" points="966.17 125 980.59 100 995.01 125 966.17 125"/><polygon class="a" points="995.01 75 1009.43 50 1023.85 75 995.01 75"/><polygon class="a" points="1023.85 75 1038.26 50 1052.68 75 1023.85 75"/><polygon class="a" points="1009.43 100 1023.85 75 1038.26 100 1009.43 100"/><polygon class="a" points="1038.26 50 1052.68 25 1067.1 50 1038.26 50"/><polygon class="a" points="1067.1 50 1081.52 25 1095.94 50 1067.1 50"/><polygon class="a" points="1052.68 75 1067.1 50 1081.52 75 1052.68 75"/><polygon class="a" points="1038.26 100 1052.68 75 1067.1 100 1038.26 100"/><polygon class="a" points="1067.1 100 1081.52 75 1095.94 100 1067.1 100"/><polygon class="a" points="1052.68 125 1067.1 100 1081.52 125 1052.68 125"/><polygon class="a" points="1081.52 75 1095.94 50 1110.36 75 1081.52 75"/><polygon class="a" points="1095.94 100 1110.36 75 1124.78 100 1095.94 100"/><polygon class="a" points="821.98 125 836.4 100 850.82 125 821.98 125"/><polygon class="a" points="850.82 125 865.24 100 879.66 125 850.82 125"/><polygon class="a" points="836.4 150 850.82 125 865.24 150 836.4 150"/><polygon class="a" points="865.24 150 879.66 125 894.08 150 865.24 150"/><polygon class="a" points="894.08 150 908.5 125 922.91 150 894.08 150"/><polygon class="a" points="908.5 125 922.91 100 937.33 125 908.5 125"/><polygon class="a" points="937.33 125 951.75 100 966.17 125 937.33 125"/><polygon class="a" points="922.91 150 937.33 125 951.75 150 922.91 150"/><polygon class="a" points="951.75 150 966.17 125 980.59 150 951.75 150"/><polygon class="a" points="980.59 150 995.01 125 1009.43 150 980.59 150"/><polygon class="a" points="995.01 125 1009.43 100 1023.85 125 995.01 125"/><polygon class="a" points="1023.85 125 1038.26 100 1052.68 125 1023.85 125"/><polygon class="a" points="1009.43 150 1023.85 125 1038.26 150 1009.43 150"/><polygon class="a" points="1038.26 150 1052.68 125 1067.1 150 1038.26 150"/><polygon class="a" points="1067.1 150 1081.52 125 1095.94 150 1067.1 150"/><polygon class="a" points="1081.52 125 1095.94 100 1110.36 125 1081.52 125"/><polygon class="a" points="1095.94 150 1110.36 125 1124.78 150 1095.94 150"/><polygon class="a" points="1110.36 25 1124.79 0 1139.22 25 1110.36 25"/><polygon class="a" points="1139.22 25 1153.66 0 1168.09 25 1139.22 25"/><polygon class="a" points="1168.09 25 1182.53 0 1196.96 25 1168.09 25"/><polygon class="a" points="1196.96 25 1211.39 0 1225.83 25 1196.96 25"/><polygon class="a" points="1182.53 50 1196.96 25 1211.39 50 1182.53 50"/><polygon class="a" points="1225.83 25 1240.26 0 1254.69 25 1225.83 25"/><polygon class="a" points="1254.69 25 1269.13 0 1283.56 25 1254.69 25"/><polygon class="a" points="1283.56 25 1298 0 1312.43 25 1283.56 25"/><polygon class="a" points="1269.13 50 1283.56 25 1298 50 1269.13 50"/><polygon class="a" points="1312.43 25 1326.86 0 1341.3 25 1312.43 25"/><polygon class="a" points="1341.3 25 1355.73 0 1370.16 25 1341.3 25"/><polygon class="a" points="1355.73 50 1370.16 25 1384.6 50 1355.73 50"/><polygon class="a" points="1110.36 75 1124.79 50 1139.22 75 1110.36 75"/><polygon class="a" points="1124.79 50 1139.22 25 1153.66 50 1124.79 50"/><polygon class="a" points="1153.66 50 1168.09 25 1182.53 50 1153.66 50"/><polygon class="a" points="1139.22 75 1153.66 50 1168.09 75 1139.22 75"/><polygon class="a" points="1124.79 100 1139.22 75 1153.66 100 1124.79 100"/><polygon class="a" points="1153.66 100 1168.09 75 1182.53 100 1153.66 100"/><polygon class="a" points="1139.22 125 1153.66 100 1168.09 125 1139.22 125"/><polygon class="a" points="1168.09 75 1182.53 50 1196.96 75 1168.09 75"/><polygon class="a" points="1196.96 75 1211.39 50 1225.83 75 1196.96 75"/><polygon class="a" points="1182.53 100 1196.96 75 1211.39 100 1182.53 100"/><polygon class="a" points="1211.39 50 1225.83 25 1240.26 50 1211.39 50"/><polygon class="a" points="1240.26 50 1254.69 25 1269.13 50 1240.26 50"/><polygon class="a" points="1225.83 75 1240.26 50 1254.69 75 1225.83 75"/><polygon class="a" points="1211.39 100 1225.83 75 1240.26 100 1211.39 100"/><polygon class="a" points="1240.26 100 1254.69 75 1269.13 100 1240.26 100"/><polygon class="a" points="1225.83 125 1240.26 100 1254.69 125 1225.83 125"/><polygon class="a" points="1254.69 75 1269.13 50 1283.56 75 1254.69 75"/><polygon class="a" points="1283.56 75 1298 50 1312.43 75 1283.56 75"/><polygon class="a" points="1269.13 100 1283.56 75 1298 100 1269.13 100"/><polygon class="a" points="1298 50 1312.43 25 1326.86 50 1298 50"/><polygon class="a" points="1326.86 50 1341.3 25 1355.73 50 1326.86 50"/><polygon class="a" points="1312.43 75 1326.86 50 1341.3 75 1312.43 75"/><polygon class="a" points="1298 100 1312.43 75 1326.86 100 1298 100"/><polygon class="a" points="1326.86 100 1341.3 75 1355.73 100 1326.86 100"/><polygon class="a" points="1312.43 125 1326.86 100 1341.3 125 1312.43 125"/><polygon class="a" points="1341.3 75 1355.73 50 1370.16 75 1341.3 75"/><polygon class="a" points="1355.73 100 1370.16 75 1384.6 100 1355.73 100"/><polygon class="a" points="1110.36 125 1124.79 100 1139.22 125 1110.36 125"/><polygon class="a" points="1124.79 150 1139.22 125 1153.66 150 1124.79 150"/><polygon class="a" points="1153.66 150 1168.09 125 1182.53 150 1153.66 150"/><polygon class="a" points="1168.09 125 1182.53 100 1196.96 125 1168.09 125"/><polygon class="a" points="1196.96 125 1211.39 100 1225.83 125 1196.96 125"/><polygon class="a" points="1182.53 150 1196.96 125 1211.39 150 1182.53 150"/><polygon class="a" points="1211.39 150 1225.83 125 1240.26 150 1211.39 150"/><polygon class="a" points="1240.26 150 1254.69 125 1269.13 150 1240.26 150"/><polygon class="a" points="1254.69 125 1269.13 100 1283.56 125 1254.69 125"/><polygon class="a" points="1283.56 125 1298 100 1312.43 125 1283.56 125"/><polygon class="a" points="1269.13 150 1283.56 125 1298 150 1269.13 150"/><polygon class="a" points="1298 150 1312.43 125 1326.86 150 1298 150"/><polygon class="a" points="1326.86 150 1341.3 125 1355.73 150 1326.86 150"/><polygon class="a" points="1341.3 125 1355.73 100 1370.16 125 1341.3 125"/><polygon class="a" points="1355.73 150 1370.16 125 1384.6 150 1355.73 150"/><polygon class="a" points="1370.02 25 1384.44 0 1398.86 25 1370.02 25"/><polygon class="a" points="1398.86 25 1413.28 0 1427.7 25 1398.86 25"/><polygon class="a" points="1384.44 50 1398.86 25 1413.28 50 1384.44 50"/><polygon class="a" points="1427.7 25 1442.12 0 1456.54 25 1427.7 25"/><polygon class="a" points="1456.54 25 1470.95 0 1485.37 25 1456.54 25"/><polygon class="a" points="1485.37 25 1499.79 0 1514.21 25 1485.37 25"/><polygon class="a" points="1470.95 50 1485.37 25 1499.79 50 1470.95 50"/><polygon class="a" points="1514.21 25 1528.63 0 1543.05 25 1514.21 25"/><polygon class="a" points="1543.05 25 1557.47 0 1571.88 25 1543.05 25"/><polygon class="a" points="1571.88 25 1586.3 0 1600.72 25 1571.88 25"/><polygon class="a" points="1557.47 50 1571.88 25 1586.3 50 1557.47 50"/><polygon class="a" points="1600.72 25 1615.14 0 1629.56 25 1600.72 25"/><polygon class="a" points="1629.56 25 1643.98 0 1658.4 25 1629.56 25"/><polygon class="a" points="1643.98 50 1658.4 25 1672.82 50 1643.98 50"/><polygon class="a" points="1370.02 75 1384.44 50 1398.86 75 1370.02 75"/><polygon class="a" points="1398.86 75 1413.28 50 1427.7 75 1398.86 75"/><polygon class="a" points="1384.44 100 1398.86 75 1413.28 100 1384.44 100"/><polygon class="a" points="1413.28 50 1427.7 25 1442.12 50 1413.28 50"/><polygon class="a" points="1442.12 50 1456.54 25 1470.95 50 1442.12 50"/><polygon class="a" points="1427.7 75 1442.12 50 1456.54 75 1427.7 75"/><polygon class="a" points="1413.28 100 1427.7 75 1442.12 100 1413.28 100"/><polygon class="a" points="1442.12 100 1456.54 75 1470.95 100 1442.12 100"/><polygon class="a" points="1427.7 125 1442.12 100 1456.54 125 1427.7 125"/><polygon class="a" points="1456.54 75 1470.95 50 1485.37 75 1456.54 75"/><polygon class="a" points="1485.37 75 1499.79 50 1514.21 75 1485.37 75"/><polygon class="a" points="1470.95 100 1485.37 75 1499.79 100 1470.95 100"/><polygon class="a" points="1499.79 50 1514.21 25 1528.63 50 1499.79 50"/><polygon class="a" points="1528.63 50 1543.05 25 1557.47 50 1528.63 50"/><polygon class="a" points="1514.21 75 1528.63 50 1543.05 75 1514.21 75"/><polygon class="a" points="1499.79 100 1514.21 75 1528.63 100 1499.79 100"/><polygon class="a" points="1528.63 100 1543.05 75 1557.47 100 1528.63 100"/><polygon class="a" points="1514.21 125 1528.63 100 1543.05 125 1514.21 125"/><polygon class="a" points="1543.05 75 1557.47 50 1571.88 75 1543.05 75"/><polygon class="a" points="1571.88 75 1586.3 50 1600.72 75 1571.88 75"/><polygon class="a" points="1557.47 100 1571.88 75 1586.3 100 1557.47 100"/><polygon class="a" points="1586.3 50 1600.72 25 1615.14 50 1586.3 50"/><polygon class="a" points="1615.14 50 1629.56 25 1643.98 50 1615.14 50"/><polygon class="a" points="1600.72 75 1615.14 50 1629.56 75 1600.72 75"/><polygon class="a" points="1586.3 100 1600.72 75 1615.14 100 1586.3 100"/><polygon class="a" points="1615.14 100 1629.56 75 1643.98 100 1615.14 100"/><polygon class="a" points="1600.72 125 1615.14 100 1629.56 125 1600.72 125"/><polygon class="a" points="1629.56 75 1643.98 50 1658.4 75 1629.56 75"/><polygon class="a" points="1643.98 100 1658.4 75 1672.82 100 1643.98 100"/><polygon class="a" points="1370.02 125 1384.44 100 1398.86 125 1370.02 125"/><polygon class="a" points="1398.86 125 1413.28 100 1427.7 125 1398.86 125"/><polygon class="a" points="1384.44 150 1398.86 125 1413.28 150 1384.44 150"/><polygon class="a" points="1413.28 150 1427.7 125 1442.12 150 1413.28 150"/><polygon class="a" points="1442.12 150 1456.54 125 1470.95 150 1442.12 150"/><polygon class="a" points="1456.54 125 1470.95 100 1485.37 125 1456.54 125"/><polygon class="a" points="1485.37 125 1499.79 100 1514.21 125 1485.37 125"/><polygon class="a" points="1470.95 150 1485.37 125 1499.79 150 1470.95 150"/><polygon class="a" points="1499.79 150 1514.21 125 1528.63 150 1499.79 150"/><polygon class="a" points="1528.63 150 1543.05 125 1557.47 150 1528.63 150"/><polygon class="a" points="1543.05 125 1557.47 100 1571.88 125 1543.05 125"/><polygon class="a" points="1571.88 125 1586.3 100 1600.72 125 1571.88 125"/><polygon class="a" points="1557.47 150 1571.88 125 1586.3 150 1557.47 150"/><polygon class="a" points="1586.3 150 1600.72 125 1615.14 150 1586.3 150"/><polygon class="a" points="1615.14 150 1629.56 125 1643.98 150 1615.14 150"/><polygon class="a" points="1629.56 125 1643.98 100 1658.4 125 1629.56 125"/><polygon class="a" points="1643.98 150 1658.4 125 1672.82 150 1643.98 150"/><polygon class="a" points="1658.24 25 1672.67 0 1687.11 25 1658.24 25"/><polygon class="a" points="1687.11 25 1701.54 0 1715.98 25 1687.11 25"/><polygon class="a" points="1672.67 50 1687.11 25 1701.54 50 1672.67 50"/><polygon class="a" points="1715.98 25 1730.41 0 1744.84 25 1715.98 25"/><polygon class="a" points="1744.84 25 1759.28 0 1773.71 25 1744.84 25"/><polygon class="a" points="1773.71 25 1788.14 0 1802.58 25 1773.71 25"/><polygon class="a" points="1759.28 50 1773.71 25 1788.14 50 1759.28 50"/><polygon class="a" points="1802.58 25 1817.01 0 1831.45 25 1802.58 25"/><polygon class="a" points="1831.45 25 1845.88 0 1860.31 25 1831.45 25"/><polygon class="a" points="1860.31 25 1874.75 0 1889.18 25 1860.31 25"/><polygon class="a" points="1845.88 50 1860.31 25 1874.75 50 1845.88 50"/><polygon class="a" points="1889.18 25 1903.61 0 1918.05 25 1889.18 25"/><polygon class="a" points="1918.05 25 1932.48 0 1946.92 25 1918.05 25"/><polygon class="a" points="1932.48 50 1946.92 25 1961.35 50 1932.48 50"/><polygon class="a" points="1658.24 75 1672.67 50 1687.11 75 1658.24 75"/><polygon class="a" points="1687.11 75 1701.54 50 1715.98 75 1687.11 75"/><polygon class="a" points="1672.67 100 1687.11 75 1701.54 100 1672.67 100"/><polygon class="a" points="1701.54 50 1715.98 25 1730.41 50 1701.54 50"/><polygon class="a" points="1730.41 50 1744.84 25 1759.28 50 1730.41 50"/><polygon class="a" points="1715.98 75 1730.41 50 1744.84 75 1715.98 75"/><polygon class="a" points="1701.54 100 1715.98 75 1730.41 100 1701.54 100"/><polygon class="a" points="1730.41 100 1744.84 75 1759.28 100 1730.41 100"/><polygon class="a" points="1715.98 125 1730.41 100 1744.84 125 1715.98 125"/><polygon class="a" points="1744.84 75 1759.28 50 1773.71 75 1744.84 75"/><polygon class="a" points="1773.71 75 1788.14 50 1802.58 75 1773.71 75"/><polygon class="a" points="1759.28 100 1773.71 75 1788.14 100 1759.28 100"/><polygon class="a" points="1788.14 50 1802.58 25 1817.01 50 1788.14 50"/><polygon class="a" points="1817.01 50 1831.45 25 1845.88 50 1817.01 50"/><polygon class="a" points="1802.58 75 1817.01 50 1831.45 75 1802.58 75"/><polygon class="a" points="1788.14 100 1802.58 75 1817.01 100 1788.14 100"/><polygon class="a" points="1817.01 100 1831.45 75 1845.88 100 1817.01 100"/><polygon class="a" points="1802.58 125 1817.01 100 1831.45 125 1802.58 125"/><polygon class="a" points="1831.45 75 1845.88 50 1860.31 75 1831.45 75"/><polygon class="a" points="1860.31 75 1874.75 50 1889.18 75 1860.31 75"/><polygon class="a" points="1845.88 100 1860.31 75 1874.75 100 1845.88 100"/><polygon class="a" points="1874.75 50 1889.18 25 1903.61 50 1874.75 50"/><polygon class="a" points="1903.61 50 1918.05 25 1932.48 50 1903.61 50"/><polygon class="a" points="1889.18 75 1903.61 50 1918.05 75 1889.18 75"/><polygon class="a" points="1874.75 100 1889.18 75 1903.61 100 1874.75 100"/><polygon class="a" points="1903.61 100 1918.05 75 1932.48 100 1903.61 100"/><polygon class="a" points="1889.18 125 1903.61 100 1918.05 125 1889.18 125"/><polygon class="a" points="1918.05 75 1932.48 50 1946.92 75 1918.05 75"/><polygon class="a" points="1932.48 100 1946.92 75 1961.35 100 1932.48 100"/><polygon class="a" points="1658.24 125 1672.67 100 1687.11 125 1658.24 125"/><polygon class="a" points="1687.11 125 1701.54 100 1715.98 125 1687.11 125"/><polygon class="a" points="1672.67 150 1687.11 125 1701.54 150 1672.67 150"/><polygon class="a" points="1701.54 150 1715.98 125 1730.41 150 1701.54 150"/><polygon class="a" points="1730.41 150 1744.84 125 1759.28 150 1730.41 150"/><polygon class="a" points="1744.84 125 1759.28 100 1773.71 125 1744.84 125"/><polygon class="a" points="1773.71 125 1788.14 100 1802.58 125 1773.71 125"/><polygon class="a" points="1759.28 150 1773.71 125 1788.14 150 1759.28 150"/><polygon class="a" points="1788.14 150 1802.58 125 1817.01 150 1788.14 150"/><polygon class="a" points="1817.01 150 1831.45 125 1845.88 150 1817.01 150"/><polygon class="a" points="1831.45 125 1845.88 100 1860.31 125 1831.45 125"/><polygon class="a" points="1860.31 125 1874.75 100 1889.18 125 1860.31 125"/><polygon class="a" points="1845.88 150 1860.31 125 1874.75 150 1845.88 150"/><polygon class="a" points="1874.75 150 1889.18 125 1903.61 150 1874.75 150"/><polygon class="a" points="1903.61 150 1918.05 125 1932.48 150 1903.61 150"/><polygon class="a" points="1918.05 125 1932.48 100 1946.92 125 1918.05 125"/><polygon class="a" points="1932.48 150 1946.92 125 1961.35 150 1932.48 150"/><polygon class="a" points="1946.77 25 1961.19 0 1975.61 25 1946.77 25"/><polygon class="a" points="1975.61 25 1990.03 0 2004.45 25 1975.61 25"/><polygon class="a" points="1961.19 50 1975.61 25 1990.03 50 1961.19 50"/><polygon class="a" points="2004.45 25 2018.87 0 2033.29 25 2004.45 25"/><polygon class="a" points="2033.29 25 2047.7 0 2062.12 25 2033.29 25"/><polygon class="a" points="2062.12 25 2076.54 0 2090.96 25 2062.12 25"/><polygon class="a" points="2047.7 50 2062.12 25 2076.54 50 2047.7 50"/><polygon class="a" points="2090.96 25 2105.38 0 2119.8 25 2090.96 25"/><polygon class="a" points="2119.8 25 2134.22 0 2148.64 25 2119.8 25"/><polygon class="a" points="2148.64 25 2163.05 0 2177.47 25 2148.64 25"/><polygon class="a" points="2134.22 50 2148.64 25 2163.05 50 2134.22 50"/><polygon class="a" points="2177.47 25 2191.89 0 2206.31 25 2177.47 25"/><polygon class="a" points="1946.77 75 1961.19 50 1975.61 75 1946.77 75"/><polygon class="a" points="1975.61 75 1990.03 50 2004.45 75 1975.61 75"/><polygon class="a" points="1961.19 100 1975.61 75 1990.03 100 1961.19 100"/><polygon class="a" points="1990.03 50 2004.45 25 2018.87 50 1990.03 50"/><polygon class="a" points="2018.87 50 2033.29 25 2047.7 50 2018.87 50"/><polygon class="a" points="2004.45 75 2018.87 50 2033.29 75 2004.45 75"/><polygon class="a" points="1990.03 100 2004.45 75 2018.87 100 1990.03 100"/><polygon class="a" points="2018.87 100 2033.29 75 2047.7 100 2018.87 100"/><polygon class="a" points="2004.45 125 2018.87 100 2033.29 125 2004.45 125"/><polygon class="a" points="2033.29 75 2047.7 50 2062.12 75 2033.29 75"/><polygon class="a" points="2062.12 75 2076.54 50 2090.96 75 2062.12 75"/><polygon class="a" points="2047.7 100 2062.12 75 2076.54 100 2047.7 100"/><polygon class="a" points="2076.54 50 2090.96 25 2105.38 50 2076.54 50"/><polygon class="a" points="2105.38 50 2119.8 25 2134.22 50 2105.38 50"/><polygon class="a" points="2090.96 75 2105.38 50 2119.8 75 2090.96 75"/><polygon class="a" points="2076.54 100 2090.96 75 2105.38 100 2076.54 100"/><polygon class="a" points="2105.38 100 2119.8 75 2134.22 100 2105.38 100"/><polygon class="a" points="2090.96 125 2105.38 100 2119.8 125 2090.96 125"/><polygon class="a" points="2119.8 75 2134.22 50 2148.64 75 2119.8 75"/><polygon class="a" points="2148.64 75 2163.05 50 2177.47 75 2148.64 75"/><polygon class="a" points="2134.22 100 2148.64 75 2163.05 100 2134.22 100"/><polygon class="a" points="2163.05 50 2177.47 25 2191.89 50 2163.05 50"/><polygon class="a" points="2191.89 50 2206.31 25 2220.73 50 2191.89 50"/><polygon class="a" points="2177.47 75 2191.89 50 2206.31 75 2177.47 75"/><polygon class="a" points="2163.05 100 2177.47 75 2191.89 100 2163.05 100"/><polygon class="a" points="2191.89 100 2206.31 75 2220.73 100 2191.89 100"/><polygon class="a" points="2177.47 125 2191.89 100 2206.31 125 2177.47 125"/><polygon class="a" points="1946.77 125 1961.19 100 1975.61 125 1946.77 125"/><polygon class="a" points="1975.61 125 1990.03 100 2004.45 125 1975.61 125"/><polygon class="a" points="1961.19 150 1975.61 125 1990.03 150 1961.19 150"/><polygon class="a" points="1990.03 150 2004.45 125 2018.87 150 1990.03 150"/><polygon class="a" points="2018.87 150 2033.29 125 2047.7 150 2018.87 150"/><polygon class="a" points="2033.29 125 2047.7 100 2062.12 125 2033.29 125"/><polygon class="a" points="2062.12 125 2076.54 100 2090.96 125 2062.12 125"/><polygon class="a" points="2047.7 150 2062.12 125 2076.54 150 2047.7 150"/><polygon class="a" points="2076.54 150 2090.96 125 2105.38 150 2076.54 150"/><polygon class="a" points="2105.38 150 2119.8 125 2134.22 150 2105.38 150"/><polygon class="a" points="2119.8 125 2134.22 100 2148.64 125 2119.8 125"/><polygon class="a" points="2148.64 125 2163.05 100 2177.47 125 2148.64 125"/><polygon class="a" points="2134.22 150 2148.64 125 2163.05 150 2134.22 150"/><polygon class="a" points="2163.05 150 2177.47 125 2191.89 150 2163.05 150"/><polygon class="a" points="2191.89 150 2206.31 125 2220.73 150 2191.89 150"/></svg>