<svg xmlns="http://www.w3.org/2000/svg" viewBox="0 0 308 150"><defs><style>.a,.b,.d,.e{fill:#007dc5;}.a,.f,.n{opacity:0.9;}.b,.l{opacity:0.7;}.c{fill:#f91;}.e,.m{opacity:0.8;}.f{fill:#00629c;}.g,.h,.i,.j,.k,.l,.m,.n{fill:#3bf;}.h{opacity:0.3;}.i{opacity:0.5;}.j{opacity:0.4;}.k{opacity:0.6;}</style></defs><title>cloud-rounded-logo-w-transparency</title><path class="a" d="M151.81,51.3H126.25A7.77,7.77,0,0,0,119.52,63L132.3,85.1a7.77,7.77,0,0,0,13.46,0L158.55,63a7.77,7.77,0,0,0-6.74-11.66Z"/><path class="b" d="M116.15,64.9a7.78,7.78,0,0,0-13.47,0L89.9,87A7.77,7.77,0,0,0,96.63,98.7H122.2A7.77,7.77,0,0,0,128.93,87Z"/><path class="c" d="M205,13.61a7.78,7.78,0,0,0-13.47,0L178.75,35.75a7.78,7.78,0,0,0,6.73,11.66h25.57a7.78,7.78,0,0,0,6.73-11.66Z"/><path class="d" d="M211.05,51.3H185.48A7.77,7.77,0,0,0,178.75,63L191.53,85.1a7.78,7.78,0,0,0,13.47,0L217.78,63a7.77,7.77,0,0,0-6.73-11.66Z"/><path class="e" d="M175.38,64.9a7.78,7.78,0,0,0-13.47,0L149.13,87a7.77,7.77,0,0,0,6.74,11.66h25.56A7.77,7.77,0,0,0,188.16,87Z"/><path class="f" d="M240.66,0H215.1a7.78,7.78,0,0,0-6.74,11.66L221.15,33.8a7.77,7.77,0,0,0,13.46,0l12.78-22.14a7.67,7.67,0,0,0,0-7.77A7.68,7.68,0,0,0,240.66,0Z"/><path class="d" d="M264.23,13.61a7.78,7.78,0,0,0-13.47,0L238,35.75a7.78,7.78,0,0,0,6.73,11.66h25.57A7.78,7.78,0,0,0,277,35.75Z"/><path class="d" d="M270.28,51.3H244.71A7.77,7.77,0,0,0,238,63L250.76,85.1a7.78,7.78,0,0,0,13.47,0L277,63a7.77,7.77,0,0,0-6.73-11.66Z"/><path class="a" d="M234.61,64.9a7.77,7.77,0,0,0-13.46,0L208.36,87A7.77,7.77,0,0,0,215.1,98.7h25.56A7.77,7.77,0,0,0,247.39,87Z"/><path class="g" d="M293.84,64.9a7.77,7.77,0,0,0-13.46,0L267.6,87a7.77,7.77,0,0,0,6.73,11.66h25.56A7.77,7.77,0,0,0,306.63,87Z"/><path class="h" d="M27.3,116.2a7.77,7.77,0,0,0-13.46,0L1.05,138.34A7.78,7.78,0,0,0,7.79,150H33.35a7.78,7.78,0,0,0,6.73-11.66Z"/><path class="i" d="M63,102.59H37.4a7.78,7.78,0,0,0-6.73,11.66l12.78,22.14a7.78,7.78,0,0,0,13.47,0L69.7,114.25A7.78,7.78,0,0,0,63,102.59Z"/><path class="j" d="M86.53,116.2a7.77,7.77,0,0,0-13.46,0L60.29,138.34A7.78,7.78,0,0,0,67,150H92.58a7.78,7.78,0,0,0,6.74-11.66Z"/><path class="k" d="M122.2,102.59H96.63a7.78,7.78,0,0,0-6.73,11.66l12.78,22.14a7.78,7.78,0,0,0,13.47,0l12.78-22.14a7.78,7.78,0,0,0-6.73-11.66Z"/><path class="i" d="M145.76,116.2a7.77,7.77,0,0,0-13.46,0l-12.78,22.14A7.78,7.78,0,0,0,126.25,150h25.56a7.78,7.78,0,0,0,6.74-11.66Z"/><path class="l" d="M181.43,102.59H155.87a7.78,7.78,0,0,0-6.74,11.66l12.78,22.14a7.78,7.78,0,0,0,13.47,0l12.78-22.14a7.78,7.78,0,0,0-6.73-11.66Z"/><path class="k" d="M205,116.2a7.78,7.78,0,0,0-13.47,0l-12.78,22.14A7.78,7.78,0,0,0,185.48,150h25.57a7.78,7.78,0,0,0,6.73-11.66Z"/><path class="l" d="M240.66,102.59H215.1a7.78,7.78,0,0,0-6.74,11.66l12.79,22.14a7.77,7.77,0,0,0,13.46,0l12.78-22.14a7.78,7.78,0,0,0-6.73-11.66Z"/><path class="m" d="M264.23,116.2a7.78,7.78,0,0,0-13.47,0L238,138.34A7.78,7.78,0,0,0,244.71,150h25.57A7.78,7.78,0,0,0,277,138.34Z"/><path class="n" d="M299.89,102.59H274.33a7.78,7.78,0,0,0-6.73,11.66l12.78,22.14a7.77,7.77,0,0,0,13.46,0l12.79-22.14a7.78,7.78,0,0,0-6.74-11.66Z"/></svg>