<svg xmlns="http://www.w3.org/2000/svg" viewBox="0 0 90 30"><defs><style>.a{fill:#3bf;}</style></defs><title>cloud-word-3bf</title><path class="a" d="M11.49,0a18.71,18.71,0,0,1,7.6,1.36V4a18.15,18.15,0,0,0-7.6-1.52C5.1,2.45,2.81,8,2.81,15S5.1,27.55,11.49,27.55A18.15,18.15,0,0,0,19.09,26v2.61A18.71,18.71,0,0,1,11.49,30C2.77,30,0,23.3,0,15S2.77,0,11.49,0Z"/><path class="a" d="M24.58,25.72V.39h2.65V26c0,1.36.43,1.75,1.64,1.75V30C26.06,30,24.58,28.83,24.58,25.72Z"/><path class="a" d="M41.1,30c-6.66,0-8.18-4.17-8.18-10.13S34.44,9.74,41.1,9.74s8.18,4.17,8.18,10.13S47.8,30,41.1,30Zm0-17.84c-5.14,0-5.45,3.31-5.45,7.71s.31,7.71,5.45,7.71,5.45-3.31,5.45-7.71S46.17,12.16,41.1,12.16Z"/><path class="a" d="M56.49,24.27c0,2.54,1.48,3.31,3.89,3.31a9.33,9.33,0,0,0,5.26-1.24V10.13h2.73V29.61H66.85L66.27,28a9.67,9.67,0,0,1-5.89,2c-4.63,0-6.62-2.1-6.62-5.84v-14h2.73Z"/><path class="a" d="M86.49,11.34V.39h2.72V29.61H87.69L87.11,28A11.13,11.13,0,0,1,81,30c-6.27,0-8-4.52-8-10.13S74.76,9.74,81,9.74A10.21,10.21,0,0,1,86.49,11.34ZM75.77,19.87c0,3.86.59,7.71,5.26,7.71a10.29,10.29,0,0,0,5.46-1.24V13.4A10.29,10.29,0,0,0,81,12.16C76.36,12.16,75.77,16,75.77,19.87Z"/></svg>