<svg xmlns="http://www.w3.org/2000/svg" viewBox="0 0 281 50"><defs><style>.a{fill:#3bf;}</style></defs><title>cloudCore-word-3bf</title><path class="a" d="M19.16,0A31.11,31.11,0,0,1,31.82,2.27V6.62A30.36,30.36,0,0,0,19.16,4.09C8.51,4.09,4.68,13.25,4.68,25S8.51,45.91,19.16,45.91a30.36,30.36,0,0,0,12.66-2.53v4.35A31.11,31.11,0,0,1,19.16,50C4.61,50,0,38.83,0,25S4.61,0,19.16,0Z"/><path class="a" d="M41,42.86V.65h4.42V43.38c0,2.27.71,2.92,2.72,2.92V50C43.44,50,41,48.05,41,42.86Z"/><path class="a" d="M68.5,50c-11.1,0-13.63-7-13.63-16.88S57.4,16.23,68.5,16.23s13.64,7,13.64,16.89S79.67,50,68.5,50Zm0-29.74c-8.57,0-9.09,5.52-9.09,12.86S59.93,46,68.5,46s9.09-5.52,9.09-12.85S76.94,20.26,68.5,20.26Z"/><path class="a" d="M94.15,40.45c0,4.22,2.47,5.52,6.49,5.52,4.22,0,6.37-.71,8.77-2.07v-27H114V49.35h-2.54l-1-2.73A16.14,16.14,0,0,1,100.64,50c-7.72,0-11-3.51-11-9.74V16.88h4.55Z"/><path class="a" d="M144.15,18.9V.65h4.54v48.7h-2.53l-1-2.66A18.64,18.64,0,0,1,135.06,50c-10.46,0-13.31-7.53-13.31-16.88s2.85-16.89,13.31-16.89A17,17,0,0,1,144.15,18.9ZM126.29,33.12c0,6.42,1,12.85,8.77,12.85a17.16,17.16,0,0,0,9.09-2.07V22.34a17.06,17.06,0,0,0-9.09-2.08C127.27,20.26,126.29,26.69,126.29,33.12Z"/><path class="a" d="M176,0a31.16,31.16,0,0,1,12.67,2.27V6.62A30.4,30.4,0,0,0,176,4.09c-10.65,0-14.48,9.16-14.48,20.91S165.31,45.91,176,45.91a30.4,30.4,0,0,0,12.67-2.53v4.35A31.16,31.16,0,0,1,176,50c-14.54,0-19.15-11.17-19.15-25S161.42,0,176,0Z"/><path class="a" d="M209.73,50c-11.11,0-13.64-7-13.64-16.88s2.53-16.89,13.64-16.89,13.63,7,13.63,16.89S220.9,50,209.73,50Zm0-29.74c-8.57,0-9.09,5.52-9.09,12.86S201.16,46,209.73,46s9.09-5.52,9.09-12.85S218.17,20.26,209.73,20.26Z"/><path class="a" d="M249,20.78a12.37,12.37,0,0,0-3.9-.52c-4.41,0-7,.71-9.41,2.08v27h-4.55V16.88h2.54l1,2.73a17.63,17.63,0,0,1,10.45-3.38,23,23,0,0,1,3.9.33Z"/><path class="a" d="M267.71,16.23c11,0,12.34,7.54,12.34,16.89V35.2H258.62c.26,5.64,1.75,10.77,9.09,10.77,4.67,0,7.53-.45,10.71-1.81v3.89a26.16,26.16,0,0,1-10.71,2c-11,0-13.64-7.53-13.64-16.88S256.74,16.23,267.71,16.23Zm-9.09,15.26H275.5c0-5.78-.32-11.23-7.79-11.23S258.81,25.65,258.62,31.49Z"/></svg>