<svg xmlns="http://www.w3.org/2000/svg" viewBox="0 0 308 150"><defs><style>.a,.b,.h,.i,.j,.k,.l,.o{fill:#3bf;}.a,.b,.c,.d,.e,.f,.g,.h,.i,.j,.k,.l,.m,.n,.o{stroke:#fff;stroke-miterlimit:10;stroke-width:0.5px;}.a{opacity:0.75;}.b{opacity:0.95;}.c{fill:#f91;}.d,.e,.g,.m,.n{fill:#007dc5;}.d,.f,.o{opacity:0.9;}.e,.j{opacity:0.85;}.f{fill:#00629c;}.i{opacity:0.6;}.k,.m{opacity:0.65;}.l,.n{opacity:0.8;}</style></defs><title>cloud-rounded-sizes-3</title><path class="a" d="M137.67,61.2H120.83a5.12,5.12,0,0,0-4.44,7.68l8.42,14.59a5.13,5.13,0,0,0,8.88,0l8.42-14.59a5.12,5.12,0,0,0-4.44-7.68Z"/><path class="b" d="M111.6,69.54a6.56,6.56,0,0,0-11.36,0L89.46,88.21a6.56,6.56,0,0,0,5.68,9.84H116.7a6.56,6.56,0,0,0,5.68-9.84Z"/><path class="c" d="M197.78,13.52a7.72,7.72,0,0,0-13.38,0l-12.69,22a7.72,7.72,0,0,0,6.69,11.58h25.39a7.72,7.72,0,0,0,6.69-11.58Z"/><path class="d" d="M202.88,52.29H179.3a7.18,7.18,0,0,0-6.21,10.76l11.79,20.42a7.17,7.17,0,0,0,12.42,0l11.79-20.42a7.18,7.18,0,0,0-6.21-10.76Z"/><path class="e" d="M169.34,66.87a7.17,7.17,0,0,0-12.42,0L145.13,87.29a7.18,7.18,0,0,0,6.21,10.76h23.58a7.18,7.18,0,0,0,6.21-10.76Z"/><path class="f" d="M233.21,0h-25.4a7.62,7.62,0,0,0-6.68,3.86,7.64,7.64,0,0,0,0,7.73l12.69,22a7.73,7.73,0,0,0,13.38,0l12.7-22A7.73,7.73,0,0,0,233.21,0Z"/><path class="g" d="M256.62,13.52a7.72,7.72,0,0,0-13.38,0l-12.7,22a7.72,7.72,0,0,0,6.69,11.58h25.4a7.72,7.72,0,0,0,6.68-11.58Z"/><path class="g" d="M262.63,51h-25.4a7.73,7.73,0,0,0-6.69,11.59l12.7,22a7.73,7.73,0,0,0,13.38,0l12.69-22A7.73,7.73,0,0,0,262.63,51Z"/><path class="d" d="M227.2,64.47a7.73,7.73,0,0,0-13.38,0l-12.69,22a7.73,7.73,0,0,0,6.68,11.59h25.4a7.73,7.73,0,0,0,6.69-11.59Z"/><path class="h" d="M284.1,66.87a7.17,7.17,0,0,0-12.42,0L259.89,87.29a7.18,7.18,0,0,0,6.21,10.76h23.58a7.18,7.18,0,0,0,6.21-10.76Z"/><path class="i" d="M24.77,116.57a4.72,4.72,0,0,0-8.16,0L8.86,130a4.71,4.71,0,0,0,4.08,7.07h15.5A4.71,4.71,0,0,0,32.52,130Z"/><path class="j" d="M58.44,105.22H34.86A7.18,7.18,0,0,0,28.65,116L40.44,136.4a7.17,7.17,0,0,0,12.42,0L64.65,116a7.18,7.18,0,0,0-6.21-10.76Z"/><path class="k" d="M79.4,113.89a5.16,5.16,0,0,0-8.94,0L62,128.58a5.16,5.16,0,0,0,4.46,7.73h17a5.16,5.16,0,0,0,4.46-7.73Z"/><path class="l" d="M115.63,101.91H90.53a7.63,7.63,0,0,0-6.61,11.45l12.55,21.73a7.63,7.63,0,0,0,13.22,0l12.55-21.73a7.63,7.63,0,0,0-6.61-11.45Z"/><path class="m" d="M139.52,115.92a7.84,7.84,0,0,0-13.58,0l-12.89,22.32A7.84,7.84,0,0,0,119.84,150h25.77a7.84,7.84,0,0,0,6.79-11.76Z"/><path class="n" d="M170.25,101.91H148a6.76,6.76,0,0,0-5.86,10.14l11.12,19.26a6.76,6.76,0,0,0,11.71,0l11.12-19.26a6.76,6.76,0,0,0-5.86-10.14Z"/><path class="i" d="M202.09,114.45a5.78,5.78,0,0,0-10,0l-9.49,16.45a5.78,5.78,0,0,0,5,8.66h19a5.78,5.78,0,0,0,5-8.66Z"/><path class="a" d="M234.72,101.91H211.81a7,7,0,0,0-6,10.45l11.45,19.84a7,7,0,0,0,12.07,0l11.45-19.84a7,7,0,0,0-6-10.45Z"/><path class="l" d="M256.14,115.15a7.17,7.17,0,0,0-12.42,0l-11.79,20.42a7.18,7.18,0,0,0,6.21,10.76h23.58a7.18,7.18,0,0,0,6.21-10.76Z"/><path class="o" d="M292,101.91H266.65A7.72,7.72,0,0,0,260,113.49l12.7,22a7.72,7.72,0,0,0,13.38,0l12.69-22A7.72,7.72,0,0,0,292,101.91Z"/></svg>