<svg xmlns="http://www.w3.org/2000/svg" viewBox="0 0 308 150"><defs><style>.a,.b,.h,.i,.l,.m{fill:#3bf;}.b,.k{opacity:0.8;}.c{fill:#f91;}.d,.e,.g,.j,.k{fill:#007dc5;}.d,.f,.i{opacity:0.9;}.e{opacity:0.85;}.f{fill:#00629c;}.h{opacity:0.55;}.j{opacity:0.7;}.l{opacity:0.65;}.m{opacity:0.75;}</style></defs><title>cloud-rounded-sizes</title><path class="a" d="M143.63,60h-17a5.15,5.15,0,0,0-4.47,7.73l8.48,14.69a5.15,5.15,0,0,0,8.93,0l8.48-14.69A5.15,5.15,0,0,0,143.63,60Z"/><path class="b" d="M118.24,70a6.61,6.61,0,0,0-11.44,0L96,88.8a6.6,6.6,0,0,0,5.72,9.9h21.7a6.6,6.6,0,0,0,5.72-9.9Z"/><path class="c" d="M205,13.61a7.78,7.78,0,0,0-13.47,0L178.75,35.75a7.78,7.78,0,0,0,6.73,11.66h25.57a7.78,7.78,0,0,0,6.73-11.66Z"/><path class="d" d="M210.13,52.64H186.39a7.22,7.22,0,0,0-6.25,10.83L192,84a7.22,7.22,0,0,0,12.51,0l11.87-20.56a7.22,7.22,0,0,0-6.26-10.83Z"/><path class="e" d="M176.37,67.31a7.22,7.22,0,0,0-12.51,0L152,87.87a7.22,7.22,0,0,0,6.26,10.83H182a7.22,7.22,0,0,0,6.25-10.83Z"/><path class="f" d="M240.66,0H215.1a7.78,7.78,0,0,0-6.74,11.66L221.15,33.8a7.77,7.77,0,0,0,13.46,0l12.78-22.14a7.67,7.67,0,0,0,0-7.77A7.68,7.68,0,0,0,240.66,0Z"/><path class="g" d="M264.23,13.61a7.78,7.78,0,0,0-13.47,0L238,35.75a7.78,7.78,0,0,0,6.73,11.66h25.57A7.78,7.78,0,0,0,277,35.75Z"/><path class="g" d="M270.28,51.3H244.71A7.77,7.77,0,0,0,238,63L250.76,85.1a7.78,7.78,0,0,0,13.47,0L277,63a7.77,7.77,0,0,0-6.73-11.66Z"/><path class="d" d="M234.61,64.9a7.77,7.77,0,0,0-13.46,0L208.36,87A7.77,7.77,0,0,0,215.1,98.7h25.56A7.77,7.77,0,0,0,247.39,87Z"/><path class="a" d="M291.9,67.31a7.22,7.22,0,0,0-12.51,0L267.52,87.87a7.22,7.22,0,0,0,6.25,10.83h23.74a7.22,7.22,0,0,0,6.26-10.83Z"/><path class="h" d="M27.67,117.18a4.75,4.75,0,0,0-8.22,0l-7.8,13.51a4.75,4.75,0,0,0,4.11,7.12h15.6a4.75,4.75,0,0,0,4.11-7.12Z"/><path class="i" d="M62.57,106.94H38.83a7.22,7.22,0,0,0-6.25,10.83l11.87,20.56a7.22,7.22,0,0,0,12.5,0l11.87-20.56a7.22,7.22,0,0,0-6.25-10.83Z"/><path class="b" d="M84.8,115.2a5.77,5.77,0,0,0-10,0l-9.5,16.45a5.78,5.78,0,0,0,5,8.66h19a5.78,5.78,0,0,0,5-8.66Z"/><path class="j" d="M122.2,102.59H96.63a7.78,7.78,0,0,0-6.73,11.66l12.78,22.14a7.78,7.78,0,0,0,13.47,0l12.78-22.14a7.78,7.78,0,0,0-6.73-11.66Z"/><path class="k" d="M145.76,115.92a7.22,7.22,0,0,0-12.51,0l-11.87,20.56a7.22,7.22,0,0,0,6.26,10.83h23.74a7.22,7.22,0,0,0,6.25-10.83Z"/><path class="k" d="M177.28,102.59H154.9A6.81,6.81,0,0,0,149,112.8l11.19,19.39a6.81,6.81,0,0,0,11.79,0l11.2-19.39a6.81,6.81,0,0,0-5.9-10.21Z"/><path class="l" d="M209.53,115.1a5.56,5.56,0,0,0-9.64,0L190.73,131a5.57,5.57,0,0,0,4.82,8.35h18.32a5.57,5.57,0,0,0,4.82-8.35Z"/><path class="m" d="M242.18,102.59H219.12a7,7,0,0,0-6.07,10.52l11.53,20a7,7,0,0,0,12.14,0l11.53-20a7,7,0,0,0-6.07-10.52Z"/><path class="b" d="M263.75,115.92a7.22,7.22,0,0,0-12.51,0l-11.87,20.56a7.22,7.22,0,0,0,6.25,10.83h23.74a7.22,7.22,0,0,0,6.26-10.83Z"/><path class="i" d="M299.89,102.59H274.33a7.78,7.78,0,0,0-6.73,11.66l12.78,22.14a7.77,7.77,0,0,0,13.46,0l12.78-22.14a7.78,7.78,0,0,0-6.73-11.66Z"/></svg>