<svg xmlns="http://www.w3.org/2000/svg" viewBox="0 0 308 150"><defs><style>.a,.b,.h,.i,.m,.n{fill:#3bf;}.b,.l{opacity:0.8;}.c{fill:#f91;}.d,.e,.g,.j,.k,.l{fill:#007dc5;}.d,.f,.i{opacity:0.9;}.e{opacity:0.85;}.f{fill:#00629c;}.h{opacity:0.55;}.j{opacity:0.7;}.k,.n{opacity:0.75;}.m{opacity:0.6;}</style></defs><title>cloud-rounded-sizes-2</title><path class="a" d="M132.59,61.2H115.74a5.12,5.12,0,0,0-4.43,7.68l8.42,14.59a5.12,5.12,0,0,0,8.87,0L137,68.88a5.12,5.12,0,0,0-4.43-7.68Z"/><path class="b" d="M106.52,69.54a6.56,6.56,0,0,0-11.36,0L84.38,88.21a6.56,6.56,0,0,0,5.68,9.84h21.56a6.56,6.56,0,0,0,5.68-9.84Z"/><path class="c" d="M192.7,13.52a7.72,7.72,0,0,0-13.38,0l-12.7,22a7.72,7.72,0,0,0,6.69,11.58h25.4a7.72,7.72,0,0,0,6.68-11.58Z"/><path class="d" d="M197.8,52.29H174.22A7.18,7.18,0,0,0,168,63.05L179.8,83.47a7.17,7.17,0,0,0,12.42,0L204,63.05a7.18,7.18,0,0,0-6.21-10.76Z"/><path class="e" d="M164.26,66.87a7.17,7.17,0,0,0-12.42,0L140.05,87.29a7.18,7.18,0,0,0,6.21,10.76h23.58a7.18,7.18,0,0,0,6.21-10.76Z"/><path class="f" d="M228.12,0H202.73A7.73,7.73,0,0,0,196,11.59l12.7,22a7.72,7.72,0,0,0,13.37,0l12.7-22a7.64,7.64,0,0,0,0-7.73A7.63,7.63,0,0,0,228.12,0Z"/><path class="g" d="M251.53,13.52a7.71,7.71,0,0,0-13.37,0l-12.7,22a7.72,7.72,0,0,0,6.69,11.58h25.39a7.72,7.72,0,0,0,6.69-11.58Z"/><path class="g" d="M257.54,51H232.15a7.73,7.73,0,0,0-6.69,11.59l12.7,22a7.72,7.72,0,0,0,13.37,0l12.7-22A7.73,7.73,0,0,0,257.54,51Z"/><path class="d" d="M222.11,64.47a7.72,7.72,0,0,0-13.37,0l-12.7,22a7.73,7.73,0,0,0,6.69,11.59h25.39a7.73,7.73,0,0,0,6.69-11.59Z"/><path class="a" d="M279,66.87a7.17,7.17,0,0,0-12.43,0L254.8,87.29A7.18,7.18,0,0,0,261,98.05H284.6a7.18,7.18,0,0,0,6.21-10.76Z"/><path class="h" d="M19.69,116.57a4.73,4.73,0,0,0-8.17,0L3.78,130a4.71,4.71,0,0,0,4.08,7.07H23.35A4.71,4.71,0,0,0,27.44,130Z"/><path class="i" d="M53.36,105.22H29.78A7.18,7.18,0,0,0,23.56,116l11.8,20.42a7.17,7.17,0,0,0,12.42,0L59.57,116a7.18,7.18,0,0,0-6.21-10.76Z"/><path class="b" d="M74.31,113.89a5.15,5.15,0,0,0-8.93,0L56.9,128.58a5.16,5.16,0,0,0,4.47,7.73H78.32a5.16,5.16,0,0,0,4.47-7.73Z"/><path class="j" d="M110.54,101.91H85.44a7.63,7.63,0,0,0-6.61,11.45l12.55,21.73a7.63,7.63,0,0,0,13.22,0l12.55-21.73a7.63,7.63,0,0,0-6.61-11.45Z"/><path class="k" d="M134.43,115.92a7.84,7.84,0,0,0-13.58,0L108,138.24A7.84,7.84,0,0,0,114.76,150h25.77a7.84,7.84,0,0,0,6.79-11.76Z"/><path class="l" d="M165.16,101.91H142.93a6.76,6.76,0,0,0-5.85,10.14l11.11,19.26a6.76,6.76,0,0,0,11.71,0L171,112.05a6.76,6.76,0,0,0-5.86-10.14Z"/><path class="m" d="M197,114.45a5.77,5.77,0,0,0-10,0l-9.5,16.45a5.78,5.78,0,0,0,5,8.66h19a5.78,5.78,0,0,0,5-8.66Z"/><path class="n" d="M229.63,101.91h-22.9a7,7,0,0,0-6,10.45l11.46,19.84a7,7,0,0,0,12.06,0l11.46-19.84a7,7,0,0,0-6-10.45Z"/><path class="b" d="M251.06,115.15a7.17,7.17,0,0,0-12.43,0l-11.79,20.42a7.18,7.18,0,0,0,6.21,10.76h23.59a7.18,7.18,0,0,0,6.21-10.76Z"/><path class="i" d="M287,101.91H261.57a7.72,7.72,0,0,0-6.69,11.58l12.69,22a7.72,7.72,0,0,0,13.38,0l12.7-22A7.72,7.72,0,0,0,287,101.91Z"/></svg>