<svg xmlns="http://www.w3.org/2000/svg" viewBox="0 0 900 280"><defs><style>.a{fill:#ccc;}.a,.b,.c,.d,.e,.f,.g,.h,.i,.j{stroke:#fff;stroke-miterlimit:10;stroke-width:3px;}.b{fill:#666;}.c{fill:#555;}.d{fill:#777;}.e{fill:#888;}.f{fill:#999;}.g{fill:#eee;}.h{fill:#aaa;}.i{fill:#ddd;}.j{fill:#bbb;}</style></defs><title>extra-clouds-sharp</title><polygon class="a" points="583.47 221.91 544.5 199.41 583.47 176.91 583.47 221.91"/><polygon class="b" points="583.47 229.89 636.25 199.41 583.47 168.94 583.47 229.89"/><polygon class="c" points="636.25 199.41 588.61 171.91 636.25 144.41 636.25 199.41"/><polygon class="d" points="636.25 254.41 588.61 226.91 636.25 199.41 636.25 254.41"/><polygon class="e" points="636.25 251.94 679.55 226.94 636.25 201.94 636.25 251.94"/><polygon class="f" points="691.02 227.44 643.39 199.94 691.02 172.44 691.02 227.44"/><polygon class="b" points="636.25 196.91 679.55 171.91 636.25 146.91 636.25 196.91"/><polygon class="d" points="691.02 170.94 638.25 140.47 691.02 110 691.02 170.94"/><polygon class="e" points="691.02 228.94 741.25 199.94 691.02 170.94 691.02 228.94"/><polygon class="d" points="691.02 170.94 743.8 140.47 691.02 110 691.02 170.94"/><polygon class="e" points="741.25 199.94 691.02 170.94 741.25 141.94 741.25 199.94"/><polygon class="a" points="741.25 193.44 780.22 170.94 741.25 148.44 741.25 193.44"/><polygon class="e" points="749.8 245.41 793.1 220.41 749.8 195.41 749.8 245.41"/><polygon class="a" points="850.21 248.39 802.58 220.89 850.21 193.39 850.21 248.39"/><polygon class="g" points="851.03 243.39 890 220.89 851.03 198.39 851.03 243.39"/><polygon class="h" points="802.58 225.89 749.8 195.41 802.58 164.94 802.58 225.89"/><polygon class="i" points="802.58 220.89 838.95 199.89 802.58 178.89 802.58 220.89"/><polygon class="h" points="300.34 122.97 339.31 100.47 300.34 77.97 300.34 122.97"/><polygon class="d" points="300.34 130.94 247.56 100.47 300.34 70 300.34 130.94"/><polygon class="a" points="140.27 144.53 179.3 122 140.27 99.47 140.27 144.53"/><polygon class="c" points="247.56 100.47 300.34 70 247.56 39.53 247.56 100.47"/><polygon class="e" points="247.56 161.41 300.34 130.94 247.56 100.47 247.56 161.41"/><polygon class="d" points="247.56 161.41 194.78 130.94 247.56 100.47 247.56 161.41"/><polygon class="b" points="194.78 130.94 247.56 100.47 194.78 70 194.78 130.94"/><polygon class="b" points="247.56 100.47 194.78 70 247.56 39.53 247.56 100.47"/><polygon class="e" points="194.78 70 233.75 47.5 194.78 25 194.78 70"/><polygon class="h" points="194.78 118 153.21 94 194.78 70 194.78 118"/><polygon class="d" points="194.78 70 151.48 45 194.78 20 194.78 70"/><polygon class="e" points="147.15 97.5 194.78 70 147.15 42.5 147.15 97.5"/><polygon class="i" points="147.15 97.5 108.18 75 147.15 52.5 147.15 97.5"/><polygon class="e" points="140.27 154.4 92.7 126.93 140.27 99.47 140.27 154.4"/><polygon class="d" points="45.13 154.4 92.7 126.93 45.13 99.47 45.13 154.4"/><polygon class="j" points="45.13 147.21 10 126.93 45.13 106.65 45.13 147.21"/><polygon class="b" points="92.7 126.93 140.27 99.47 92.7 72 92.7 126.93"/><polygon class="e" points="92.7 126.93 45.13 99.47 92.7 72 92.7 126.93"/><polygon class="b" points="92.7 167.49 127.83 147.21 92.7 126.93 92.7 167.49"/><polygon class="e" points="92.7 172 53.67 149.47 92.7 126.93 92.7 172"/><polygon class="d" points="749.8 240.41 710.83 217.91 749.8 195.41 749.8 240.41"/></svg>