<svg xmlns="http://www.w3.org/2000/svg" viewBox="0 0 900 280"><defs><style>.a,.s{opacity:0.2;}.b,.e,.g{fill:#ade;}.b,.c,.d,.e,.f,.g,.h,.i,.j,.k,.l,.m,.n,.o,.p,.q,.r,.s,.t,.u{stroke:#fff;stroke-miterlimit:10;stroke-width:3px;}.b,.f,.i,.m{opacity:0.8;}.c,.f,.j{fill:#3bf;}.c,.h{opacity:0.7;}.d,.h,.i,.p,.q,.r,.s,.t,.u{fill:#007dc5;}.e,.k,.n{opacity:0.9;}.k,.l{fill:#055480;}.m,.n,.o{fill:#0c5480;}.p{opacity:0.75;}.q{opacity:0.5;}.r{opacity:0.85;}.t{opacity:0.95;}.u{opacity:0;}</style></defs><title>extra_clouds_2</title><g class="a"><path class="b" d="M867.22,238.65,890,225.49a10,10,0,0,0,0-17.32L867.22,195a10,10,0,0,0-15,8.66V230A10,10,0,0,0,867.22,238.65Z"/><path class="c" d="M837.22,238.65l-22.78-13.16a10,10,0,0,1,0-17.32L837.22,195a10,10,0,0,1,15,8.66V230A10,10,0,0,1,837.22,238.65Z"/><path class="d" d="M731.66,238.65l-22.77-13.16a10,10,0,0,1,0-17.32L731.66,195a10,10,0,0,1,15,8.66V230A10,10,0,0,1,731.66,238.65Z"/><path class="e" d="M814.44,164.55l22.78,13.15a10,10,0,0,1,0,17.32l-22.78,13.15a10,10,0,0,1-15-8.66v-26.3A10,10,0,0,1,814.44,164.55Z"/><path class="f" d="M784.44,164.55,761.66,177.7a10,10,0,0,0,0,17.32l22.78,13.15a10,10,0,0,0,15-8.66v-26.3A10,10,0,0,0,784.44,164.55Z"/><path class="g" d="M761.66,177.7l22.78-13.15a10,10,0,0,0,0-17.32l-22.78-13.15a10,10,0,0,0-15,8.66V169A10,10,0,0,0,761.66,177.7Z"/><path class="h" d="M761.66,238.65l22.78-13.16a10,10,0,0,0,0-17.32L761.66,195a10,10,0,0,0-15,8.66V230A10,10,0,0,0,761.66,238.65Z"/><path class="i" d="M708.89,164.55l22.77,13.15a10,10,0,0,1,0,17.32l-22.77,13.15a10,10,0,0,1-15-8.66v-26.3A10,10,0,0,1,708.89,164.55Z"/><path class="j" d="M731.66,177.7l-22.77-13.15a10,10,0,0,1,0-17.32l22.77-13.15a10,10,0,0,1,15,8.66V169A10,10,0,0,1,731.66,177.7Z"/><path class="g" d="M708.89,103.61l22.77,13.15a10,10,0,0,1,0,17.32l-22.77,13.15a10,10,0,0,1-15-8.66v-26.3A10,10,0,0,1,708.89,103.61Z"/><path class="f" d="M678.89,103.61l-22.78,13.15a10,10,0,0,0,0,17.32l22.78,13.15a10,10,0,0,0,15-8.66v-26.3A10,10,0,0,0,678.89,103.61Z"/><path class="k" d="M603.33,164.55l22.78,13.15a10,10,0,0,1,0,17.32l-22.78,13.15a10,10,0,0,1-15-8.66v-26.3A10,10,0,0,1,603.33,164.55Z"/><path class="l" d="M573.33,164.55,550.55,177.7a10,10,0,0,0,0,17.32l22.78,13.15a10,10,0,0,0,15-8.66v-26.3A10,10,0,0,0,573.33,164.55Z"/><path class="d" d="M678.89,164.55,656.11,177.7a10,10,0,0,0,0,17.32l22.78,13.15a10,10,0,0,0,15-8.66v-26.3A10,10,0,0,0,678.89,164.55Z"/><path class="m" d="M656.11,238.65l22.78-13.16a10,10,0,0,0,0-17.32L656.11,195a10,10,0,0,0-15,8.66V230A10,10,0,0,0,656.11,238.65Z"/><path class="n" d="M656.11,177.7l22.78-13.15a10,10,0,0,0,0-17.32l-22.78-13.15a10,10,0,0,0-15,8.66V169A10,10,0,0,0,656.11,177.7Z"/><path class="o" d="M626.11,238.65l-22.78-13.16a10,10,0,0,1,0-17.32L626.11,195a10,10,0,0,1,15,8.66V230A10,10,0,0,1,626.11,238.65Z"/><path class="o" d="M626.11,177.7l-22.78-13.15a10,10,0,0,1,0-17.32l22.78-13.15a10,10,0,0,1,15,8.66V169A10,10,0,0,1,626.11,177.7Z"/><path class="p" d="M32.78,156.39,10,143.24a10,10,0,0,1,0-17.32l22.78-13.15a10,10,0,0,1,15,8.66v26.3A10,10,0,0,1,32.78,156.39Z"/><path class="i" d="M62.78,156.39l22.78-13.15a10,10,0,0,0,0-17.32L62.78,112.77a10,10,0,0,0-15,8.66v26.3A10,10,0,0,0,62.78,156.39Z"/><path class="q" d="M168.34,156.39l22.77-13.15a10,10,0,0,0,0-17.32l-22.77-13.15a10,10,0,0,0-15,8.66v26.3A10,10,0,0,0,168.34,156.39Z"/><path class="r" d="M85.56,82.3,62.78,95.45a10,10,0,0,0,0,17.32l22.78,13.15a10,10,0,0,0,15-8.66V91A10,10,0,0,0,85.56,82.3Z"/><path class="r" d="M115.56,82.3l22.78,13.15a10,10,0,0,1,0,17.32l-22.78,13.15a10,10,0,0,1-15-8.66V91A10,10,0,0,1,115.56,82.3Z"/><path class="s" d="M138.34,95.45,115.56,82.3a10,10,0,0,1,0-17.32l22.78-13.15a10,10,0,0,1,15,8.66v26.3A10,10,0,0,1,138.34,95.45Z"/><path class="t" d="M138.34,156.39l-22.78-13.15a10,10,0,0,1,0-17.32l22.78-13.15a10,10,0,0,1,15,8.66v26.3A10,10,0,0,1,138.34,156.39Z"/><path class="d" d="M191.11,82.3,168.34,95.45a10,10,0,0,0,0,17.32l22.77,13.15a10,10,0,0,0,15-8.66V91A10,10,0,0,0,191.11,82.3Z"/><path class="d" d="M168.34,95.45,191.11,82.3a10,10,0,0,0,0-17.32L168.34,51.83a10,10,0,0,0-15,8.66v26.3A10,10,0,0,0,168.34,95.45Z"/><path class="d" d="M191.11,21.35,168.34,34.51a10,10,0,0,0,0,17.32L191.11,65a10,10,0,0,0,15-8.66V30A10,10,0,0,0,191.11,21.35Z"/><path class="d" d="M221.11,21.35l22.78,13.16a10,10,0,0,1,0,17.32L221.11,65a10,10,0,0,1-15-8.66V30A10,10,0,0,1,221.11,21.35Z"/><path class="d" d="M296.67,82.3,273.89,95.45a10,10,0,0,0,0,17.32l22.78,13.15a10,10,0,0,0,15-8.66V91A10,10,0,0,0,296.67,82.3Z"/><path class="u" d="M326.67,82.3l22.78,13.15a10,10,0,0,1,0,17.32l-22.78,13.15a10,10,0,0,1-15-8.66V91A10,10,0,0,1,326.67,82.3Z"/><path class="o" d="M221.11,82.3l22.78,13.15a10,10,0,0,1,0,17.32l-22.78,13.15a10,10,0,0,1-15-8.66V91A10,10,0,0,1,221.11,82.3Z"/><path class="o" d="M243.89,156.39l-22.78-13.15a10,10,0,0,1,0-17.32l22.78-13.15a10,10,0,0,1,15,8.66v26.3A10,10,0,0,1,243.89,156.39Z"/><path class="o" d="M243.89,95.45,221.11,82.3a10,10,0,0,1,0-17.32l22.78-13.15a10,10,0,0,1,15,8.66v26.3A10,10,0,0,1,243.89,95.45Z"/><path class="o" d="M273.89,156.39l22.78-13.15a10,10,0,0,0,0-17.32l-22.78-13.15a10,10,0,0,0-15,8.66v26.3A10,10,0,0,0,273.89,156.39Z"/><path class="o" d="M273.89,95.45,296.67,82.3a10,10,0,0,0,0-17.32L273.89,51.83a10,10,0,0,0-15,8.66v26.3A10,10,0,0,0,273.89,95.45Z"/></g></svg>