<?xml version="1.0" encoding="utf-8"?>
<!-- Generator: Adobe Illustrator 23.0.2, SVG Export Plug-In . SVG Version: 6.00 Build 0)  -->
<svg version="1.1" id="Layer_1" xmlns="http://www.w3.org/2000/svg" xmlns:xlink="http://www.w3.org/1999/xlink" x="0px" y="0px"
	 viewBox="0 0 900 280" style="enable-background:new 0 0 900 280;" xml:space="preserve">
<style type="text/css">
	.st0{opacity:0.8;fill:#AADDEE;stroke:#FFFFFF;stroke-width:7;stroke-miterlimit:10;enable-background:new    ;}
	.st1{opacity:0.7;fill:#33BBFF;stroke:#FFFFFF;stroke-width:7;stroke-miterlimit:10;enable-background:new    ;}
	.st2{fill:#007DC5;stroke:#FFFFFF;stroke-width:7;stroke-miterlimit:10;}
	.st3{opacity:0.9;fill:#AADDEE;stroke:#FFFFFF;stroke-width:7;stroke-miterlimit:10;enable-background:new    ;}
	.st4{opacity:0.8;fill:#33BBFF;stroke:#FFFFFF;stroke-width:7;stroke-miterlimit:10;enable-background:new    ;}
	.st5{fill:#AADDEE;stroke:#FFFFFF;stroke-width:7;stroke-miterlimit:10;}
	.st6{opacity:0.7;fill:#007DC5;stroke:#FFFFFF;stroke-width:7;stroke-miterlimit:10;enable-background:new    ;}
	.st7{opacity:0.8;fill:#007DC5;stroke:#FFFFFF;stroke-width:7;stroke-miterlimit:10;enable-background:new    ;}
	.st8{fill:#33BBFF;stroke:#FFFFFF;stroke-width:7;stroke-miterlimit:10;}
	.st9{opacity:0.9;fill:#055480;stroke:#FFFFFF;stroke-width:7;stroke-miterlimit:10;enable-background:new    ;}
	.st10{fill:#055480;stroke:#FFFFFF;stroke-width:7;stroke-miterlimit:10;}
	.st11{opacity:0.8;fill:#0C5480;stroke:#FFFFFF;stroke-width:7;stroke-miterlimit:10;enable-background:new    ;}
	.st12{opacity:0.9;fill:#0C5480;stroke:#FFFFFF;stroke-width:7;stroke-miterlimit:10;enable-background:new    ;}
	.st13{fill:#0C5480;stroke:#FFFFFF;stroke-width:7;stroke-miterlimit:10;}
	.st14{opacity:0.75;fill:#007DC5;stroke:#FFFFFF;stroke-width:7;stroke-miterlimit:10;enable-background:new    ;}
	.st15{opacity:0.5;fill:#007DC5;stroke:#FFFFFF;stroke-width:7;stroke-miterlimit:10;enable-background:new    ;}
	.st16{opacity:0.85;fill:#007DC5;stroke:#FFFFFF;stroke-width:7;stroke-miterlimit:10;enable-background:new    ;}
	.st17{opacity:0.2;fill:#007DC5;stroke:#FFFFFF;stroke-width:7;stroke-miterlimit:10;enable-background:new    ;}
	.st18{opacity:0.95;fill:#007DC5;stroke:#FFFFFF;stroke-width:7;stroke-miterlimit:10;enable-background:new    ;}
	.st19{fill:#007DC5;fill-opacity:0;}
</style>
<path class="st0" d="M867.2,238.6l22.8-13.2c4.8-2.8,6.4-8.9,3.7-13.7c-0.9-1.5-2.1-2.8-3.7-3.7L867.2,195
	c-4.8-2.8-10.9-1.1-13.7,3.7c-0.9,1.5-1.3,3.2-1.3,5V230c0,5.5,4.5,10,10,10C864,240,865.7,239.5,867.2,238.6z"/>
<path class="st1" d="M837.2,238.6l-22.8-13.2c-4.8-2.8-6.4-8.9-3.7-13.7c0.9-1.5,2.1-2.8,3.7-3.7l22.8-13.2
	c4.8-2.8,10.9-1.1,13.7,3.7c0.9,1.5,1.3,3.2,1.3,5V230c0,5.5-4.5,10-10,10C840.5,240,838.7,239.5,837.2,238.6z"/>
<path class="st2" d="M731.7,238.6l-22.8-13.2c-4.8-2.8-6.4-8.9-3.7-13.7c0.9-1.5,2.1-2.8,3.7-3.7l22.8-13.2
	c4.8-2.8,10.9-1.1,13.7,3.7c0.9,1.5,1.3,3.2,1.3,5V230c0,5.5-4.5,10-10,10C734.9,240,733.2,239.5,731.7,238.6z"/>
<path class="st3" d="M814.4,164.6l22.8,13.1c4.8,2.8,6.4,8.9,3.7,13.7c-0.9,1.5-2.1,2.8-3.7,3.7l-22.8,13.1
	c-4.8,2.8-10.9,1.1-13.7-3.7c-0.9-1.5-1.3-3.2-1.3-5v-26.3c0-5.5,4.5-10,10-10C811.2,163.2,812.9,163.7,814.4,164.6z"/>
<path class="st4" d="M784.4,164.6l-22.8,13.1c-4.8,2.8-6.4,8.9-3.7,13.7c0.9,1.5,2.1,2.8,3.7,3.7l22.8,13.1
	c4.8,2.8,10.9,1.1,13.7-3.7c0.9-1.5,1.3-3.2,1.3-5v-26.3c0-5.5-4.5-10-10-10C787.7,163.2,786,163.7,784.4,164.6z"/>
<path class="st5" d="M761.7,177.7l22.8-13.1c4.8-2.8,6.4-8.9,3.7-13.7c-0.9-1.5-2.1-2.8-3.7-3.7l-22.8-13.1
	c-4.8-2.8-10.9-1.1-13.7,3.7c-0.9,1.5-1.3,3.2-1.3,5V169c0,5.5,4.4,10,10,10C758.4,179,760.1,178.6,761.7,177.7z"/>
<path class="st6" d="M761.7,238.6l22.8-13.2c4.8-2.8,6.4-8.9,3.7-13.7c-0.9-1.5-2.1-2.8-3.7-3.7L761.7,195
	c-4.8-2.8-10.9-1.1-13.7,3.7c-0.9,1.5-1.3,3.2-1.3,5V230c0,5.5,4.5,10,10,10C758.4,240,760.1,239.5,761.7,238.6z"/>
<path class="st7" d="M708.9,164.6l22.8,13.1c4.8,2.8,6.4,8.9,3.7,13.7c-0.9,1.5-2.1,2.8-3.7,3.7l-22.8,13.1
	c-4.8,2.8-10.9,1.1-13.7-3.7c-0.9-1.5-1.3-3.2-1.3-5v-26.3c0-5.5,4.5-10,10-10C705.6,163.2,707.4,163.7,708.9,164.6z"/>
<path class="st8" d="M731.7,177.7l-22.8-13.1c-4.8-2.8-6.4-8.9-3.7-13.7c0.9-1.5,2.1-2.8,3.7-3.7l22.8-13.1
	c4.8-2.8,10.9-1.1,13.7,3.7c0.9,1.5,1.3,3.2,1.3,5V169c0,5.5-4.4,10-10,10C734.9,179,733.2,178.6,731.7,177.7z"/>
<path class="st5" d="M708.9,103.6l22.8,13.2c4.8,2.8,6.4,8.9,3.7,13.7c-0.9,1.5-2.1,2.8-3.7,3.7l-22.8,13.1
	c-4.8,2.8-10.9,1.1-13.7-3.7c-0.9-1.5-1.3-3.2-1.3-5v-26.3c0-5.5,4.5-10,10-10C705.6,102.3,707.4,102.7,708.9,103.6z"/>
<path class="st4" d="M678.9,103.6l-22.8,13.2c-4.8,2.8-6.4,8.9-3.7,13.7c0.9,1.5,2.1,2.8,3.7,3.7l22.8,13.1
	c4.8,2.8,10.9,1.1,13.7-3.7c0.9-1.5,1.3-3.2,1.3-5v-26.3c0-5.5-4.5-10-10-10C682.1,102.3,680.4,102.7,678.9,103.6z"/>
<path class="st9" d="M603.3,164.6l22.8,13.1c4.8,2.8,6.4,8.9,3.7,13.7c-0.9,1.5-2.1,2.8-3.7,3.7l-22.8,13.1
	c-4.8,2.8-10.9,1.1-13.7-3.7c-0.9-1.5-1.3-3.2-1.3-5v-26.3c0-5.5,4.5-10,10-10C600.1,163.2,601.8,163.7,603.3,164.6z"/>
<path class="st10" d="M573.3,164.6l-22.8,13.1c-4.8,2.8-6.4,8.9-3.7,13.7c0.9,1.5,2.1,2.8,3.7,3.7l22.8,13.1
	c4.8,2.8,10.9,1.1,13.7-3.7c0.9-1.5,1.3-3.2,1.3-5v-26.3c0-5.5-4.5-10-10-10C576.6,163.2,574.9,163.7,573.3,164.6z"/>
<path class="st2" d="M678.9,164.6l-22.8,13.1c-4.8,2.8-6.4,8.9-3.7,13.7c0.9,1.5,2.1,2.8,3.7,3.7l22.8,13.1
	c4.8,2.8,10.9,1.1,13.7-3.7c0.9-1.5,1.3-3.2,1.3-5v-26.3c0-5.5-4.5-10-10-10C682.1,163.2,680.4,163.7,678.9,164.6z"/>
<path class="st11" d="M656.1,238.6l22.8-13.2c4.8-2.8,6.4-8.9,3.7-13.7c-0.9-1.5-2.1-2.8-3.7-3.7L656.1,195
	c-4.8-2.8-10.9-1.1-13.7,3.7c-0.9,1.5-1.3,3.2-1.3,5V230c0,5.5,4.5,10,10,10C652.9,240,654.6,239.5,656.1,238.6z"/>
<path class="st12" d="M656.1,177.7l22.8-13.1c4.8-2.8,6.4-8.9,3.7-13.7c-0.9-1.5-2.1-2.8-3.7-3.7l-22.8-13.1
	c-4.8-2.8-10.9-1.1-13.7,3.7c-0.9,1.5-1.3,3.2-1.3,5V169c0,5.5,4.4,10,10,10C652.8,179,654.6,178.6,656.1,177.7z"/>
<path class="st13" d="M626.1,238.6l-22.8-13.2c-4.8-2.8-6.4-8.9-3.7-13.7c0.9-1.5,2.1-2.8,3.7-3.7l22.8-13.2
	c4.8-2.8,10.9-1.1,13.7,3.7c0.9,1.5,1.3,3.2,1.3,5V230c0,5.5-4.5,10-10,10C629.3,240,627.6,239.5,626.1,238.6z"/>
<path class="st13" d="M626.1,177.7l-22.8-13.1c-4.8-2.8-6.4-8.9-3.7-13.7c0.9-1.5,2.1-2.8,3.7-3.7l22.8-13.1
	c4.8-2.8,10.9-1.1,13.7,3.7c0.9,1.5,1.3,3.2,1.3,5V169c0,5.5-4.4,10-10,10C629.4,179,627.6,178.6,626.1,177.7z"/>
<path class="st14" d="M32.8,156.4L10,143.2c-4.8-2.8-6.4-8.9-3.7-13.7c0.9-1.5,2.1-2.8,3.7-3.7l22.8-13.2c4.8-2.8,10.9-1.1,13.7,3.7
	c0.9,1.5,1.3,3.2,1.3,5v26.3c0,5.5-4.5,10-10,10C36,157.7,34.3,157.3,32.8,156.4z"/>
<path class="st7" d="M62.8,156.4l22.8-13.1c4.8-2.8,6.4-8.9,3.7-13.7c-0.9-1.5-2.1-2.8-3.7-3.7l-22.8-13.2
	c-4.8-2.8-10.9-1.1-13.7,3.7c-0.9,1.5-1.3,3.2-1.3,5v26.3c0,5.5,4.5,10,10,10C59.5,157.7,61.3,157.3,62.8,156.4z"/>
<path class="st15" d="M168.3,156.4l22.8-13.1c4.8-2.8,6.4-8.9,3.7-13.7c-0.9-1.5-2.1-2.8-3.7-3.7l-22.8-13.2
	c-4.8-2.8-10.9-1.1-13.7,3.7c-0.9,1.5-1.3,3.2-1.3,5v26.3c0,5.5,4.5,10,10,10C165.1,157.7,166.8,157.3,168.3,156.4z"/>
<path class="st16" d="M85.6,82.3L62.8,95.4c-4.8,2.8-6.4,8.9-3.7,13.7c0.9,1.5,2.1,2.8,3.7,3.7l22.8,13.2c4.8,2.8,10.9,1.1,13.7-3.7
	c0.9-1.5,1.3-3.2,1.3-5V91c0-5.5-4.4-10-10-10C88.8,81,87.1,81.4,85.6,82.3z"/>
<path class="st16" d="M115.6,82.3l22.8,13.2c4.8,2.8,6.4,8.9,3.7,13.7c-0.9,1.5-2.1,2.8-3.7,3.7l-22.8,13.2
	c-4.8,2.8-10.9,1.1-13.7-3.7c-0.9-1.5-1.3-3.2-1.3-5V91c0-5.5,4.4-10,10-10C112.3,81,114,81.4,115.6,82.3z"/>
<path class="st17" d="M138.3,95.4l-22.8-13.1c-4.8-2.8-6.4-8.9-3.7-13.7c0.9-1.5,2.1-2.8,3.7-3.7l22.8-13.2
	c4.8-2.8,10.9-1.1,13.7,3.7c0.9,1.5,1.3,3.2,1.3,5v26.3c0,5.5-4.5,10-10,10C141.6,96.8,139.9,96.3,138.3,95.4z"/>
<path class="st18" d="M138.3,156.4l-22.8-13.1c-4.8-2.8-6.4-8.9-3.7-13.7c0.9-1.5,2.1-2.8,3.7-3.7l22.8-13.2
	c4.8-2.8,10.9-1.1,13.7,3.7c0.9,1.5,1.3,3.2,1.3,5v26.3c0,5.5-4.5,10-10,10C141.6,157.7,139.9,157.3,138.3,156.4z"/>
<path class="st2" d="M191.1,82.3l-22.8,13.1c-4.8,2.8-6.4,8.9-3.7,13.7c0.9,1.5,2.1,2.8,3.7,3.7l22.8,13.2
	c4.8,2.8,10.9,1.1,13.7-3.7c0.9-1.5,1.3-3.2,1.3-5V91c0-5.5-4.4-10-10-10C194.4,81,192.6,81.4,191.1,82.3z"/>
<path class="st2" d="M168.3,95.4l22.8-13.1c4.8-2.8,6.4-8.9,3.7-13.7c-0.9-1.5-2.1-2.8-3.7-3.7l-22.8-13.2
	c-4.8-2.8-10.9-1.1-13.7,3.7c-0.9,1.5-1.3,3.2-1.3,5v26.3c0,5.5,4.5,10,10,10C165.1,96.8,166.8,96.3,168.3,95.4z"/>
<path class="st2" d="M191.1,21.4l-22.8,13.2c-4.8,2.8-6.4,8.9-3.7,13.7c0.9,1.5,2.1,2.8,3.7,3.7L191.1,65c4.8,2.8,10.9,1.1,13.7-3.7
	c0.9-1.5,1.3-3.2,1.3-5V30c0-5.5-4.5-10-10-10C194.3,20,192.6,20.5,191.1,21.4z"/>
<path class="st2" d="M221.1,21.4l22.8,13.2c4.8,2.8,6.4,8.9,3.7,13.7c-0.9,1.5-2.1,2.8-3.7,3.7L221.1,65c-4.8,2.8-10.9,1.1-13.7-3.7
	c-0.9-1.5-1.3-3.2-1.3-5V30c0-5.5,4.5-10,10-10C217.9,20,219.6,20.5,221.1,21.4z"/>
<path class="st2" d="M296.7,82.3l-22.8,13.1c-4.8,2.8-6.4,8.9-3.7,13.7c0.9,1.5,2.1,2.8,3.7,3.7l22.8,13.2
	c4.8,2.8,10.9,1.1,13.7-3.7c0.9-1.5,1.3-3.2,1.3-5V91c0-5.5-4.4-10-10-10C299.9,81,298.2,81.4,296.7,82.3z"/>
<path class="st19" d="M326.7,82.3l22.8,13.2c4.8,2.8,6.4,8.9,3.7,13.7c-0.9,1.5-2.1,2.8-3.7,3.7l-22.8,13.2
	c-4.8,2.8-10.9,1.1-13.7-3.7c-0.9-1.5-1.3-3.2-1.3-5V91c0-5.5,4.4-10,10-10C323.4,81,325.1,81.4,326.7,82.3z"/>
<path class="st13" d="M221.1,82.3l22.8,13.2c4.8,2.8,6.4,8.9,3.7,13.7c-0.9,1.5-2.1,2.8-3.7,3.7l-22.8,13.2
	c-4.8,2.8-10.9,1.1-13.7-3.7c-0.9-1.5-1.3-3.2-1.3-5V91c0-5.5,4.4-10,10-10C217.8,81,219.6,81.4,221.1,82.3z"/>
<path class="st13" d="M243.9,156.4l-22.8-13.1c-4.8-2.8-6.4-8.9-3.7-13.7c0.9-1.5,2.1-2.8,3.7-3.7l22.8-13.2
	c4.8-2.8,10.9-1.1,13.7,3.7c0.9,1.5,1.3,3.2,1.3,5v26.3c0,5.5-4.5,10-10,10C247.1,157.7,245.4,157.3,243.9,156.4z"/>
<path class="st13" d="M243.9,95.4l-22.8-13.1c-4.8-2.8-6.4-8.9-3.7-13.7c0.9-1.5,2.1-2.8,3.7-3.7l22.8-13.2
	c4.8-2.8,10.9-1.1,13.7,3.7c0.9,1.5,1.3,3.2,1.3,5v26.3c0,5.5-4.5,10-10,10C247.1,96.8,245.4,96.3,243.9,95.4z"/>
<path class="st13" d="M273.9,156.4l22.8-13.1c4.8-2.8,6.4-8.9,3.7-13.7c-0.9-1.5-2.1-2.8-3.7-3.7l-22.8-13.2
	c-4.8-2.8-10.9-1.1-13.7,3.7c-0.9,1.5-1.3,3.2-1.3,5v26.3c0,5.5,4.5,10,10,10C270.6,157.7,272.4,157.3,273.9,156.4z"/>
<path class="st13" d="M273.9,95.4l22.8-13.1c4.8-2.8,6.4-8.9,3.7-13.7c-0.9-1.5-2.1-2.8-3.7-3.7l-22.8-13.2
	c-4.8-2.8-10.9-1.1-13.7,3.7c-0.9,1.5-1.3,3.2-1.3,5v26.3c0,5.5,4.5,10,10,10C270.6,96.8,272.4,96.3,273.9,95.4z"/>
</svg>
