<svg xmlns="http://www.w3.org/2000/svg" viewBox="0 0 900 280"><defs><style>.a,.c,.e{fill:#333;}.a,.b,.c,.d,.e,.f,.g,.h,.i,.j,.k,.l,.m,.n,.o,.p,.q{stroke:#fff;stroke-miterlimit:10;stroke-width:7px;}.b{fill:#777;}.c,.j,.o{opacity:0.8;}.d{fill:#666;}.e,.l{opacity:0.9;}.f{fill:#bbb;}.g{fill:#999;}.h,.j{fill:#ccc;}.i{fill:#888;}.k{fill:#eee;}.l{fill:#aaa;}.m{fill:#ddd;}.n,.o,.p,.q{fill:#555;}.n{opacity:0.95;}.p{opacity:0.7;}.q{opacity:0.85;}</style></defs><title>extra-clouds-sharp</title><polygon class="a" points="573.33 221.89 520.55 191.41 573.33 160.94 573.33 221.89"/><polygon class="a" points="573.33 221.89 626.11 191.41 573.33 160.94 573.33 221.89"/><polygon class="b" points="731.66 252.36 678.89 221.89 731.66 191.41 731.66 252.36"/><polygon class="a" points="626.11 191.41 573.33 160.94 626.11 130.47 626.11 191.41"/><polygon class="a" points="626.11 252.36 573.33 221.89 626.11 191.41 626.11 252.36"/><polygon class="c" points="626.11 252.36 678.89 221.89 626.11 191.41 626.11 252.36"/><polygon class="d" points="678.89 221.89 626.11 191.41 678.89 160.94 678.89 221.89"/><polygon class="e" points="626.11 191.41 678.89 160.94 626.11 130.47 626.11 191.41"/><polygon class="f" points="678.89 160.94 626.11 130.47 678.89 100 678.89 160.94"/><polygon class="b" points="678.89 221.89 731.66 191.41 678.89 160.94 678.89 221.89"/><polygon class="f" points="678.89 160.94 731.66 130.47 678.89 100 678.89 160.94"/><polygon class="g" points="731.66 191.41 678.89 160.94 731.66 130.47 731.66 191.41"/><polygon class="h" points="731.66 191.41 784.44 160.94 731.66 130.47 731.66 191.41"/><polygon class="i" points="731.66 252.36 784.44 221.89 731.66 191.41 731.66 252.36"/><polygon class="j" points="837.22 252.36 784.44 221.89 837.22 191.41 837.22 252.36"/><polygon class="k" points="837.22 252.36 890 221.89 837.22 191.41 837.22 252.36"/><polygon class="l" points="784.44 221.89 731.66 191.41 784.44 160.94 784.44 221.89"/><polygon class="m" points="784.44 221.89 837.22 191.41 784.44 160.94 784.44 221.89"/><polygon class="i" points="326.67 141.89 379.45 111.42 326.67 80.94 326.67 141.89"/><polygon class="d" points="326.67 141.89 273.89 111.42 326.67 80.94 326.67 141.89"/><polygon class="f" points="168.34 172.36 221.11 141.89 168.34 111.42 168.34 172.36"/><polygon class="a" points="273.89 111.42 326.67 80.94 273.89 50.47 273.89 111.42"/><polygon class="a" points="273.89 172.36 326.67 141.89 273.89 111.42 273.89 172.36"/><polygon class="a" points="273.89 172.36 221.11 141.89 273.89 111.42 273.89 172.36"/><polygon class="a" points="221.11 141.89 273.89 111.42 221.11 80.94 221.11 141.89"/><polygon class="a" points="273.89 111.42 221.11 80.94 273.89 50.47 273.89 111.42"/><polygon class="d" points="221.11 80.94 273.89 50.47 221.11 20 221.11 80.94"/><polygon class="d" points="221.11 141.89 168.34 111.42 221.11 80.94 221.11 141.89"/><polygon class="d" points="221.11 80.94 168.34 50.47 221.11 20 221.11 80.94"/><polygon class="d" points="168.34 111.42 221.11 80.94 168.34 50.47 168.34 111.42"/><polygon class="m" points="168.34 111.42 115.56 80.94 168.34 50.47 168.34 111.42"/><polygon class="n" points="168.34 172.36 115.56 141.89 168.34 111.42 168.34 172.36"/><polygon class="o" points="62.78 172.36 115.56 141.89 62.78 111.42 62.78 172.36"/><polygon class="p" points="62.78 172.36 10 141.89 62.78 111.42 62.78 172.36"/><polygon class="q" points="115.56 141.89 168.34 111.42 115.56 80.94 115.56 141.89"/><polygon class="q" points="115.56 141.89 62.78 111.42 115.56 80.94 115.56 141.89"/></svg>