<svg xmlns="http://www.w3.org/2000/svg" viewBox="0 0 3000 150"><defs><style>.a{fill:#2b2b2b;}.b{fill:#333;}.c{fill:#222;}</style></defs><title>hexagons</title><polygon class="a" points="28.71 25 43.14 0 57.58 25 28.71 25"/><polygon class="b" points="14.28 0 28.71 25 43.14 0 14.28 0"/><polygon class="c" points="-0.16 25 14.28 50 28.71 25 -0.16 25"/><polygon class="c" points="28.71 25 43.14 50 57.58 25 28.71 25"/><polygon class="c" points="14.28 50 28.71 25 43.14 50 14.28 50"/><polygon class="c" points="43.14 0 57.58 25 72.01 0 43.14 0"/><polygon class="c" points="72.01 0 86.44 25 100.88 0 72.01 0"/><polygon class="c" points="57.58 25 72.01 0 86.44 25 57.58 25"/><polygon class="a" points="115.31 25 129.75 0 144.18 25 115.31 25"/><polygon class="b" points="100.88 0 115.31 25 129.75 0 100.88 0"/><polygon class="c" points="86.44 25 100.88 50 115.31 25 86.44 25"/><polygon class="c" points="115.31 25 129.75 50 144.18 25 115.31 25"/><polygon class="c" points="100.88 50 115.31 25 129.75 50 100.88 50"/><polygon class="c" points="129.75 0 144.18 25 158.61 0 129.75 0"/><polygon class="c" points="158.61 0 173.05 25 187.48 0 158.61 0"/><polygon class="c" points="144.18 25 158.61 0 173.05 25 144.18 25"/><polygon class="a" points="201.91 25 216.35 0 230.78 25 201.91 25"/><polygon class="b" points="187.48 0 201.91 25 216.35 0 187.48 0"/><polygon class="c" points="173.05 25 187.48 50 201.91 25 173.05 25"/><polygon class="c" points="201.91 25 216.35 50 230.78 25 201.91 25"/><polygon class="c" points="187.48 50 201.91 25 216.35 50 187.48 50"/><polygon class="c" points="216.35 0 230.78 25 245.22 0 216.35 0"/><polygon class="c" points="245.22 0 259.65 25 274.08 0 245.22 0"/><polygon class="c" points="230.78 25 245.22 0 259.65 25 230.78 25"/><polygon class="b" points="274.08 0 288.52 25 302.95 0 274.08 0"/><polygon class="c" points="259.65 25 274.08 50 288.52 25 259.65 25"/><polygon class="c" points="274.08 50 288.52 25 302.95 50 274.08 50"/><polygon class="a" points="28.71 75 43.14 50 57.58 75 28.71 75"/><polygon class="b" points="14.28 50 28.71 75 43.14 50 14.28 50"/><polygon class="c" points="-0.16 75 14.28 100 28.71 75 -0.16 75"/><polygon class="c" points="28.71 75 43.14 100 57.58 75 28.71 75"/><polygon class="c" points="14.28 100 28.71 75 43.14 100 14.28 100"/><polygon class="a" points="72.01 50 86.44 25 100.88 50 72.01 50"/><polygon class="b" points="57.58 25 72.01 50 86.44 25 57.58 25"/><polygon class="c" points="43.14 50 57.58 75 72.01 50 43.14 50"/><polygon class="c" points="72.01 50 86.44 75 100.88 50 72.01 50"/><polygon class="c" points="57.58 75 72.01 50 86.44 75 57.58 75"/><polygon class="a" points="72.01 100 86.44 75 100.88 100 72.01 100"/><polygon class="b" points="57.58 75 72.01 100 86.44 75 57.58 75"/><polygon class="c" points="43.14 100 57.58 125 72.01 100 43.14 100"/><polygon class="c" points="72.01 100 86.44 125 100.88 100 72.01 100"/><polygon class="c" points="57.58 125 72.01 100 86.44 125 57.58 125"/><polygon class="a" points="115.31 75 129.75 50 144.18 75 115.31 75"/><polygon class="b" points="100.88 50 115.31 75 129.75 50 100.88 50"/><polygon class="c" points="86.44 75 100.88 100 115.31 75 86.44 75"/><polygon class="c" points="115.31 75 129.75 100 144.18 75 115.31 75"/><polygon class="c" points="100.88 100 115.31 75 129.75 100 100.88 100"/><polygon class="a" points="158.61 50 173.05 25 187.48 50 158.61 50"/><polygon class="b" points="144.18 25 158.61 50 173.05 25 144.18 25"/><polygon class="c" points="129.75 50 144.18 75 158.61 50 129.75 50"/><polygon class="c" points="158.61 50 173.05 75 187.48 50 158.61 50"/><polygon class="c" points="144.18 75 158.61 50 173.05 75 144.18 75"/><polygon class="a" points="158.61 100 173.05 75 187.48 100 158.61 100"/><polygon class="b" points="144.18 75 158.61 100 173.05 75 144.18 75"/><polygon class="c" points="129.75 100 144.18 125 158.61 100 129.75 100"/><polygon class="c" points="158.61 100 173.05 125 187.48 100 158.61 100"/><polygon class="c" points="144.18 125 158.61 100 173.05 125 144.18 125"/><polygon class="a" points="201.91 75 216.35 50 230.78 75 201.91 75"/><polygon class="b" points="187.48 50 201.91 75 216.35 50 187.48 50"/><polygon class="c" points="173.05 75 187.48 100 201.91 75 173.05 75"/><polygon class="c" points="201.91 75 216.35 100 230.78 75 201.91 75"/><polygon class="c" points="187.48 100 201.91 75 216.35 100 187.48 100"/><polygon class="a" points="245.22 50 259.65 25 274.08 50 245.22 50"/><polygon class="b" points="230.78 25 245.22 50 259.65 25 230.78 25"/><polygon class="c" points="216.35 50 230.78 75 245.22 50 216.35 50"/><polygon class="c" points="245.22 50 259.65 75 274.08 50 245.22 50"/><polygon class="c" points="230.78 75 245.22 50 259.65 75 230.78 75"/><polygon class="a" points="245.22 100 259.65 75 274.08 100 245.22 100"/><polygon class="b" points="230.78 75 245.22 100 259.65 75 230.78 75"/><polygon class="c" points="216.35 100 230.78 125 245.22 100 216.35 100"/><polygon class="c" points="245.22 100 259.65 125 274.08 100 245.22 100"/><polygon class="c" points="230.78 125 245.22 100 259.65 125 230.78 125"/><polygon class="b" points="274.08 50 288.52 75 302.95 50 274.08 50"/><polygon class="c" points="259.65 75 274.08 100 288.52 75 259.65 75"/><polygon class="c" points="274.08 100 288.52 75 302.95 100 274.08 100"/><polygon class="a" points="28.71 125 43.14 100 57.58 125 28.71 125"/><polygon class="b" points="14.28 100 28.71 125 43.14 100 14.28 100"/><polygon class="c" points="-0.16 125 14.28 150 28.71 125 -0.16 125"/><polygon class="c" points="28.71 125 43.14 150 57.58 125 28.71 125"/><polygon class="c" points="14.28 150 28.71 125 43.14 150 14.28 150"/><polygon class="a" points="72.01 150 86.44 125 100.88 150 72.01 150"/><polygon class="b" points="57.58 125 72.01 150 86.44 125 57.58 125"/><polygon class="a" points="115.31 125 129.75 100 144.18 125 115.31 125"/><polygon class="b" points="100.88 100 115.31 125 129.75 100 100.88 100"/><polygon class="c" points="86.44 125 100.88 150 115.31 125 86.44 125"/><polygon class="c" points="115.31 125 129.75 150 144.18 125 115.31 125"/><polygon class="c" points="100.88 150 115.31 125 129.75 150 100.88 150"/><polygon class="a" points="158.61 150 173.05 125 187.48 150 158.61 150"/><polygon class="b" points="144.18 125 158.61 150 173.05 125 144.18 125"/><polygon class="a" points="201.91 125 216.35 100 230.78 125 201.91 125"/><polygon class="b" points="187.48 100 201.91 125 216.35 100 187.48 100"/><polygon class="c" points="173.05 125 187.48 150 201.91 125 173.05 125"/><polygon class="c" points="201.91 125 216.35 150 230.78 125 201.91 125"/><polygon class="c" points="187.48 150 201.91 125 216.35 150 187.48 150"/><polygon class="a" points="245.22 150 259.65 125 274.08 150 245.22 150"/><polygon class="b" points="230.78 125 245.22 150 259.65 125 230.78 125"/><polygon class="b" points="274.08 100 288.52 125 302.95 100 274.08 100"/><polygon class="c" points="259.65 125 274.08 150 288.52 125 259.65 125"/><polygon class="c" points="274.08 150 288.52 125 302.95 150 274.08 150"/><polygon class="a" points="288.38 25 302.79 0 317.21 25 288.38 25"/><polygon class="c" points="317.21 25 331.63 0 346.05 25 317.21 25"/><polygon class="c" points="302.79 0 317.21 25 331.63 0 302.79 0"/><polygon class="c" points="288.38 25 302.79 50 317.21 25 288.38 25"/><polygon class="b" points="317.21 25 331.63 50 346.05 25 317.21 25"/><polygon class="c" points="331.63 0 346.05 25 360.47 0 331.63 0"/><polygon class="b" points="360.47 0 374.89 25 389.31 0 360.47 0"/><polygon class="a" points="374.89 25 389.31 0 403.73 25 374.89 25"/><polygon class="c" points="403.73 25 418.14 0 432.56 25 403.73 25"/><polygon class="c" points="389.31 0 403.73 25 418.14 0 389.31 0"/><polygon class="c" points="374.89 25 389.31 50 403.73 25 374.89 25"/><polygon class="b" points="403.73 25 418.14 50 432.56 25 403.73 25"/><polygon class="c" points="418.14 0 432.56 25 446.98 0 418.14 0"/><line class="c" x1="432.56" y1="25" x2="446.98"/><polygon class="a" points="288.38 75 302.79 50 317.21 75 288.38 75"/><polygon class="c" points="317.21 75 331.63 50 346.05 75 317.21 75"/><polygon class="c" points="302.79 50 317.21 75 331.63 50 302.79 50"/><polygon class="c" points="288.38 75 302.79 100 317.21 75 288.38 75"/><polygon class="b" points="317.21 75 331.63 100 346.05 75 317.21 75"/><polygon class="a" points="331.63 50 346.05 25 360.47 50 331.63 50"/><polygon class="c" points="360.47 50 374.89 25 389.31 50 360.47 50"/><polygon class="c" points="346.05 25 360.47 50 374.89 25 346.05 25"/><polygon class="c" points="331.63 50 346.05 75 360.47 50 331.63 50"/><polygon class="b" points="360.47 50 374.89 75 389.31 50 360.47 50"/><polygon class="a" points="331.63 100 346.05 75 360.47 100 331.63 100"/><polygon class="c" points="360.47 100 374.89 75 389.31 100 360.47 100"/><polygon class="c" points="346.05 75 360.47 100 374.89 75 346.05 75"/><polygon class="c" points="331.63 100 346.05 125 360.47 100 331.63 100"/><polygon class="b" points="360.47 100 374.89 125 389.31 100 360.47 100"/><polygon class="a" points="374.89 75 389.31 50 403.73 75 374.89 75"/><polygon class="c" points="403.73 75 418.14 50 432.56 75 403.73 75"/><polygon class="c" points="389.31 50 403.73 75 418.14 50 389.31 50"/><polygon class="c" points="374.89 75 389.31 100 403.73 75 374.89 75"/><polygon class="b" points="403.73 75 418.14 100 432.56 75 403.73 75"/><polygon class="a" points="418.14 50 432.56 25 446.98 50 418.14 50"/><line class="c" x1="432.56" y1="25" x2="446.98" y2="50"/><polygon class="c" points="418.14 50 432.56 75 446.98 50 418.14 50"/><line class="c" x1="432.56" y1="75" x2="446.98" y2="50"/><polygon class="a" points="418.14 100 432.56 75 446.98 100 418.14 100"/><line class="c" x1="432.56" y1="75" x2="446.98" y2="100"/><polygon class="c" points="418.14 100 432.56 125 446.98 100 418.14 100"/><line class="c" x1="432.56" y1="125" x2="446.98" y2="100"/><polygon class="a" points="288.38 125 302.79 100 317.21 125 288.38 125"/><polygon class="c" points="317.21 125 331.63 100 346.05 125 317.21 125"/><polygon class="c" points="302.79 100 317.21 125 331.63 100 302.79 100"/><polygon class="c" points="288.38 125 302.79 150 317.21 125 288.38 125"/><polygon class="b" points="317.21 125 331.63 150 346.05 125 317.21 125"/><polygon class="a" points="331.63 150 346.05 125 360.47 150 331.63 150"/><polygon class="c" points="360.47 150 374.89 125 389.31 150 360.47 150"/><polygon class="c" points="346.05 125 360.47 150 374.89 125 346.05 125"/><polygon class="a" points="374.89 125 389.31 100 403.73 125 374.89 125"/><polygon class="c" points="403.73 125 418.14 100 432.56 125 403.73 125"/><polygon class="c" points="389.31 100 403.73 125 418.14 100 389.31 100"/><polygon class="c" points="374.89 125 389.31 150 403.73 125 374.89 125"/><polygon class="b" points="403.73 125 418.14 150 432.56 125 403.73 125"/><polygon class="a" points="418.14 150 432.56 125 446.98 150 418.14 150"/><line class="c" x1="432.56" y1="125" x2="446.98" y2="150"/><polygon class="a" points="461.43 25 475.86 0 490.3 25 461.43 25"/><polygon class="b" points="447 0 461.43 25 475.86 0 447 0"/><polygon class="c" points="432.56 25 447 50 461.43 25 432.56 25"/><polygon class="c" points="461.43 25 475.86 50 490.3 25 461.43 25"/><polygon class="c" points="447 50 461.43 25 475.86 50 447 50"/><polygon class="c" points="475.86 0 490.3 25 504.73 0 475.86 0"/><polygon class="c" points="504.73 0 519.17 25 533.6 0 504.73 0"/><polygon class="c" points="490.3 25 504.73 0 519.17 25 490.3 25"/><polygon class="a" points="548.03 25 562.47 0 576.9 25 548.03 25"/><polygon class="b" points="533.6 0 548.03 25 562.47 0 533.6 0"/><polygon class="c" points="519.17 25 533.6 50 548.03 25 519.17 25"/><polygon class="c" points="548.03 25 562.47 50 576.9 25 548.03 25"/><polygon class="c" points="533.6 50 548.03 25 562.47 50 533.6 50"/><polygon class="c" points="562.47 0 576.9 25 591.33 0 562.47 0"/><polygon class="c" points="591.33 0 605.77 25 620.2 0 591.33 0"/><polygon class="c" points="576.9 25 591.33 0 605.77 25 576.9 25"/><polygon class="b" points="620.2 0 634.64 25 649.07 0 620.2 0"/><polygon class="c" points="605.77 25 620.2 50 634.64 25 605.77 25"/><polygon class="c" points="620.2 50 634.64 25 649.07 50 620.2 50"/><polygon class="a" points="461.43 75 475.86 50 490.3 75 461.43 75"/><polygon class="b" points="447 50 461.43 75 475.86 50 447 50"/><polygon class="c" points="432.56 75 447 100 461.43 75 432.56 75"/><polygon class="c" points="461.43 75 475.86 100 490.3 75 461.43 75"/><polygon class="c" points="447 100 461.43 75 475.86 100 447 100"/><polygon class="a" points="504.73 50 519.17 25 533.6 50 504.73 50"/><polygon class="b" points="490.3 25 504.73 50 519.17 25 490.3 25"/><polygon class="c" points="475.86 50 490.3 75 504.73 50 475.86 50"/><polygon class="c" points="504.73 50 519.17 75 533.6 50 504.73 50"/><polygon class="c" points="490.3 75 504.73 50 519.17 75 490.3 75"/><polygon class="a" points="504.73 100 519.17 75 533.6 100 504.73 100"/><polygon class="b" points="490.3 75 504.73 100 519.17 75 490.3 75"/><polygon class="c" points="475.86 100 490.3 125 504.73 100 475.86 100"/><polygon class="c" points="504.73 100 519.17 125 533.6 100 504.73 100"/><polygon class="c" points="490.3 125 504.73 100 519.17 125 490.3 125"/><polygon class="a" points="548.03 75 562.47 50 576.9 75 548.03 75"/><polygon class="b" points="533.6 50 548.03 75 562.47 50 533.6 50"/><polygon class="c" points="519.17 75 533.6 100 548.03 75 519.17 75"/><polygon class="c" points="548.03 75 562.47 100 576.9 75 548.03 75"/><polygon class="c" points="533.6 100 548.03 75 562.47 100 533.6 100"/><polygon class="a" points="591.33 50 605.77 25 620.2 50 591.33 50"/><polygon class="b" points="576.9 25 591.33 50 605.77 25 576.9 25"/><polygon class="c" points="562.47 50 576.9 75 591.33 50 562.47 50"/><polygon class="c" points="591.33 50 605.77 75 620.2 50 591.33 50"/><polygon class="c" points="576.9 75 591.33 50 605.77 75 576.9 75"/><polygon class="a" points="591.33 100 605.77 75 620.2 100 591.33 100"/><polygon class="b" points="576.9 75 591.33 100 605.77 75 576.9 75"/><polygon class="c" points="562.47 100 576.9 125 591.33 100 562.47 100"/><polygon class="c" points="591.33 100 605.77 125 620.2 100 591.33 100"/><polygon class="c" points="576.9 125 591.33 100 605.77 125 576.9 125"/><polygon class="b" points="620.2 50 634.64 75 649.07 50 620.2 50"/><polygon class="c" points="605.77 75 620.2 100 634.64 75 605.77 75"/><polygon class="c" points="620.2 100 634.64 75 649.07 100 620.2 100"/><polygon class="a" points="461.43 125 475.86 100 490.3 125 461.43 125"/><polygon class="b" points="447 100 461.43 125 475.86 100 447 100"/><polygon class="c" points="432.56 125 447 150 461.43 125 432.56 125"/><polygon class="c" points="461.43 125 475.86 150 490.3 125 461.43 125"/><polygon class="c" points="447 150 461.43 125 475.86 150 447 150"/><polygon class="a" points="504.73 150 519.17 125 533.6 150 504.73 150"/><polygon class="b" points="490.3 125 504.73 150 519.17 125 490.3 125"/><polygon class="a" points="548.03 125 562.47 100 576.9 125 548.03 125"/><polygon class="b" points="533.6 100 548.03 125 562.47 100 533.6 100"/><polygon class="c" points="519.17 125 533.6 150 548.03 125 519.17 125"/><polygon class="c" points="548.03 125 562.47 150 576.9 125 548.03 125"/><polygon class="c" points="533.6 150 548.03 125 562.47 150 533.6 150"/><polygon class="a" points="591.33 150 605.77 125 620.2 150 591.33 150"/><polygon class="b" points="576.9 125 591.33 150 605.77 125 576.9 125"/><polygon class="b" points="620.2 100 634.64 125 649.07 100 620.2 100"/><polygon class="c" points="605.77 125 620.2 150 634.64 125 605.77 125"/><polygon class="c" points="620.2 150 634.64 125 649.07 150 620.2 150"/><polygon class="a" points="634.49 25 648.91 0 663.33 25 634.49 25"/><polygon class="c" points="663.33 25 677.75 0 692.17 25 663.33 25"/><polygon class="c" points="648.91 0 663.33 25 677.75 0 648.91 0"/><polygon class="c" points="634.49 25 648.91 50 663.33 25 634.49 25"/><polygon class="b" points="663.33 25 677.75 50 692.17 25 663.33 25"/><polygon class="c" points="677.75 0 692.17 25 706.59 0 677.75 0"/><polygon class="b" points="706.59 0 721.01 25 735.42 0 706.59 0"/><polygon class="a" points="721.01 25 735.42 0 749.84 25 721.01 25"/><polygon class="c" points="721.01 25 735.42 50 749.84 25 721.01 25"/><polygon class="a" points="634.49 75 648.91 50 663.33 75 634.49 75"/><polygon class="c" points="663.33 75 677.75 50 692.17 75 663.33 75"/><polygon class="c" points="648.91 50 663.33 75 677.75 50 648.91 50"/><polygon class="c" points="634.49 75 648.91 100 663.33 75 634.49 75"/><polygon class="b" points="663.33 75 677.75 100 692.17 75 663.33 75"/><polygon class="a" points="677.75 50 692.17 25 706.59 50 677.75 50"/><polygon class="c" points="706.59 50 721.01 25 735.42 50 706.59 50"/><polygon class="c" points="692.17 25 706.59 50 721.01 25 692.17 25"/><polygon class="c" points="677.75 50 692.17 75 706.59 50 677.75 50"/><polygon class="b" points="706.59 50 721.01 75 735.42 50 706.59 50"/><polygon class="a" points="677.75 100 692.17 75 706.59 100 677.75 100"/><polygon class="c" points="706.59 100 721.01 75 735.42 100 706.59 100"/><polygon class="c" points="692.17 75 706.59 100 721.01 75 692.17 75"/><polygon class="c" points="677.75 100 692.17 125 706.59 100 677.75 100"/><polygon class="b" points="706.59 100 721.01 125 735.42 100 706.59 100"/><polygon class="a" points="721.01 75 735.42 50 749.84 75 721.01 75"/><polygon class="c" points="721.01 75 735.42 100 749.84 75 721.01 75"/><polygon class="a" points="634.49 125 648.91 100 663.33 125 634.49 125"/><polygon class="c" points="663.33 125 677.75 100 692.17 125 663.33 125"/><polygon class="c" points="648.91 100 663.33 125 677.75 100 648.91 100"/><polygon class="c" points="634.49 125 648.91 150 663.33 125 634.49 125"/><polygon class="b" points="663.33 125 677.75 150 692.17 125 663.33 125"/><polygon class="a" points="677.75 150 692.17 125 706.59 150 677.75 150"/><polygon class="c" points="706.59 150 721.01 125 735.42 150 706.59 150"/><polygon class="c" points="692.17 125 706.59 150 721.01 125 692.17 125"/><polygon class="a" points="721.01 125 735.42 100 749.84 125 721.01 125"/><polygon class="c" points="721.01 125 735.42 150 749.84 125 721.01 125"/><polygon class="c" points="735.42 0 749.86 25 764.29 0 735.42 0"/><polygon class="c" points="764.29 0 778.73 25 793.16 0 764.29 0"/><polygon class="c" points="749.86 25 764.29 0 778.73 25 749.86 25"/><polygon class="a" points="807.59 25 822.03 0 836.46 25 807.59 25"/><polygon class="b" points="793.16 0 807.59 25 822.03 0 793.16 0"/><polygon class="c" points="778.73 25 793.16 50 807.59 25 778.73 25"/><polygon class="c" points="807.59 25 822.03 50 836.46 25 807.59 25"/><polygon class="c" points="793.16 50 807.59 25 822.03 50 793.16 50"/><polygon class="c" points="822.03 0 836.46 25 850.89 0 822.03 0"/><polygon class="c" points="850.89 0 865.33 25 879.76 0 850.89 0"/><polygon class="c" points="836.46 25 850.89 0 865.33 25 836.46 25"/><polygon class="a" points="894.2 25 908.63 0 923.06 25 894.2 25"/><polygon class="b" points="879.76 0 894.2 25 908.63 0 879.76 0"/><polygon class="c" points="865.33 25 879.76 50 894.2 25 865.33 25"/><polygon class="c" points="894.2 25 908.63 50 923.06 25 894.2 25"/><polygon class="c" points="879.76 50 894.2 25 908.63 50 879.76 50"/><polygon class="c" points="908.63 0 923.06 25 937.5 0 908.63 0"/><polygon class="c" points="937.5 0 951.93 25 966.36 0 937.5 0"/><polygon class="c" points="923.06 25 937.5 0 951.93 25 923.06 25"/><polygon class="b" points="966.36 0 980.8 25 995.23 0 966.36 0"/><polygon class="c" points="951.93 25 966.36 50 980.8 25 951.93 25"/><polygon class="c" points="966.36 50 980.8 25 995.23 50 966.36 50"/><polygon class="a" points="764.29 50 778.73 25 793.16 50 764.29 50"/><polygon class="b" points="749.86 25 764.29 50 778.73 25 749.86 25"/><polygon class="c" points="735.42 50 749.86 75 764.29 50 735.42 50"/><polygon class="c" points="764.29 50 778.73 75 793.16 50 764.29 50"/><polygon class="c" points="749.86 75 764.29 50 778.73 75 749.86 75"/><polygon class="a" points="764.29 100 778.73 75 793.16 100 764.29 100"/><polygon class="b" points="749.86 75 764.29 100 778.73 75 749.86 75"/><polygon class="c" points="735.42 100 749.86 125 764.29 100 735.42 100"/><polygon class="c" points="764.29 100 778.73 125 793.16 100 764.29 100"/><polygon class="c" points="749.86 125 764.29 100 778.73 125 749.86 125"/><polygon class="a" points="807.59 75 822.03 50 836.46 75 807.59 75"/><polygon class="b" points="793.16 50 807.59 75 822.03 50 793.16 50"/><polygon class="c" points="778.73 75 793.16 100 807.59 75 778.73 75"/><polygon class="c" points="807.59 75 822.03 100 836.46 75 807.59 75"/><polygon class="c" points="793.16 100 807.59 75 822.03 100 793.16 100"/><polygon class="a" points="850.89 50 865.33 25 879.76 50 850.89 50"/><polygon class="b" points="836.46 25 850.89 50 865.33 25 836.46 25"/><polygon class="c" points="822.03 50 836.46 75 850.89 50 822.03 50"/><polygon class="c" points="850.89 50 865.33 75 879.76 50 850.89 50"/><polygon class="c" points="836.46 75 850.89 50 865.33 75 836.46 75"/><polygon class="a" points="850.89 100 865.33 75 879.76 100 850.89 100"/><polygon class="b" points="836.46 75 850.89 100 865.33 75 836.46 75"/><polygon class="c" points="822.03 100 836.46 125 850.89 100 822.03 100"/><polygon class="c" points="850.89 100 865.33 125 879.76 100 850.89 100"/><polygon class="c" points="836.46 125 850.89 100 865.33 125 836.46 125"/><polygon class="a" points="894.2 75 908.63 50 923.06 75 894.2 75"/><polygon class="b" points="879.76 50 894.2 75 908.63 50 879.76 50"/><polygon class="c" points="865.33 75 879.76 100 894.2 75 865.33 75"/><polygon class="c" points="894.2 75 908.63 100 923.06 75 894.2 75"/><polygon class="c" points="879.76 100 894.2 75 908.63 100 879.76 100"/><polygon class="a" points="937.5 50 951.93 25 966.36 50 937.5 50"/><polygon class="b" points="923.06 25 937.5 50 951.93 25 923.06 25"/><polygon class="c" points="908.63 50 923.06 75 937.5 50 908.63 50"/><polygon class="c" points="937.5 50 951.93 75 966.36 50 937.5 50"/><polygon class="c" points="923.06 75 937.5 50 951.93 75 923.06 75"/><polygon class="a" points="937.5 100 951.93 75 966.36 100 937.5 100"/><polygon class="b" points="923.06 75 937.5 100 951.93 75 923.06 75"/><polygon class="c" points="908.63 100 923.06 125 937.5 100 908.63 100"/><polygon class="c" points="937.5 100 951.93 125 966.36 100 937.5 100"/><polygon class="c" points="923.06 125 937.5 100 951.93 125 923.06 125"/><polygon class="b" points="966.36 50 980.8 75 995.23 50 966.36 50"/><polygon class="c" points="951.93 75 966.36 100 980.8 75 951.93 75"/><polygon class="c" points="966.36 100 980.8 75 995.23 100 966.36 100"/><polygon class="a" points="764.29 150 778.73 125 793.16 150 764.29 150"/><polygon class="b" points="749.86 125 764.29 150 778.73 125 749.86 125"/><polygon class="a" points="807.59 125 822.03 100 836.46 125 807.59 125"/><polygon class="b" points="793.16 100 807.59 125 822.03 100 793.16 100"/><polygon class="c" points="778.73 125 793.16 150 807.59 125 778.73 125"/><polygon class="c" points="807.59 125 822.03 150 836.46 125 807.59 125"/><polygon class="c" points="793.16 150 807.59 125 822.03 150 793.16 150"/><polygon class="a" points="850.89 150 865.33 125 879.76 150 850.89 150"/><polygon class="b" points="836.46 125 850.89 150 865.33 125 836.46 125"/><polygon class="a" points="894.2 125 908.63 100 923.06 125 894.2 125"/><polygon class="b" points="879.76 100 894.2 125 908.63 100 879.76 100"/><polygon class="c" points="865.33 125 879.76 150 894.2 125 865.33 125"/><polygon class="c" points="894.2 125 908.63 150 923.06 125 894.2 125"/><polygon class="c" points="879.76 150 894.2 125 908.63 150 879.76 150"/><polygon class="a" points="937.5 150 951.93 125 966.36 150 937.5 150"/><polygon class="b" points="923.06 125 937.5 150 951.93 125 923.06 125"/><polygon class="b" points="966.36 100 980.8 125 995.23 100 966.36 100"/><polygon class="c" points="951.93 125 966.36 150 980.8 125 951.93 125"/><polygon class="c" points="966.36 150 980.8 125 995.23 150 966.36 150"/><polygon class="a" points="980.65 25 995.07 0 1009.49 25 980.65 25"/><polygon class="c" points="1009.49 25 1023.91 0 1038.33 25 1009.49 25"/><polygon class="c" points="995.07 0 1009.49 25 1023.91 0 995.07 0"/><polygon class="c" points="980.65 25 995.07 50 1009.49 25 980.65 25"/><polygon class="b" points="1009.49 25 1023.91 50 1038.33 25 1009.49 25"/><polygon class="c" points="1023.91 0 1038.33 25 1052.75 0 1023.91 0"/><polygon class="b" points="1052.75 0 1067.17 25 1081.59 0 1052.75 0"/><polygon class="a" points="1067.17 25 1081.59 0 1096.01 25 1067.17 25"/><polygon class="c" points="1096.01 25 1110.42 0 1124.84 25 1096.01 25"/><polygon class="c" points="1081.59 0 1096.01 25 1110.42 0 1081.59 0"/><polygon class="c" points="1067.17 25 1081.59 50 1096.01 25 1067.17 25"/><polygon class="b" points="1096.01 25 1110.42 50 1124.84 25 1096.01 25"/><polygon class="c" points="1110.42 0 1124.84 25 1139.26 0 1110.42 0"/><line class="c" x1="1124.84" y1="25" x2="1139.26"/><polygon class="a" points="980.65 75 995.07 50 1009.49 75 980.65 75"/><polygon class="c" points="1009.49 75 1023.91 50 1038.33 75 1009.49 75"/><polygon class="c" points="995.07 50 1009.49 75 1023.91 50 995.07 50"/><polygon class="c" points="980.65 75 995.07 100 1009.49 75 980.65 75"/><polygon class="b" points="1009.49 75 1023.91 100 1038.33 75 1009.49 75"/><polygon class="a" points="1023.91 50 1038.33 25 1052.75 50 1023.91 50"/><polygon class="c" points="1052.75 50 1067.17 25 1081.59 50 1052.75 50"/><polygon class="c" points="1038.33 25 1052.75 50 1067.17 25 1038.33 25"/><polygon class="c" points="1023.91 50 1038.33 75 1052.75 50 1023.91 50"/><polygon class="b" points="1052.75 50 1067.17 75 1081.59 50 1052.75 50"/><polygon class="a" points="1023.91 100 1038.33 75 1052.75 100 1023.91 100"/><polygon class="c" points="1052.75 100 1067.17 75 1081.59 100 1052.75 100"/><polygon class="c" points="1038.33 75 1052.75 100 1067.17 75 1038.33 75"/><polygon class="c" points="1023.91 100 1038.33 125 1052.75 100 1023.91 100"/><polygon class="b" points="1052.75 100 1067.17 125 1081.59 100 1052.75 100"/><polygon class="a" points="1067.17 75 1081.59 50 1096.01 75 1067.17 75"/><polygon class="c" points="1096.01 75 1110.42 50 1124.84 75 1096.01 75"/><polygon class="c" points="1081.59 50 1096.01 75 1110.42 50 1081.59 50"/><polygon class="c" points="1067.17 75 1081.59 100 1096.01 75 1067.17 75"/><polygon class="b" points="1096.01 75 1110.42 100 1124.84 75 1096.01 75"/><polygon class="a" points="1110.42 50 1124.84 25 1139.26 50 1110.42 50"/><line class="c" x1="1124.84" y1="25" x2="1139.26" y2="50"/><polygon class="c" points="1110.42 50 1124.84 75 1139.26 50 1110.42 50"/><line class="c" x1="1124.84" y1="75" x2="1139.26" y2="50"/><polygon class="a" points="1110.42 100 1124.84 75 1139.26 100 1110.42 100"/><line class="c" x1="1124.84" y1="75" x2="1139.26" y2="100"/><polygon class="c" points="1110.42 100 1124.84 125 1139.26 100 1110.42 100"/><line class="c" x1="1124.84" y1="125" x2="1139.26" y2="100"/><polygon class="a" points="980.65 125 995.07 100 1009.49 125 980.65 125"/><polygon class="c" points="1009.49 125 1023.91 100 1038.33 125 1009.49 125"/><polygon class="c" points="995.07 100 1009.49 125 1023.91 100 995.07 100"/><polygon class="c" points="980.65 125 995.07 150 1009.49 125 980.65 125"/><polygon class="b" points="1009.49 125 1023.91 150 1038.33 125 1009.49 125"/><polygon class="a" points="1023.91 150 1038.33 125 1052.75 150 1023.91 150"/><polygon class="c" points="1052.75 150 1067.17 125 1081.59 150 1052.75 150"/><polygon class="c" points="1038.33 125 1052.75 150 1067.17 125 1038.33 125"/><polygon class="a" points="1067.17 125 1081.59 100 1096.01 125 1067.17 125"/><polygon class="c" points="1096.01 125 1110.42 100 1124.84 125 1096.01 125"/><polygon class="c" points="1081.59 100 1096.01 125 1110.42 100 1081.59 100"/><polygon class="c" points="1067.17 125 1081.59 150 1096.01 125 1067.17 125"/><polygon class="b" points="1096.01 125 1110.42 150 1124.84 125 1096.01 125"/><polygon class="a" points="1110.42 150 1124.84 125 1139.26 150 1110.42 150"/><line class="c" x1="1124.84" y1="125" x2="1139.26" y2="150"/><polygon class="a" points="1153.71 25 1168.14 0 1182.58 25 1153.71 25"/><polygon class="b" points="1139.28 0 1153.71 25 1168.14 0 1139.28 0"/><polygon class="c" points="1124.84 25 1139.28 50 1153.71 25 1124.84 25"/><polygon class="c" points="1153.71 25 1168.14 50 1182.58 25 1153.71 25"/><polygon class="c" points="1139.28 50 1153.71 25 1168.14 50 1139.28 50"/><polygon class="c" points="1168.14 0 1182.58 25 1197.01 0 1168.14 0"/><polygon class="c" points="1197.01 0 1211.45 25 1225.88 0 1197.01 0"/><polygon class="c" points="1182.58 25 1197.01 0 1211.45 25 1182.58 25"/><polygon class="a" points="1240.31 25 1254.75 0 1269.18 25 1240.31 25"/><polygon class="b" points="1225.88 0 1240.31 25 1254.75 0 1225.88 0"/><polygon class="c" points="1211.45 25 1225.88 50 1240.31 25 1211.45 25"/><polygon class="c" points="1240.31 25 1254.75 50 1269.18 25 1240.31 25"/><polygon class="c" points="1225.88 50 1240.31 25 1254.75 50 1225.88 50"/><polygon class="c" points="1254.75 0 1269.18 25 1283.61 0 1254.75 0"/><polygon class="c" points="1283.61 0 1298.05 25 1312.48 0 1283.61 0"/><polygon class="c" points="1269.18 25 1283.61 0 1298.05 25 1269.18 25"/><polygon class="b" points="1312.48 0 1326.92 25 1341.35 0 1312.48 0"/><polygon class="c" points="1298.05 25 1312.48 50 1326.92 25 1298.05 25"/><polygon class="c" points="1312.48 50 1326.92 25 1341.35 50 1312.48 50"/><polygon class="a" points="1153.71 75 1168.14 50 1182.58 75 1153.71 75"/><polygon class="b" points="1139.28 50 1153.71 75 1168.14 50 1139.28 50"/><polygon class="c" points="1124.84 75 1139.28 100 1153.71 75 1124.84 75"/><polygon class="c" points="1153.71 75 1168.14 100 1182.58 75 1153.71 75"/><polygon class="c" points="1139.28 100 1153.71 75 1168.14 100 1139.28 100"/><polygon class="a" points="1197.01 50 1211.45 25 1225.88 50 1197.01 50"/><polygon class="b" points="1182.58 25 1197.01 50 1211.45 25 1182.58 25"/><polygon class="c" points="1168.14 50 1182.58 75 1197.01 50 1168.14 50"/><polygon class="c" points="1197.01 50 1211.45 75 1225.88 50 1197.01 50"/><polygon class="c" points="1182.58 75 1197.01 50 1211.45 75 1182.58 75"/><polygon class="a" points="1197.01 100 1211.45 75 1225.88 100 1197.01 100"/><polygon class="b" points="1182.58 75 1197.01 100 1211.45 75 1182.58 75"/><polygon class="c" points="1168.14 100 1182.58 125 1197.01 100 1168.14 100"/><polygon class="c" points="1197.01 100 1211.45 125 1225.88 100 1197.01 100"/><polygon class="c" points="1182.58 125 1197.01 100 1211.45 125 1182.58 125"/><polygon class="a" points="1240.31 75 1254.75 50 1269.18 75 1240.31 75"/><polygon class="b" points="1225.88 50 1240.31 75 1254.75 50 1225.88 50"/><polygon class="c" points="1211.45 75 1225.88 100 1240.31 75 1211.45 75"/><polygon class="c" points="1240.31 75 1254.75 100 1269.18 75 1240.31 75"/><polygon class="c" points="1225.88 100 1240.31 75 1254.75 100 1225.88 100"/><polygon class="a" points="1283.61 50 1298.05 25 1312.48 50 1283.61 50"/><polygon class="b" points="1269.18 25 1283.61 50 1298.05 25 1269.18 25"/><polygon class="c" points="1254.75 50 1269.18 75 1283.61 50 1254.75 50"/><polygon class="c" points="1283.61 50 1298.05 75 1312.48 50 1283.61 50"/><polygon class="c" points="1269.18 75 1283.61 50 1298.05 75 1269.18 75"/><polygon class="a" points="1283.61 100 1298.05 75 1312.48 100 1283.61 100"/><polygon class="b" points="1269.18 75 1283.61 100 1298.05 75 1269.18 75"/><polygon class="c" points="1254.75 100 1269.18 125 1283.61 100 1254.75 100"/><polygon class="c" points="1283.61 100 1298.05 125 1312.48 100 1283.61 100"/><polygon class="c" points="1269.18 125 1283.61 100 1298.05 125 1269.18 125"/><polygon class="b" points="1312.48 50 1326.92 75 1341.35 50 1312.48 50"/><polygon class="c" points="1298.05 75 1312.48 100 1326.92 75 1298.05 75"/><polygon class="c" points="1312.48 100 1326.92 75 1341.35 100 1312.48 100"/><polygon class="a" points="1153.71 125 1168.14 100 1182.58 125 1153.71 125"/><polygon class="b" points="1139.28 100 1153.71 125 1168.14 100 1139.28 100"/><polygon class="c" points="1124.84 125 1139.28 150 1153.71 125 1124.84 125"/><polygon class="c" points="1153.71 125 1168.14 150 1182.58 125 1153.71 125"/><polygon class="c" points="1139.28 150 1153.71 125 1168.14 150 1139.28 150"/><polygon class="a" points="1197.01 150 1211.45 125 1225.88 150 1197.01 150"/><polygon class="b" points="1182.58 125 1197.01 150 1211.45 125 1182.58 125"/><polygon class="a" points="1240.31 125 1254.75 100 1269.18 125 1240.31 125"/><polygon class="b" points="1225.88 100 1240.31 125 1254.75 100 1225.88 100"/><polygon class="c" points="1211.45 125 1225.88 150 1240.31 125 1211.45 125"/><polygon class="c" points="1240.31 125 1254.75 150 1269.18 125 1240.31 125"/><polygon class="c" points="1225.88 150 1240.31 125 1254.75 150 1225.88 150"/><polygon class="a" points="1283.61 150 1298.05 125 1312.48 150 1283.61 150"/><polygon class="b" points="1269.18 125 1283.61 150 1298.05 125 1269.18 125"/><polygon class="b" points="1312.48 100 1326.92 125 1341.35 100 1312.48 100"/><polygon class="c" points="1298.05 125 1312.48 150 1326.92 125 1298.05 125"/><polygon class="c" points="1312.48 150 1326.92 125 1341.35 150 1312.48 150"/><polygon class="a" points="1326.77 25 1341.19 0 1355.61 25 1326.77 25"/><polygon class="c" points="1355.61 25 1370.03 0 1384.45 25 1355.61 25"/><polygon class="c" points="1341.19 0 1355.61 25 1370.03 0 1341.19 0"/><polygon class="c" points="1326.77 25 1341.19 50 1355.61 25 1326.77 25"/><polygon class="b" points="1355.61 25 1370.03 50 1384.45 25 1355.61 25"/><polygon class="c" points="1370.03 0 1384.45 25 1398.87 0 1370.03 0"/><polygon class="b" points="1398.87 0 1413.29 25 1427.7 0 1398.87 0"/><polygon class="a" points="1413.29 25 1427.7 0 1442.12 25 1413.29 25"/><polygon class="c" points="1413.29 25 1427.7 50 1442.12 25 1413.29 25"/><polygon class="a" points="1326.77 75 1341.19 50 1355.61 75 1326.77 75"/><polygon class="c" points="1355.61 75 1370.03 50 1384.45 75 1355.61 75"/><polygon class="c" points="1341.19 50 1355.61 75 1370.03 50 1341.19 50"/><polygon class="c" points="1326.77 75 1341.19 100 1355.61 75 1326.77 75"/><polygon class="b" points="1355.61 75 1370.03 100 1384.45 75 1355.61 75"/><polygon class="a" points="1370.03 50 1384.45 25 1398.87 50 1370.03 50"/><polygon class="c" points="1398.87 50 1413.29 25 1427.7 50 1398.87 50"/><polygon class="c" points="1384.45 25 1398.87 50 1413.29 25 1384.45 25"/><polygon class="c" points="1370.03 50 1384.45 75 1398.87 50 1370.03 50"/><polygon class="b" points="1398.87 50 1413.29 75 1427.7 50 1398.87 50"/><polygon class="a" points="1370.03 100 1384.45 75 1398.87 100 1370.03 100"/><polygon class="c" points="1398.87 100 1413.29 75 1427.7 100 1398.87 100"/><polygon class="c" points="1384.45 75 1398.87 100 1413.29 75 1384.45 75"/><polygon class="c" points="1370.03 100 1384.45 125 1398.87 100 1370.03 100"/><polygon class="b" points="1398.87 100 1413.29 125 1427.7 100 1398.87 100"/><polygon class="a" points="1413.29 75 1427.7 50 1442.12 75 1413.29 75"/><polygon class="c" points="1413.29 75 1427.7 100 1442.12 75 1413.29 75"/><polygon class="a" points="1326.77 125 1341.19 100 1355.61 125 1326.77 125"/><polygon class="c" points="1355.61 125 1370.03 100 1384.45 125 1355.61 125"/><polygon class="c" points="1341.19 100 1355.61 125 1370.03 100 1341.19 100"/><polygon class="c" points="1326.77 125 1341.19 150 1355.61 125 1326.77 125"/><polygon class="b" points="1355.61 125 1370.03 150 1384.45 125 1355.61 125"/><polygon class="a" points="1370.03 150 1384.45 125 1398.87 150 1370.03 150"/><polygon class="c" points="1398.87 150 1413.29 125 1427.7 150 1398.87 150"/><polygon class="c" points="1384.45 125 1398.87 150 1413.29 125 1384.45 125"/><polygon class="a" points="1413.29 125 1427.7 100 1442.12 125 1413.29 125"/><polygon class="c" points="1413.29 125 1427.7 150 1442.12 125 1413.29 125"/><polygon class="c" points="1427.7 0 1442.14 25 1456.57 0 1427.7 0"/><polygon class="c" points="1456.57 0 1471.01 25 1485.44 0 1456.57 0"/><polygon class="c" points="1442.14 25 1456.57 0 1471.01 25 1442.14 25"/><polygon class="a" points="1499.87 25 1514.31 0 1528.74 25 1499.87 25"/><polygon class="b" points="1485.44 0 1499.87 25 1514.31 0 1485.44 0"/><polygon class="c" points="1471.01 25 1485.44 50 1499.87 25 1471.01 25"/><polygon class="c" points="1499.87 25 1514.31 50 1528.74 25 1499.87 25"/><polygon class="c" points="1485.44 50 1499.87 25 1514.31 50 1485.44 50"/><polygon class="c" points="1514.31 0 1528.74 25 1543.17 0 1514.31 0"/><polygon class="c" points="1543.17 0 1557.61 25 1572.04 0 1543.17 0"/><polygon class="c" points="1528.74 25 1543.17 0 1557.61 25 1528.74 25"/><polygon class="a" points="1586.48 25 1600.91 0 1615.34 25 1586.48 25"/><polygon class="b" points="1572.04 0 1586.48 25 1600.91 0 1572.04 0"/><polygon class="c" points="1557.61 25 1572.04 50 1586.48 25 1557.61 25"/><polygon class="c" points="1586.48 25 1600.91 50 1615.34 25 1586.48 25"/><polygon class="c" points="1572.04 50 1586.48 25 1600.91 50 1572.04 50"/><polygon class="c" points="1600.91 0 1615.34 25 1629.78 0 1600.91 0"/><polygon class="c" points="1629.78 0 1644.21 25 1658.64 0 1629.78 0"/><polygon class="c" points="1615.34 25 1629.78 0 1644.21 25 1615.34 25"/><polygon class="b" points="1658.64 0 1673.08 25 1687.51 0 1658.64 0"/><polygon class="c" points="1644.21 25 1658.64 50 1673.08 25 1644.21 25"/><polygon class="c" points="1658.64 50 1673.08 25 1687.51 50 1658.64 50"/><polygon class="a" points="1456.57 50 1471.01 25 1485.44 50 1456.57 50"/><polygon class="b" points="1442.14 25 1456.57 50 1471.01 25 1442.14 25"/><polygon class="c" points="1427.7 50 1442.14 75 1456.57 50 1427.7 50"/><polygon class="c" points="1456.57 50 1471.01 75 1485.44 50 1456.57 50"/><polygon class="c" points="1442.14 75 1456.57 50 1471.01 75 1442.14 75"/><polygon class="a" points="1456.57 100 1471.01 75 1485.44 100 1456.57 100"/><polygon class="b" points="1442.14 75 1456.57 100 1471.01 75 1442.14 75"/><polygon class="c" points="1427.7 100 1442.14 125 1456.57 100 1427.7 100"/><polygon class="c" points="1456.57 100 1471.01 125 1485.44 100 1456.57 100"/><polygon class="c" points="1442.14 125 1456.57 100 1471.01 125 1442.14 125"/><polygon class="a" points="1499.87 75 1514.31 50 1528.74 75 1499.87 75"/><polygon class="b" points="1485.44 50 1499.87 75 1514.31 50 1485.44 50"/><polygon class="c" points="1471.01 75 1485.44 100 1499.87 75 1471.01 75"/><polygon class="c" points="1499.87 75 1514.31 100 1528.74 75 1499.87 75"/><polygon class="c" points="1485.44 100 1499.87 75 1514.31 100 1485.44 100"/><polygon class="a" points="1543.17 50 1557.61 25 1572.04 50 1543.17 50"/><polygon class="b" points="1528.74 25 1543.17 50 1557.61 25 1528.74 25"/><polygon class="c" points="1514.31 50 1528.74 75 1543.17 50 1514.31 50"/><polygon class="c" points="1543.17 50 1557.61 75 1572.04 50 1543.17 50"/><polygon class="c" points="1528.74 75 1543.17 50 1557.61 75 1528.74 75"/><polygon class="a" points="1543.17 100 1557.61 75 1572.04 100 1543.17 100"/><polygon class="b" points="1528.74 75 1543.17 100 1557.61 75 1528.74 75"/><polygon class="c" points="1514.31 100 1528.74 125 1543.17 100 1514.31 100"/><polygon class="c" points="1543.17 100 1557.61 125 1572.04 100 1543.17 100"/><polygon class="c" points="1528.74 125 1543.17 100 1557.61 125 1528.74 125"/><polygon class="a" points="1586.48 75 1600.91 50 1615.34 75 1586.48 75"/><polygon class="b" points="1572.04 50 1586.48 75 1600.91 50 1572.04 50"/><polygon class="c" points="1557.61 75 1572.04 100 1586.48 75 1557.61 75"/><polygon class="c" points="1586.48 75 1600.91 100 1615.34 75 1586.48 75"/><polygon class="c" points="1572.04 100 1586.48 75 1600.91 100 1572.04 100"/><polygon class="a" points="1629.78 50 1644.21 25 1658.64 50 1629.78 50"/><polygon class="b" points="1615.34 25 1629.78 50 1644.21 25 1615.34 25"/><polygon class="c" points="1600.91 50 1615.34 75 1629.78 50 1600.91 50"/><polygon class="c" points="1629.78 50 1644.21 75 1658.64 50 1629.78 50"/><polygon class="c" points="1615.34 75 1629.78 50 1644.21 75 1615.34 75"/><polygon class="a" points="1629.78 100 1644.21 75 1658.64 100 1629.78 100"/><polygon class="b" points="1615.34 75 1629.78 100 1644.21 75 1615.34 75"/><polygon class="c" points="1600.91 100 1615.34 125 1629.78 100 1600.91 100"/><polygon class="c" points="1629.78 100 1644.21 125 1658.64 100 1629.78 100"/><polygon class="c" points="1615.34 125 1629.78 100 1644.21 125 1615.34 125"/><polygon class="b" points="1658.64 50 1673.08 75 1687.51 50 1658.64 50"/><polygon class="c" points="1644.21 75 1658.64 100 1673.08 75 1644.21 75"/><polygon class="c" points="1658.64 100 1673.08 75 1687.51 100 1658.64 100"/><polygon class="a" points="1456.57 150 1471.01 125 1485.44 150 1456.57 150"/><polygon class="b" points="1442.14 125 1456.57 150 1471.01 125 1442.14 125"/><polygon class="a" points="1499.87 125 1514.31 100 1528.74 125 1499.87 125"/><polygon class="b" points="1485.44 100 1499.87 125 1514.31 100 1485.44 100"/><polygon class="c" points="1471.01 125 1485.44 150 1499.87 125 1471.01 125"/><polygon class="c" points="1499.87 125 1514.31 150 1528.74 125 1499.87 125"/><polygon class="c" points="1485.44 150 1499.87 125 1514.31 150 1485.44 150"/><polygon class="a" points="1543.17 150 1557.61 125 1572.04 150 1543.17 150"/><polygon class="b" points="1528.74 125 1543.17 150 1557.61 125 1528.74 125"/><polygon class="a" points="1586.48 125 1600.91 100 1615.34 125 1586.48 125"/><polygon class="b" points="1572.04 100 1586.48 125 1600.91 100 1572.04 100"/><polygon class="c" points="1557.61 125 1572.04 150 1586.48 125 1557.61 125"/><polygon class="c" points="1586.48 125 1600.91 150 1615.34 125 1586.48 125"/><polygon class="c" points="1572.04 150 1586.48 125 1600.91 150 1572.04 150"/><polygon class="a" points="1629.78 150 1644.21 125 1658.64 150 1629.78 150"/><polygon class="b" points="1615.34 125 1629.78 150 1644.21 125 1615.34 125"/><polygon class="b" points="1658.64 100 1673.08 125 1687.51 100 1658.64 100"/><polygon class="c" points="1644.21 125 1658.64 150 1673.08 125 1644.21 125"/><polygon class="c" points="1658.64 150 1673.08 125 1687.51 150 1658.64 150"/><polygon class="a" points="1672.94 25 1687.36 0 1701.77 25 1672.94 25"/><polygon class="c" points="1701.77 25 1716.19 0 1730.61 25 1701.77 25"/><polygon class="c" points="1687.36 0 1701.77 25 1716.19 0 1687.36 0"/><polygon class="c" points="1672.94 25 1687.36 50 1701.77 25 1672.94 25"/><polygon class="b" points="1701.77 25 1716.19 50 1730.61 25 1701.77 25"/><polygon class="c" points="1716.19 0 1730.61 25 1745.03 0 1716.19 0"/><polygon class="b" points="1745.03 0 1759.45 25 1773.87 0 1745.03 0"/><polygon class="a" points="1759.45 25 1773.87 0 1788.29 25 1759.45 25"/><polygon class="c" points="1788.29 25 1802.7 0 1817.12 25 1788.29 25"/><polygon class="c" points="1773.87 0 1788.29 25 1802.7 0 1773.87 0"/><polygon class="c" points="1759.45 25 1773.87 50 1788.29 25 1759.45 25"/><polygon class="b" points="1788.29 25 1802.7 50 1817.12 25 1788.29 25"/><polygon class="c" points="1802.7 0 1817.12 25 1831.54 0 1802.7 0"/><line class="c" x1="1817.12" y1="25" x2="1831.54"/><polygon class="a" points="1672.94 75 1687.36 50 1701.77 75 1672.94 75"/><polygon class="c" points="1701.77 75 1716.19 50 1730.61 75 1701.77 75"/><polygon class="c" points="1687.36 50 1701.77 75 1716.19 50 1687.36 50"/><polygon class="c" points="1672.94 75 1687.36 100 1701.77 75 1672.94 75"/><polygon class="b" points="1701.77 75 1716.19 100 1730.61 75 1701.77 75"/><polygon class="a" points="1716.19 50 1730.61 25 1745.03 50 1716.19 50"/><polygon class="c" points="1745.03 50 1759.45 25 1773.87 50 1745.03 50"/><polygon class="c" points="1730.61 25 1745.03 50 1759.45 25 1730.61 25"/><polygon class="c" points="1716.19 50 1730.61 75 1745.03 50 1716.19 50"/><polygon class="b" points="1745.03 50 1759.45 75 1773.87 50 1745.03 50"/><polygon class="a" points="1716.19 100 1730.61 75 1745.03 100 1716.19 100"/><polygon class="c" points="1745.03 100 1759.45 75 1773.87 100 1745.03 100"/><polygon class="c" points="1730.61 75 1745.03 100 1759.45 75 1730.61 75"/><polygon class="c" points="1716.19 100 1730.61 125 1745.03 100 1716.19 100"/><polygon class="b" points="1745.03 100 1759.45 125 1773.87 100 1745.03 100"/><polygon class="a" points="1759.45 75 1773.87 50 1788.29 75 1759.45 75"/><polygon class="c" points="1788.29 75 1802.7 50 1817.12 75 1788.29 75"/><polygon class="c" points="1773.87 50 1788.29 75 1802.7 50 1773.87 50"/><polygon class="c" points="1759.45 75 1773.87 100 1788.29 75 1759.45 75"/><polygon class="b" points="1788.29 75 1802.7 100 1817.12 75 1788.29 75"/><polygon class="a" points="1802.7 50 1817.12 25 1831.54 50 1802.7 50"/><line class="c" x1="1817.12" y1="25" x2="1831.54" y2="50"/><polygon class="c" points="1802.7 50 1817.12 75 1831.54 50 1802.7 50"/><line class="c" x1="1817.12" y1="75" x2="1831.54" y2="50"/><polygon class="a" points="1802.7 100 1817.12 75 1831.54 100 1802.7 100"/><line class="c" x1="1817.12" y1="75" x2="1831.54" y2="100"/><polygon class="c" points="1802.7 100 1817.12 125 1831.54 100 1802.7 100"/><line class="c" x1="1817.12" y1="125" x2="1831.54" y2="100"/><polygon class="a" points="1672.94 125 1687.36 100 1701.77 125 1672.94 125"/><polygon class="c" points="1701.77 125 1716.19 100 1730.61 125 1701.77 125"/><polygon class="c" points="1687.36 100 1701.77 125 1716.19 100 1687.36 100"/><polygon class="c" points="1672.94 125 1687.36 150 1701.77 125 1672.94 125"/><polygon class="b" points="1701.77 125 1716.19 150 1730.61 125 1701.77 125"/><polygon class="a" points="1716.19 150 1730.61 125 1745.03 150 1716.19 150"/><polygon class="c" points="1745.03 150 1759.45 125 1773.87 150 1745.03 150"/><polygon class="c" points="1730.61 125 1745.03 150 1759.45 125 1730.61 125"/><polygon class="a" points="1759.45 125 1773.87 100 1788.29 125 1759.45 125"/><polygon class="c" points="1788.29 125 1802.7 100 1817.12 125 1788.29 125"/><polygon class="c" points="1773.87 100 1788.29 125 1802.7 100 1773.87 100"/><polygon class="c" points="1759.45 125 1773.87 150 1788.29 125 1759.45 125"/><polygon class="b" points="1788.29 125 1802.7 150 1817.12 125 1788.29 125"/><polygon class="a" points="1802.7 150 1817.12 125 1831.54 150 1802.7 150"/><line class="c" x1="1817.12" y1="125" x2="1831.54" y2="150"/><polygon class="a" points="1845.99 25 1860.42 0 1874.86 25 1845.99 25"/><polygon class="b" points="1831.56 0 1845.99 25 1860.42 0 1831.56 0"/><polygon class="c" points="1817.12 25 1831.56 50 1845.99 25 1817.12 25"/><polygon class="c" points="1845.99 25 1860.42 50 1874.86 25 1845.99 25"/><polygon class="c" points="1831.56 50 1845.99 25 1860.42 50 1831.56 50"/><polygon class="c" points="1860.42 0 1874.86 25 1889.29 0 1860.42 0"/><polygon class="c" points="1889.29 0 1903.73 25 1918.16 0 1889.29 0"/><polygon class="c" points="1874.86 25 1889.29 0 1903.73 25 1874.86 25"/><polygon class="a" points="1932.59 25 1947.03 0 1961.46 25 1932.59 25"/><polygon class="b" points="1918.16 0 1932.59 25 1947.03 0 1918.16 0"/><polygon class="c" points="1903.73 25 1918.16 50 1932.59 25 1903.73 25"/><polygon class="c" points="1932.59 25 1947.03 50 1961.46 25 1932.59 25"/><polygon class="c" points="1918.16 50 1932.59 25 1947.03 50 1918.16 50"/><polygon class="c" points="1947.03 0 1961.46 25 1975.89 0 1947.03 0"/><polygon class="c" points="1975.89 0 1990.33 25 2004.76 0 1975.89 0"/><polygon class="c" points="1961.46 25 1975.89 0 1990.33 25 1961.46 25"/><polygon class="b" points="2004.76 0 2019.2 25 2033.63 0 2004.76 0"/><polygon class="c" points="1990.33 25 2004.76 50 2019.2 25 1990.33 25"/><polygon class="c" points="2004.76 50 2019.2 25 2033.63 50 2004.76 50"/><polygon class="a" points="1845.99 75 1860.42 50 1874.86 75 1845.99 75"/><polygon class="b" points="1831.56 50 1845.99 75 1860.42 50 1831.56 50"/><polygon class="c" points="1817.12 75 1831.56 100 1845.99 75 1817.12 75"/><polygon class="c" points="1845.99 75 1860.42 100 1874.86 75 1845.99 75"/><polygon class="c" points="1831.56 100 1845.99 75 1860.42 100 1831.56 100"/><polygon class="a" points="1889.29 50 1903.73 25 1918.16 50 1889.29 50"/><polygon class="b" points="1874.86 25 1889.29 50 1903.73 25 1874.86 25"/><polygon class="c" points="1860.42 50 1874.86 75 1889.29 50 1860.42 50"/><polygon class="c" points="1889.29 50 1903.73 75 1918.16 50 1889.29 50"/><polygon class="c" points="1874.86 75 1889.29 50 1903.73 75 1874.86 75"/><polygon class="a" points="1889.29 100 1903.73 75 1918.16 100 1889.29 100"/><polygon class="b" points="1874.86 75 1889.29 100 1903.73 75 1874.86 75"/><polygon class="c" points="1860.42 100 1874.86 125 1889.29 100 1860.42 100"/><polygon class="c" points="1889.29 100 1903.73 125 1918.16 100 1889.29 100"/><polygon class="c" points="1874.86 125 1889.29 100 1903.73 125 1874.86 125"/><polygon class="a" points="1932.59 75 1947.03 50 1961.46 75 1932.59 75"/><polygon class="b" points="1918.16 50 1932.59 75 1947.03 50 1918.16 50"/><polygon class="c" points="1903.73 75 1918.16 100 1932.59 75 1903.73 75"/><polygon class="c" points="1932.59 75 1947.03 100 1961.46 75 1932.59 75"/><polygon class="c" points="1918.16 100 1932.59 75 1947.03 100 1918.16 100"/><polygon class="a" points="1975.89 50 1990.33 25 2004.76 50 1975.89 50"/><polygon class="b" points="1961.46 25 1975.89 50 1990.33 25 1961.46 25"/><polygon class="c" points="1947.03 50 1961.46 75 1975.89 50 1947.03 50"/><polygon class="c" points="1975.89 50 1990.33 75 2004.76 50 1975.89 50"/><polygon class="c" points="1961.46 75 1975.89 50 1990.33 75 1961.46 75"/><polygon class="a" points="1975.89 100 1990.33 75 2004.76 100 1975.89 100"/><polygon class="b" points="1961.46 75 1975.89 100 1990.33 75 1961.46 75"/><polygon class="c" points="1947.03 100 1961.46 125 1975.89 100 1947.03 100"/><polygon class="c" points="1975.89 100 1990.33 125 2004.76 100 1975.89 100"/><polygon class="c" points="1961.46 125 1975.89 100 1990.33 125 1961.46 125"/><polygon class="b" points="2004.76 50 2019.2 75 2033.63 50 2004.76 50"/><polygon class="c" points="1990.33 75 2004.76 100 2019.2 75 1990.33 75"/><polygon class="c" points="2004.76 100 2019.2 75 2033.63 100 2004.76 100"/><polygon class="a" points="1845.99 125 1860.42 100 1874.86 125 1845.99 125"/><polygon class="b" points="1831.56 100 1845.99 125 1860.42 100 1831.56 100"/><polygon class="c" points="1817.12 125 1831.56 150 1845.99 125 1817.12 125"/><polygon class="c" points="1845.99 125 1860.42 150 1874.86 125 1845.99 125"/><polygon class="c" points="1831.56 150 1845.99 125 1860.42 150 1831.56 150"/><polygon class="a" points="1889.29 150 1903.73 125 1918.16 150 1889.29 150"/><polygon class="b" points="1874.86 125 1889.29 150 1903.73 125 1874.86 125"/><polygon class="a" points="1932.59 125 1947.03 100 1961.46 125 1932.59 125"/><polygon class="b" points="1918.16 100 1932.59 125 1947.03 100 1918.16 100"/><polygon class="c" points="1903.73 125 1918.16 150 1932.59 125 1903.73 125"/><polygon class="c" points="1932.59 125 1947.03 150 1961.46 125 1932.59 125"/><polygon class="c" points="1918.16 150 1932.59 125 1947.03 150 1918.16 150"/><polygon class="a" points="1975.89 150 1990.33 125 2004.76 150 1975.89 150"/><polygon class="b" points="1961.46 125 1975.89 150 1990.33 125 1961.46 125"/><polygon class="b" points="2004.76 100 2019.2 125 2033.63 100 2004.76 100"/><polygon class="c" points="1990.33 125 2004.76 150 2019.2 125 1990.33 125"/><polygon class="c" points="2004.76 150 2019.2 125 2033.63 150 2004.76 150"/><polygon class="a" points="2019.05 25 2033.47 0 2047.89 25 2019.05 25"/><polygon class="c" points="2047.89 25 2062.31 0 2076.73 25 2047.89 25"/><polygon class="c" points="2033.47 0 2047.89 25 2062.31 0 2033.47 0"/><polygon class="c" points="2019.05 25 2033.47 50 2047.89 25 2019.05 25"/><polygon class="b" points="2047.89 25 2062.31 50 2076.73 25 2047.89 25"/><polygon class="c" points="2062.31 0 2076.73 25 2091.15 0 2062.31 0"/><polygon class="b" points="2091.15 0 2105.57 25 2119.99 0 2091.15 0"/><polygon class="a" points="2105.57 25 2119.99 0 2134.4 25 2105.57 25"/><polygon class="c" points="2105.57 25 2119.99 50 2134.4 25 2105.57 25"/><polygon class="a" points="2019.05 75 2033.47 50 2047.89 75 2019.05 75"/><polygon class="c" points="2047.89 75 2062.31 50 2076.73 75 2047.89 75"/><polygon class="c" points="2033.47 50 2047.89 75 2062.31 50 2033.47 50"/><polygon class="c" points="2019.05 75 2033.47 100 2047.89 75 2019.05 75"/><polygon class="b" points="2047.89 75 2062.31 100 2076.73 75 2047.89 75"/><polygon class="a" points="2062.31 50 2076.73 25 2091.15 50 2062.31 50"/><polygon class="c" points="2091.15 50 2105.57 25 2119.99 50 2091.15 50"/><polygon class="c" points="2076.73 25 2091.15 50 2105.57 25 2076.73 25"/><polygon class="c" points="2062.31 50 2076.73 75 2091.15 50 2062.31 50"/><polygon class="b" points="2091.15 50 2105.57 75 2119.99 50 2091.15 50"/><polygon class="a" points="2062.31 100 2076.73 75 2091.15 100 2062.31 100"/><polygon class="c" points="2091.15 100 2105.57 75 2119.99 100 2091.15 100"/><polygon class="c" points="2076.73 75 2091.15 100 2105.57 75 2076.73 75"/><polygon class="c" points="2062.31 100 2076.73 125 2091.15 100 2062.31 100"/><polygon class="b" points="2091.15 100 2105.57 125 2119.99 100 2091.15 100"/><polygon class="a" points="2105.57 75 2119.99 50 2134.4 75 2105.57 75"/><polygon class="c" points="2105.57 75 2119.99 100 2134.4 75 2105.57 75"/><polygon class="a" points="2019.05 125 2033.47 100 2047.89 125 2019.05 125"/><polygon class="c" points="2047.89 125 2062.31 100 2076.73 125 2047.89 125"/><polygon class="c" points="2033.47 100 2047.89 125 2062.31 100 2033.47 100"/><polygon class="c" points="2019.05 125 2033.47 150 2047.89 125 2019.05 125"/><polygon class="b" points="2047.89 125 2062.31 150 2076.73 125 2047.89 125"/><polygon class="a" points="2062.31 150 2076.73 125 2091.15 150 2062.31 150"/><polygon class="c" points="2091.15 150 2105.57 125 2119.99 150 2091.15 150"/><polygon class="c" points="2076.73 125 2091.15 150 2105.57 125 2076.73 125"/><polygon class="a" points="2105.57 125 2119.99 100 2134.4 125 2105.57 125"/><polygon class="c" points="2105.57 125 2119.99 150 2134.4 125 2105.57 125"/><polygon class="c" points="2119.99 0 2134.42 25 2148.85 0 2119.99 0"/><polygon class="c" points="2148.85 0 2163.29 25 2177.72 0 2148.85 0"/><polygon class="c" points="2134.42 25 2148.85 0 2163.29 25 2134.42 25"/><polygon class="a" points="2192.16 25 2206.59 0 2221.02 25 2192.16 25"/><polygon class="b" points="2177.72 0 2192.16 25 2206.59 0 2177.72 0"/><polygon class="c" points="2163.29 25 2177.72 50 2192.16 25 2163.29 25"/><polygon class="c" points="2192.16 25 2206.59 50 2221.02 25 2192.16 25"/><polygon class="c" points="2177.72 50 2192.16 25 2206.59 50 2177.72 50"/><polygon class="c" points="2206.59 0 2221.02 25 2235.46 0 2206.59 0"/><polygon class="c" points="2235.46 0 2249.89 25 2264.32 0 2235.46 0"/><polygon class="c" points="2221.02 25 2235.46 0 2249.89 25 2221.02 25"/><polygon class="a" points="2278.76 25 2293.19 0 2307.63 25 2278.76 25"/><polygon class="b" points="2264.32 0 2278.76 25 2293.19 0 2264.32 0"/><polygon class="c" points="2249.89 25 2264.32 50 2278.76 25 2249.89 25"/><polygon class="c" points="2278.76 25 2293.19 50 2307.63 25 2278.76 25"/><polygon class="c" points="2264.32 50 2278.76 25 2293.19 50 2264.32 50"/><polygon class="c" points="2293.19 0 2307.63 25 2322.06 0 2293.19 0"/><polygon class="c" points="2322.06 0 2336.49 25 2350.93 0 2322.06 0"/><polygon class="c" points="2307.63 25 2322.06 0 2336.49 25 2307.63 25"/><polygon class="b" points="2350.93 0 2365.36 25 2379.79 0 2350.93 0"/><polygon class="c" points="2336.49 25 2350.93 50 2365.36 25 2336.49 25"/><polygon class="c" points="2350.93 50 2365.36 25 2379.79 50 2350.93 50"/><polygon class="a" points="2148.85 50 2163.29 25 2177.72 50 2148.85 50"/><polygon class="b" points="2134.42 25 2148.85 50 2163.29 25 2134.42 25"/><polygon class="c" points="2119.99 50 2134.42 75 2148.85 50 2119.99 50"/><polygon class="c" points="2148.85 50 2163.29 75 2177.72 50 2148.85 50"/><polygon class="c" points="2134.42 75 2148.85 50 2163.29 75 2134.42 75"/><polygon class="a" points="2148.85 100 2163.29 75 2177.72 100 2148.85 100"/><polygon class="b" points="2134.42 75 2148.85 100 2163.29 75 2134.42 75"/><polygon class="c" points="2119.99 100 2134.42 125 2148.85 100 2119.99 100"/><polygon class="c" points="2148.85 100 2163.29 125 2177.72 100 2148.85 100"/><polygon class="c" points="2134.42 125 2148.85 100 2163.29 125 2134.42 125"/><polygon class="a" points="2192.16 75 2206.59 50 2221.02 75 2192.16 75"/><polygon class="b" points="2177.72 50 2192.16 75 2206.59 50 2177.72 50"/><polygon class="c" points="2163.29 75 2177.72 100 2192.16 75 2163.29 75"/><polygon class="c" points="2192.16 75 2206.59 100 2221.02 75 2192.16 75"/><polygon class="c" points="2177.72 100 2192.16 75 2206.59 100 2177.72 100"/><polygon class="a" points="2235.46 50 2249.89 25 2264.32 50 2235.46 50"/><polygon class="b" points="2221.02 25 2235.46 50 2249.89 25 2221.02 25"/><polygon class="c" points="2206.59 50 2221.02 75 2235.46 50 2206.59 50"/><polygon class="c" points="2235.46 50 2249.89 75 2264.32 50 2235.46 50"/><polygon class="c" points="2221.02 75 2235.46 50 2249.89 75 2221.02 75"/><polygon class="a" points="2235.46 100 2249.89 75 2264.32 100 2235.46 100"/><polygon class="b" points="2221.02 75 2235.46 100 2249.89 75 2221.02 75"/><polygon class="c" points="2206.59 100 2221.02 125 2235.46 100 2206.59 100"/><polygon class="c" points="2235.46 100 2249.89 125 2264.32 100 2235.46 100"/><polygon class="c" points="2221.02 125 2235.46 100 2249.89 125 2221.02 125"/><polygon class="a" points="2278.76 75 2293.19 50 2307.63 75 2278.76 75"/><polygon class="b" points="2264.32 50 2278.76 75 2293.19 50 2264.32 50"/><polygon class="c" points="2249.89 75 2264.32 100 2278.76 75 2249.89 75"/><polygon class="c" points="2278.76 75 2293.19 100 2307.63 75 2278.76 75"/><polygon class="c" points="2264.32 100 2278.76 75 2293.19 100 2264.32 100"/><polygon class="a" points="2322.06 50 2336.49 25 2350.93 50 2322.06 50"/><polygon class="b" points="2307.63 25 2322.06 50 2336.49 25 2307.63 25"/><polygon class="c" points="2293.19 50 2307.63 75 2322.06 50 2293.19 50"/><polygon class="c" points="2322.06 50 2336.49 75 2350.93 50 2322.06 50"/><polygon class="c" points="2307.63 75 2322.06 50 2336.49 75 2307.63 75"/><polygon class="a" points="2322.06 100 2336.49 75 2350.93 100 2322.06 100"/><polygon class="b" points="2307.63 75 2322.06 100 2336.49 75 2307.63 75"/><polygon class="c" points="2293.19 100 2307.63 125 2322.06 100 2293.19 100"/><polygon class="c" points="2322.06 100 2336.49 125 2350.93 100 2322.06 100"/><polygon class="c" points="2307.63 125 2322.06 100 2336.49 125 2307.63 125"/><polygon class="b" points="2350.93 50 2365.36 75 2379.79 50 2350.93 50"/><polygon class="c" points="2336.49 75 2350.93 100 2365.36 75 2336.49 75"/><polygon class="c" points="2350.93 100 2365.36 75 2379.79 100 2350.93 100"/><polygon class="a" points="2148.85 150 2163.29 125 2177.72 150 2148.85 150"/><polygon class="b" points="2134.42 125 2148.85 150 2163.29 125 2134.42 125"/><polygon class="a" points="2192.16 125 2206.59 100 2221.02 125 2192.16 125"/><polygon class="b" points="2177.72 100 2192.16 125 2206.59 100 2177.72 100"/><polygon class="c" points="2163.29 125 2177.72 150 2192.16 125 2163.29 125"/><polygon class="c" points="2192.16 125 2206.59 150 2221.02 125 2192.16 125"/><polygon class="c" points="2177.72 150 2192.16 125 2206.59 150 2177.72 150"/><polygon class="a" points="2235.46 150 2249.89 125 2264.32 150 2235.46 150"/><polygon class="b" points="2221.02 125 2235.46 150 2249.89 125 2221.02 125"/><polygon class="a" points="2278.76 125 2293.19 100 2307.63 125 2278.76 125"/><polygon class="b" points="2264.32 100 2278.76 125 2293.19 100 2264.32 100"/><polygon class="c" points="2249.89 125 2264.32 150 2278.76 125 2249.89 125"/><polygon class="c" points="2278.76 125 2293.19 150 2307.63 125 2278.76 125"/><polygon class="c" points="2264.32 150 2278.76 125 2293.19 150 2264.32 150"/><polygon class="a" points="2322.06 150 2336.49 125 2350.93 150 2322.06 150"/><polygon class="b" points="2307.63 125 2322.06 150 2336.49 125 2307.63 125"/><polygon class="b" points="2350.93 100 2365.36 125 2379.79 100 2350.93 100"/><polygon class="c" points="2336.49 125 2350.93 150 2365.36 125 2336.49 125"/><polygon class="c" points="2350.93 150 2365.36 125 2379.79 150 2350.93 150"/><polygon class="a" points="2365.22 25 2379.64 0 2394.05 25 2365.22 25"/><polygon class="c" points="2394.05 25 2408.47 0 2422.89 25 2394.05 25"/><polygon class="c" points="2379.64 0 2394.05 25 2408.47 0 2379.64 0"/><polygon class="c" points="2365.22 25 2379.64 50 2394.05 25 2365.22 25"/><polygon class="b" points="2394.05 25 2408.47 50 2422.89 25 2394.05 25"/><polygon class="c" points="2408.47 0 2422.89 25 2437.31 0 2408.47 0"/><polygon class="b" points="2437.31 0 2451.73 25 2466.15 0 2437.31 0"/><polygon class="a" points="2451.73 25 2466.15 0 2480.57 25 2451.73 25"/><polygon class="c" points="2480.57 25 2494.99 0 2509.41 25 2480.57 25"/><polygon class="c" points="2466.15 0 2480.57 25 2494.99 0 2466.15 0"/><polygon class="c" points="2451.73 25 2466.15 50 2480.57 25 2451.73 25"/><polygon class="b" points="2480.57 25 2494.99 50 2509.41 25 2480.57 25"/><polygon class="c" points="2494.99 0 2509.41 25 2523.82 0 2494.99 0"/><line class="c" x1="2509.41" y1="25" x2="2523.82"/><polygon class="a" points="2365.22 75 2379.64 50 2394.05 75 2365.22 75"/><polygon class="c" points="2394.05 75 2408.47 50 2422.89 75 2394.05 75"/><polygon class="c" points="2379.64 50 2394.05 75 2408.47 50 2379.64 50"/><polygon class="c" points="2365.22 75 2379.64 100 2394.05 75 2365.22 75"/><polygon class="b" points="2394.05 75 2408.47 100 2422.89 75 2394.05 75"/><polygon class="a" points="2408.47 50 2422.89 25 2437.31 50 2408.47 50"/><polygon class="c" points="2437.31 50 2451.73 25 2466.15 50 2437.31 50"/><polygon class="c" points="2422.89 25 2437.31 50 2451.73 25 2422.89 25"/><polygon class="c" points="2408.47 50 2422.89 75 2437.31 50 2408.47 50"/><polygon class="b" points="2437.31 50 2451.73 75 2466.15 50 2437.31 50"/><polygon class="a" points="2408.47 100 2422.89 75 2437.31 100 2408.47 100"/><polygon class="c" points="2437.31 100 2451.73 75 2466.15 100 2437.31 100"/><polygon class="c" points="2422.89 75 2437.31 100 2451.73 75 2422.89 75"/><polygon class="c" points="2408.47 100 2422.89 125 2437.31 100 2408.47 100"/><polygon class="b" points="2437.31 100 2451.73 125 2466.15 100 2437.31 100"/><polygon class="a" points="2451.73 75 2466.15 50 2480.57 75 2451.73 75"/><polygon class="c" points="2480.57 75 2494.99 50 2509.41 75 2480.57 75"/><polygon class="c" points="2466.15 50 2480.57 75 2494.99 50 2466.15 50"/><polygon class="c" points="2451.73 75 2466.15 100 2480.57 75 2451.73 75"/><polygon class="b" points="2480.57 75 2494.99 100 2509.41 75 2480.57 75"/><polygon class="a" points="2494.99 50 2509.41 25 2523.82 50 2494.99 50"/><line class="c" x1="2509.41" y1="25" x2="2523.82" y2="50"/><polygon class="c" points="2494.99 50 2509.41 75 2523.82 50 2494.99 50"/><line class="c" x1="2509.41" y1="75" x2="2523.82" y2="50"/><polygon class="a" points="2494.99 100 2509.41 75 2523.82 100 2494.99 100"/><line class="c" x1="2509.41" y1="75" x2="2523.82" y2="100"/><polygon class="c" points="2494.99 100 2509.41 125 2523.82 100 2494.99 100"/><line class="c" x1="2509.41" y1="125" x2="2523.82" y2="100"/><polygon class="a" points="2365.22 125 2379.64 100 2394.05 125 2365.22 125"/><polygon class="c" points="2394.05 125 2408.47 100 2422.89 125 2394.05 125"/><polygon class="c" points="2379.64 100 2394.05 125 2408.47 100 2379.64 100"/><polygon class="c" points="2365.22 125 2379.64 150 2394.05 125 2365.22 125"/><polygon class="b" points="2394.05 125 2408.47 150 2422.89 125 2394.05 125"/><polygon class="a" points="2408.47 150 2422.89 125 2437.31 150 2408.47 150"/><polygon class="c" points="2437.31 150 2451.73 125 2466.15 150 2437.31 150"/><polygon class="c" points="2422.89 125 2437.31 150 2451.73 125 2422.89 125"/><polygon class="a" points="2451.73 125 2466.15 100 2480.57 125 2451.73 125"/><polygon class="c" points="2480.57 125 2494.99 100 2509.41 125 2480.57 125"/><polygon class="c" points="2466.15 100 2480.57 125 2494.99 100 2466.15 100"/><polygon class="c" points="2451.73 125 2466.15 150 2480.57 125 2451.73 125"/><polygon class="b" points="2480.57 125 2494.99 150 2509.41 125 2480.57 125"/><polygon class="a" points="2494.99 150 2509.41 125 2523.82 150 2494.99 150"/><line class="c" x1="2509.41" y1="125" x2="2523.82" y2="150"/><polygon class="a" points="2538.27 25 2552.71 0 2567.14 25 2538.27 25"/><polygon class="b" points="2523.84 0 2538.27 25 2552.71 0 2523.84 0"/><polygon class="c" points="2509.41 25 2523.84 50 2538.27 25 2509.41 25"/><polygon class="c" points="2538.27 25 2552.71 50 2567.14 25 2538.27 25"/><polygon class="c" points="2523.84 50 2538.27 25 2552.71 50 2523.84 50"/><polygon class="c" points="2552.71 0 2567.14 25 2581.57 0 2552.71 0"/><polygon class="c" points="2581.57 0 2596.01 25 2610.44 0 2581.57 0"/><polygon class="c" points="2567.14 25 2581.57 0 2596.01 25 2567.14 25"/><polygon class="a" points="2624.88 25 2639.31 0 2653.74 25 2624.88 25"/><polygon class="b" points="2610.44 0 2624.88 25 2639.31 0 2610.44 0"/><polygon class="c" points="2596.01 25 2610.44 50 2624.88 25 2596.01 25"/><polygon class="c" points="2624.88 25 2639.31 50 2653.74 25 2624.88 25"/><polygon class="c" points="2610.44 50 2624.88 25 2639.31 50 2610.44 50"/><polygon class="c" points="2639.31 0 2653.74 25 2668.18 0 2639.31 0"/><polygon class="c" points="2668.18 0 2682.61 25 2697.04 0 2668.18 0"/><polygon class="c" points="2653.74 25 2668.18 0 2682.61 25 2653.74 25"/><polygon class="b" points="2697.04 0 2711.48 25 2725.91 0 2697.04 0"/><polygon class="c" points="2682.61 25 2697.04 50 2711.48 25 2682.61 25"/><polygon class="c" points="2697.04 50 2711.48 25 2725.91 50 2697.04 50"/><polygon class="a" points="2538.27 75 2552.71 50 2567.14 75 2538.27 75"/><polygon class="b" points="2523.84 50 2538.27 75 2552.71 50 2523.84 50"/><polygon class="c" points="2509.41 75 2523.84 100 2538.27 75 2509.41 75"/><polygon class="c" points="2538.27 75 2552.71 100 2567.14 75 2538.27 75"/><polygon class="c" points="2523.84 100 2538.27 75 2552.71 100 2523.84 100"/><polygon class="a" points="2581.57 50 2596.01 25 2610.44 50 2581.57 50"/><polygon class="b" points="2567.14 25 2581.57 50 2596.01 25 2567.14 25"/><polygon class="c" points="2552.71 50 2567.14 75 2581.57 50 2552.71 50"/><polygon class="c" points="2581.57 50 2596.01 75 2610.44 50 2581.57 50"/><polygon class="c" points="2567.14 75 2581.57 50 2596.01 75 2567.14 75"/><polygon class="a" points="2581.57 100 2596.01 75 2610.44 100 2581.57 100"/><polygon class="b" points="2567.14 75 2581.57 100 2596.01 75 2567.14 75"/><polygon class="c" points="2552.71 100 2567.14 125 2581.57 100 2552.71 100"/><polygon class="c" points="2581.57 100 2596.01 125 2610.44 100 2581.57 100"/><polygon class="c" points="2567.14 125 2581.57 100 2596.01 125 2567.14 125"/><polygon class="a" points="2624.88 75 2639.31 50 2653.74 75 2624.88 75"/><polygon class="b" points="2610.44 50 2624.88 75 2639.31 50 2610.44 50"/><polygon class="c" points="2596.01 75 2610.44 100 2624.88 75 2596.01 75"/><polygon class="c" points="2624.88 75 2639.31 100 2653.74 75 2624.88 75"/><polygon class="c" points="2610.44 100 2624.88 75 2639.31 100 2610.44 100"/><polygon class="a" points="2668.18 50 2682.61 25 2697.04 50 2668.18 50"/><polygon class="b" points="2653.74 25 2668.18 50 2682.61 25 2653.74 25"/><polygon class="c" points="2639.31 50 2653.74 75 2668.18 50 2639.31 50"/><polygon class="c" points="2668.18 50 2682.61 75 2697.04 50 2668.18 50"/><polygon class="c" points="2653.74 75 2668.18 50 2682.61 75 2653.74 75"/><polygon class="a" points="2668.18 100 2682.61 75 2697.04 100 2668.18 100"/><polygon class="b" points="2653.74 75 2668.18 100 2682.61 75 2653.74 75"/><polygon class="c" points="2639.31 100 2653.74 125 2668.18 100 2639.31 100"/><polygon class="c" points="2668.18 100 2682.61 125 2697.04 100 2668.18 100"/><polygon class="c" points="2653.74 125 2668.18 100 2682.61 125 2653.74 125"/><polygon class="b" points="2697.04 50 2711.48 75 2725.91 50 2697.04 50"/><polygon class="c" points="2682.61 75 2697.04 100 2711.48 75 2682.61 75"/><polygon class="c" points="2697.04 100 2711.48 75 2725.91 100 2697.04 100"/><polygon class="a" points="2538.27 125 2552.71 100 2567.14 125 2538.27 125"/><polygon class="b" points="2523.84 100 2538.27 125 2552.71 100 2523.84 100"/><polygon class="c" points="2509.41 125 2523.84 150 2538.27 125 2509.41 125"/><polygon class="c" points="2538.27 125 2552.71 150 2567.14 125 2538.27 125"/><polygon class="c" points="2523.84 150 2538.27 125 2552.71 150 2523.84 150"/><polygon class="a" points="2581.57 150 2596.01 125 2610.44 150 2581.57 150"/><polygon class="b" points="2567.14 125 2581.57 150 2596.01 125 2567.14 125"/><polygon class="a" points="2624.88 125 2639.31 100 2653.74 125 2624.88 125"/><polygon class="b" points="2610.44 100 2624.88 125 2639.31 100 2610.44 100"/><polygon class="c" points="2596.01 125 2610.44 150 2624.88 125 2596.01 125"/><polygon class="c" points="2624.88 125 2639.31 150 2653.74 125 2624.88 125"/><polygon class="c" points="2610.44 150 2624.88 125 2639.31 150 2610.44 150"/><polygon class="a" points="2668.18 150 2682.61 125 2697.04 150 2668.18 150"/><polygon class="b" points="2653.74 125 2668.18 150 2682.61 125 2653.74 125"/><polygon class="b" points="2697.04 100 2711.48 125 2725.91 100 2697.04 100"/><polygon class="c" points="2682.61 125 2697.04 150 2711.48 125 2682.61 125"/><polygon class="c" points="2697.04 150 2711.48 125 2725.91 150 2697.04 150"/><polygon class="a" points="2711.34 25 2725.75 0 2740.17 25 2711.34 25"/><polygon class="c" points="2740.17 25 2754.59 0 2769.01 25 2740.17 25"/><polygon class="c" points="2725.75 0 2740.17 25 2754.59 0 2725.75 0"/><polygon class="c" points="2711.34 25 2725.75 50 2740.17 25 2711.34 25"/><polygon class="b" points="2740.17 25 2754.59 50 2769.01 25 2740.17 25"/><polygon class="c" points="2754.59 0 2769.01 25 2783.43 0 2754.59 0"/><polygon class="b" points="2783.43 0 2797.85 25 2812.27 0 2783.43 0"/><polygon class="a" points="2797.85 25 2812.27 0 2826.68 25 2797.85 25"/><polygon class="c" points="2797.85 25 2812.27 50 2826.68 25 2797.85 25"/><polygon class="a" points="2711.34 75 2725.75 50 2740.17 75 2711.34 75"/><polygon class="c" points="2740.17 75 2754.59 50 2769.01 75 2740.17 75"/><polygon class="c" points="2725.75 50 2740.17 75 2754.59 50 2725.75 50"/><polygon class="c" points="2711.34 75 2725.75 100 2740.17 75 2711.34 75"/><polygon class="b" points="2740.17 75 2754.59 100 2769.01 75 2740.17 75"/><polygon class="a" points="2754.59 50 2769.01 25 2783.43 50 2754.59 50"/><polygon class="c" points="2783.43 50 2797.85 25 2812.27 50 2783.43 50"/><polygon class="c" points="2769.01 25 2783.43 50 2797.85 25 2769.01 25"/><polygon class="c" points="2754.59 50 2769.01 75 2783.43 50 2754.59 50"/><polygon class="b" points="2783.43 50 2797.85 75 2812.27 50 2783.43 50"/><polygon class="a" points="2754.59 100 2769.01 75 2783.43 100 2754.59 100"/><polygon class="c" points="2783.43 100 2797.85 75 2812.27 100 2783.43 100"/><polygon class="c" points="2769.01 75 2783.43 100 2797.85 75 2769.01 75"/><polygon class="c" points="2754.59 100 2769.01 125 2783.43 100 2754.59 100"/><polygon class="b" points="2783.43 100 2797.85 125 2812.27 100 2783.43 100"/><polygon class="a" points="2797.85 75 2812.27 50 2826.68 75 2797.85 75"/><polygon class="c" points="2797.85 75 2812.27 100 2826.68 75 2797.85 75"/><polygon class="a" points="2711.34 125 2725.75 100 2740.17 125 2711.34 125"/><polygon class="c" points="2740.17 125 2754.59 100 2769.01 125 2740.17 125"/><polygon class="c" points="2725.75 100 2740.17 125 2754.59 100 2725.75 100"/><polygon class="c" points="2711.34 125 2725.75 150 2740.17 125 2711.34 125"/><polygon class="b" points="2740.17 125 2754.59 150 2769.01 125 2740.17 125"/><polygon class="a" points="2754.59 150 2769.01 125 2783.43 150 2754.59 150"/><polygon class="c" points="2783.43 150 2797.85 125 2812.27 150 2783.43 150"/><polygon class="c" points="2769.01 125 2783.43 150 2797.85 125 2769.01 125"/><polygon class="a" points="2797.85 125 2812.27 100 2826.68 125 2797.85 125"/><polygon class="c" points="2797.85 125 2812.27 150 2826.68 125 2797.85 125"/><polygon class="c" points="2812.27 0 2826.7 25 2841.14 0 2812.27 0"/><polygon class="c" points="2841.14 0 2855.57 25 2870 0 2841.14 0"/><polygon class="c" points="2826.7 25 2841.14 0 2855.57 25 2826.7 25"/><polygon class="a" points="2884.44 25 2898.87 0 2913.3 25 2884.44 25"/><polygon class="b" points="2870 0 2884.44 25 2898.87 0 2870 0"/><polygon class="c" points="2855.57 25 2870 50 2884.44 25 2855.57 25"/><polygon class="c" points="2884.44 25 2898.87 50 2913.3 25 2884.44 25"/><polygon class="c" points="2870 50 2884.44 25 2898.87 50 2870 50"/><polygon class="c" points="2898.87 0 2913.3 25 2927.74 0 2898.87 0"/><polygon class="c" points="2927.74 0 2942.17 25 2956.61 0 2927.74 0"/><polygon class="c" points="2913.3 25 2927.74 0 2942.17 25 2913.3 25"/><polygon class="a" points="2971.04 25 2985.47 0 2999.91 25 2971.04 25"/><polygon class="b" points="2956.61 0 2971.04 25 2985.47 0 2956.61 0"/><polygon class="c" points="2942.17 25 2956.61 50 2971.04 25 2942.17 25"/><polygon class="c" points="2971.04 25 2985.47 50 2999.91 25 2971.04 25"/><polygon class="c" points="2956.61 50 2971.04 25 2985.47 50 2956.61 50"/><polygon class="c" points="2985.47 0 2999.91 25 3014.34 0 2985.47 0"/><polygon class="c" points="2999.91 25 3014.34 0 3028.77 25 2999.91 25"/><polygon class="a" points="2841.14 50 2855.57 25 2870 50 2841.14 50"/><polygon class="b" points="2826.7 25 2841.14 50 2855.57 25 2826.7 25"/><polygon class="c" points="2812.27 50 2826.7 75 2841.14 50 2812.27 50"/><polygon class="c" points="2841.14 50 2855.57 75 2870 50 2841.14 50"/><polygon class="c" points="2826.7 75 2841.14 50 2855.57 75 2826.7 75"/><polygon class="a" points="2841.14 100 2855.57 75 2870 100 2841.14 100"/><polygon class="b" points="2826.7 75 2841.14 100 2855.57 75 2826.7 75"/><polygon class="c" points="2812.27 100 2826.7 125 2841.14 100 2812.27 100"/><polygon class="c" points="2841.14 100 2855.57 125 2870 100 2841.14 100"/><polygon class="c" points="2826.7 125 2841.14 100 2855.57 125 2826.7 125"/><polygon class="a" points="2884.44 75 2898.87 50 2913.3 75 2884.44 75"/><polygon class="b" points="2870 50 2884.44 75 2898.87 50 2870 50"/><polygon class="c" points="2855.57 75 2870 100 2884.44 75 2855.57 75"/><polygon class="c" points="2884.44 75 2898.87 100 2913.3 75 2884.44 75"/><polygon class="c" points="2870 100 2884.44 75 2898.87 100 2870 100"/><polygon class="a" points="2927.74 50 2942.17 25 2956.61 50 2927.74 50"/><polygon class="b" points="2913.3 25 2927.74 50 2942.17 25 2913.3 25"/><polygon class="c" points="2898.87 50 2913.3 75 2927.74 50 2898.87 50"/><polygon class="c" points="2927.74 50 2942.17 75 2956.61 50 2927.74 50"/><polygon class="c" points="2913.3 75 2927.74 50 2942.17 75 2913.3 75"/><polygon class="a" points="2927.74 100 2942.17 75 2956.61 100 2927.74 100"/><polygon class="b" points="2913.3 75 2927.74 100 2942.17 75 2913.3 75"/><polygon class="c" points="2898.87 100 2913.3 125 2927.74 100 2898.87 100"/><polygon class="c" points="2927.74 100 2942.17 125 2956.61 100 2927.74 100"/><polygon class="c" points="2913.3 125 2927.74 100 2942.17 125 2913.3 125"/><polygon class="a" points="2971.04 75 2985.47 50 2999.91 75 2971.04 75"/><polygon class="b" points="2956.61 50 2971.04 75 2985.47 50 2956.61 50"/><polygon class="c" points="2942.17 75 2956.61 100 2971.04 75 2942.17 75"/><polygon class="c" points="2971.04 75 2985.47 100 2999.91 75 2971.04 75"/><polygon class="c" points="2956.61 100 2971.04 75 2985.47 100 2956.61 100"/><polygon class="b" points="2999.91 25 3014.34 50 3028.77 25 2999.91 25"/><polygon class="c" points="2985.47 50 2999.91 75 3014.34 50 2985.47 50"/><polygon class="c" points="2999.91 75 3014.34 50 3028.77 75 2999.91 75"/><polygon class="b" points="2999.91 75 3014.34 100 3028.77 75 2999.91 75"/><polygon class="c" points="2985.47 100 2999.91 125 3014.34 100 2985.47 100"/><polygon class="c" points="2999.91 125 3014.34 100 3028.77 125 2999.91 125"/><polygon class="a" points="2841.14 150 2855.57 125 2870 150 2841.14 150"/><polygon class="b" points="2826.7 125 2841.14 150 2855.57 125 2826.7 125"/><polygon class="a" points="2884.44 125 2898.87 100 2913.3 125 2884.44 125"/><polygon class="b" points="2870 100 2884.44 125 2898.87 100 2870 100"/><polygon class="c" points="2855.57 125 2870 150 2884.44 125 2855.57 125"/><polygon class="c" points="2884.44 125 2898.87 150 2913.3 125 2884.44 125"/><polygon class="c" points="2870 150 2884.44 125 2898.87 150 2870 150"/><polygon class="a" points="2927.74 150 2942.17 125 2956.61 150 2927.74 150"/><polygon class="b" points="2913.3 125 2927.74 150 2942.17 125 2913.3 125"/><polygon class="a" points="2971.04 125 2985.47 100 2999.91 125 2971.04 125"/><polygon class="b" points="2956.61 100 2971.04 125 2985.47 100 2956.61 100"/><polygon class="c" points="2942.17 125 2956.61 150 2971.04 125 2942.17 125"/><polygon class="c" points="2971.04 125 2985.47 150 2999.91 125 2971.04 125"/><polygon class="c" points="2956.61 150 2971.04 125 2985.47 150 2956.61 150"/><polygon class="b" points="2999.91 125 3014.34 150 3028.77 125 2999.91 125"/></svg>