<svg xmlns="http://www.w3.org/2000/svg" viewBox="0 0 400 68"><defs><style>.a{fill:#555;}</style></defs><title>name</title><path class="a" d="M38.9,67.12V35.52H6v31.6H0v-66H6V30H38.9V1.11h6v66Z"/><path class="a" d="M75.69,22.23c15,0,16.72,10.21,16.72,22.89v2.81h-29c.35,7.66,2.37,14.61,12.32,14.61,6.34,0,10.21-.61,14.52-2.46v5.28A35.65,35.65,0,0,1,75.69,68C60.81,68,57.21,57.79,57.21,45.12S60.81,22.23,75.69,22.23ZM63.37,42.92H86.25c0-7.84-.44-15.23-10.56-15.23S63.63,35,63.37,42.92Z"/><path class="a" d="M105.26,58.32V1.11h6V59c0,3.08,1,4,3.7,4v5C108.6,68,105.26,65.36,105.26,58.32Z"/><path class="a" d="M127.26,58.32V1.11h6V59c0,3.08,1,4,3.7,4v5C130.6,68,127.26,65.36,127.26,58.32Z"/><path class="a" d="M165.46,68C150.4,68,147,58.58,147,45.12s3.43-22.89,18.49-22.89,18.48,9.42,18.48,22.89S180.59,68,165.46,68Zm0-40.31c-11.62,0-12.33,7.48-12.33,17.43s.71,17.42,12.33,17.42c11.44,0,12.32-7.48,12.32-17.42S176.9,27.69,165.46,27.69Z"/><path class="a" d="M220.9.23c8.1,0,13.56,1.49,17.16,3.08v5.9A40.89,40.89,0,0,0,220.9,5.77c-14.43,0-19.62,12.41-19.62,28.34s5.19,28.35,19.62,28.35A40.89,40.89,0,0,0,238.06,59v5.9C234.46,66.5,229,68,220.9,68c-19.71,0-26-15.14-26-33.89S201.19.23,220.9.23Z"/><path class="a" d="M251.35,58.32V1.11h6V59c0,3.08,1,4,3.69,4v5C254.7,68,251.35,65.36,251.35,58.32Z"/><path class="a" d="M289.55,68c-15.05,0-18.49-9.42-18.49-22.88s3.44-22.89,18.49-22.89S308,31.65,308,45.12,304.69,68,289.55,68Zm0-40.31c-11.62,0-12.32,7.48-12.32,17.43s.7,17.42,12.32,17.42c11.44,0,12.32-7.48,12.32-17.42S301,27.69,289.55,27.69Z"/><path class="a" d="M325.19,55.06c0,5.72,3.34,7.48,8.8,7.48,5.72,0,8.63-1,11.88-2.81V23.11H352v44H348.6l-1.32-3.7A21.9,21.9,0,0,1,334,68c-10.47,0-15-4.75-15-13.2V23.11h6.16Z"/><path class="a" d="M393.84,25.84V1.11H400v66h-3.43l-1.32-3.61c-4.58,2.91-9,4.49-13.73,4.49-14.17,0-18-10.21-18-22.88s3.88-22.89,18-22.89A23,23,0,0,1,393.84,25.84Zm-24.2,19.28c0,8.71,1.32,17.42,11.88,17.42,5.72,0,8.89-1,12.32-2.81V30.51c-3.43-1.85-6.6-2.82-12.32-2.82C371,27.69,369.64,36.4,369.64,45.12Z"/></svg>