<svg xmlns="http://www.w3.org/2000/svg" viewBox="0 0 150 30"><defs><style>.a{fill:#fff;}</style></defs><title>pelco-wordmark</title><path class="a" d="M45.68,0,28.49,30H52.67l4.15-7.23H42.31l2.41-4.29h11.6l4-7H48.72l2.49-4.29H65.72L69.87,0ZM73.36,0,56.16,30h21l4.14-7.23H70.52L83.57,0Zm43.15,7.23L120.66,0H100.29a6,6,0,0,0-5.24,3.1L82.39,25.19A3.21,3.21,0,0,0,85.19,30h18.62L108,22.77H95.4a.82.82,0,0,1-.82-.82.78.78,0,0,1,.14-.46l7.51-13.1a2.1,2.1,0,0,1,1.88-1.16ZM36.9,0H17.2L0,30H10.21l5.22-9.11H27a6,6,0,0,0,5.24-3.09l7.44-13a3.19,3.19,0,0,0,.43-1.6A3.22,3.22,0,0,0,36.9,0ZM27.37,8.51l-2.28,4a2.12,2.12,0,0,1-1.89,1.16H19.58l3.68-6.43h3.43a.82.82,0,0,1,.82.82A.78.78,0,0,1,27.37,8.51ZM143.23,0h-16A6,6,0,0,0,122,3.1L109.36,25.19a3.12,3.12,0,0,0-.43,1.6A3.22,3.22,0,0,0,112.16,30h16a5.94,5.94,0,0,0,5.23-3.1L146,4.81a3.19,3.19,0,0,0,.43-1.6A3.22,3.22,0,0,0,143.23,0Zm-9.54,8.51-7.5,13.1a2.11,2.11,0,0,1-1.88,1.16h-1.93a.83.83,0,0,1-.83-.82.86.86,0,0,1,.14-.46l7.5-13.1a2.11,2.11,0,0,1,1.89-1.16H133a.82.82,0,0,1,.82.82A.78.78,0,0,1,133.69,8.51Z"/></svg>