<svg xmlns="http://www.w3.org/2000/svg" viewBox="0 0 345 150"><defs><style>.a{fill:#53b7e8;}.b{fill:#007dc5;}.c{fill:#f7941d;}.d{fill:#005d95;}.e{fill:#003d68;}</style></defs><title>temp-cloud-logo-blue</title><path class="a" d="M79.25,31,68.06,11.6a7.27,7.27,0,0,0-12.6,0L44.27,31a7.27,7.27,0,0,0,6.3,10.91H73A7.27,7.27,0,0,0,79.25,31Z"/><path class="a" d="M71.48,46.88h-28a9.09,9.09,0,0,0-7.88,13.64l14,24.23a9.09,9.09,0,0,0,15.75,0l14-24.23A9.09,9.09,0,0,0,71.48,46.88Z"/><path class="b" d="M45.86,86.89l-14-24.23a9.09,9.09,0,0,0-15.75,0l-14,24.23A9.09,9.09,0,0,0,10,100.53H38A9.1,9.1,0,0,0,45.86,86.89Z"/><path class="a" d="M99.54,6.27H81.63a5.82,5.82,0,0,0-5,8.73l9,15.51a5.82,5.82,0,0,0,10.08,0l9-15.51A5.82,5.82,0,0,0,99.54,6.27Z"/><path class="c" d="M146.34,28.78l-14-24.23a9.08,9.08,0,0,0-15.74,0l-14,24.23a9.09,9.09,0,0,0,7.87,13.64h28A9.09,9.09,0,0,0,146.34,28.78Z"/><path class="d" d="M200.11,62.54h-17.9a5.82,5.82,0,0,0-5,8.73l9,15.51a5.82,5.82,0,0,0,10.08,0l9-15.51A5.82,5.82,0,0,0,200.11,62.54Z"/><path class="e" d="M236.82,89.74,225.63,70.35a7.27,7.27,0,0,0-12.6,0L201.84,89.74a7.27,7.27,0,0,0,6.3,10.91h22.38A7.27,7.27,0,0,0,236.82,89.74Z"/><path class="e" d="M74.87,139.09,63.67,119.7a7.27,7.27,0,0,0-12.6,0L39.88,139.09A7.27,7.27,0,0,0,46.18,150H68.57A7.27,7.27,0,0,0,74.87,139.09Z"/><path class="d" d="M37.81,104.94h-28A9.08,9.08,0,0,0,2,118.57L16,142.8a9.09,9.09,0,0,0,15.75,0l14-24.23A9.09,9.09,0,0,0,37.81,104.94Z"/><path class="b" d="M112.79,86.89l-14-24.23a9.09,9.09,0,0,0-15.75,0l-14,24.23a9.1,9.1,0,0,0,7.88,13.64h28A9.09,9.09,0,0,0,112.79,86.89Z"/><path class="b" d="M179.9,86.89l-14-24.23a9.09,9.09,0,0,0-15.75,0l-14,24.23A9.09,9.09,0,0,0,144,100.53h28A9.1,9.1,0,0,0,179.9,86.89Z"/><path class="a" d="M138.47,46.82h-28a9.09,9.09,0,0,0-7.87,13.64l14,24.23a9.09,9.09,0,0,0,15.74,0l14-24.23A9.09,9.09,0,0,0,138.47,46.82Z"/><path class="d" d="M104.92,104.94h-28a9.09,9.09,0,0,0-7.88,13.63l14,24.23a9.09,9.09,0,0,0,15.75,0l14-24.23A9.08,9.08,0,0,0,104.92,104.94Z"/><path class="d" d="M172,104.94H144a9.08,9.08,0,0,0-7.87,13.63l14,24.23a9.09,9.09,0,0,0,15.75,0l14-24.23A9.09,9.09,0,0,0,172,104.94Z"/><path class="e" d="M142,139.09,130.78,119.7a7.27,7.27,0,0,0-12.6,0L107,139.09a7.27,7.27,0,0,0,6.3,10.91h22.38A7.27,7.27,0,0,0,142,139.09Z"/><path class="e" d="M209.08,139.09,197.89,119.7a7.27,7.27,0,0,0-12.6,0l-11.2,19.39a7.27,7.27,0,0,0,6.3,10.91h22.39A7.27,7.27,0,0,0,209.08,139.09Z"/><path class="e" d="M276.18,139.09,265,119.7a7.27,7.27,0,0,0-12.6,0L241.2,139.09A7.27,7.27,0,0,0,247.5,150h22.38A7.27,7.27,0,0,0,276.18,139.09Z"/><path class="d" d="M239.13,104.94h-28a9.09,9.09,0,0,0-7.88,13.63l14,24.23a9.09,9.09,0,0,0,15.75,0l14-24.23A9.08,9.08,0,0,0,239.13,104.94Z"/><path class="e" d="M306.23,104.94h-28a9.09,9.09,0,0,0-7.88,13.63l14,24.23a9.09,9.09,0,0,0,15.75,0l14-24.23A9.09,9.09,0,0,0,306.23,104.94Z"/><path class="e" d="M343.29,139.09,332.1,119.7a7.27,7.27,0,0,0-12.6,0l-11.19,19.39a7.27,7.27,0,0,0,6.3,10.91H337A7.27,7.27,0,0,0,343.29,139.09Z"/></svg>