<svg xmlns="http://www.w3.org/2000/svg" viewBox="0 0 500 60"><defs><style>.a{fill:#007dc5;}.b{fill:#3bf;}</style></defs><title>pelco-cloud-workmark</title><path class="a" d="M91.37,0,57,60h48.37l8.29-14.46h-29L89.45,37h23.19l8-13.92H97.44l5-8.58h29L139.74,0Zm55.36,0-34.4,60h41.92l8.29-14.46H141.05L167.14,0ZM233,14.46,241.32,0H200.58A11.93,11.93,0,0,0,190.1,6.2L164.77,50.38a6.43,6.43,0,0,0,5.6,9.62h37.26l8.29-14.46H190.81a1.65,1.65,0,0,1-1.65-1.65,1.72,1.72,0,0,1,.28-.92l15-26.2a4.23,4.23,0,0,1,3.76-2.31ZM73.8,0H34.4L0,60H20.42L30.87,41.79H54a12,12,0,0,0,10.48-6.2l14.88-26A6.43,6.43,0,0,0,73.8,0Zm-19,17-4.58,8a4.21,4.21,0,0,1-3.77,2.31H39.16l7.37-12.86h6.84A1.65,1.65,0,0,1,55,16.11,1.69,1.69,0,0,1,54.75,17ZM286.46,0H254.52A11.93,11.93,0,0,0,244,6.2L218.71,50.38a6.43,6.43,0,0,0,5.6,9.62h31.94a11.93,11.93,0,0,0,10.48-6.2L292.06,9.62A6.43,6.43,0,0,0,286.46,0ZM267.38,17l-15,26.19a4.21,4.21,0,0,1-3.77,2.32h-3.85A1.65,1.65,0,0,1,243.39,43l15-26.19a4.22,4.22,0,0,1,3.76-2.31H266a1.65,1.65,0,0,1,1.65,1.65A1.61,1.61,0,0,1,267.38,17Z"/><path class="b" d="M344.56,0c7.17,0,12,1.32,15.19,2.73V8a36.29,36.29,0,0,0-15.19-3c-12.78,0-17.38,11-17.38,25.09s4.6,25.09,17.38,25.09a36.29,36.29,0,0,0,15.19-3v5.22c-3.19,1.41-8,2.73-15.19,2.73-17.46,0-23-13.4-23-30S327.1,0,344.56,0Z"/><path class="b" d="M370.74,51.43V.78H376V52.05c0,2.73.86,3.51,3.28,3.51V60C373.7,60,370.74,57.66,370.74,51.43Z"/><path class="b" d="M403.77,60c-13.32,0-16.36-8.34-16.36-20.26s3-20.26,16.36-20.26,16.37,8.34,16.37,20.26S417.18,60,403.77,60Zm0-35.69c-10.28,0-10.91,6.63-10.91,15.43s.63,15.43,10.91,15.43,10.91-6.62,10.91-15.43S413.9,24.31,403.77,24.31Z"/><path class="b" d="M434.55,48.55c0,5.06,3,6.62,7.79,6.62,5.07,0,7.64-.86,10.52-2.49V20.26h5.46v39h-3L454.11,56a19.39,19.39,0,0,1-11.77,4c-9.27,0-13.25-4.21-13.25-11.69v-28h5.46Z"/><path class="b" d="M494.55,22.67V.78H500V59.22h-3L495.79,56c-4.05,2.57-7.94,4-12.15,4-12.55,0-16-9-16-20.26s3.43-20.26,16-20.26A20.36,20.36,0,0,1,494.55,22.67ZM473.12,39.74c0,7.72,1.17,15.43,10.52,15.43,5.06,0,7.87-.86,10.91-2.49V26.81c-3-1.64-5.85-2.5-10.91-2.5C474.29,24.31,473.12,32,473.12,39.74Z"/></svg>