<svg xmlns="http://www.w3.org/2000/svg" viewBox="0 0 110 30"><defs><style>.a{fill:#fff;}</style></defs><title>temp-breeze-wordmark-white</title><path class="a" d="M0,0H9.36c6.9,0,9.19,3.51,9.19,7.82A6.51,6.51,0,0,1,14.68,14c3.4.91,4.86,4.15,4.86,7.31,0,4.61-2.53,8.32-9.91,8.32H0ZM9.75,2.49H2.68V13h7.39c4.46,0,5.56-2.61,5.56-5.13S14.76,2.49,9.75,2.49ZM2.68,27.12H10c5.56,0,6.63-3,6.63-5.84,0-4-1.7-5.85-6.55-5.85H2.68Z"/><path class="a" d="M34.74,12.24a7.52,7.52,0,0,0-2.37-.32,10.69,10.69,0,0,0-5.72,1.26V29.6H23.88V9.87h1.54l.6,1.66a10.63,10.63,0,0,1,6.35-2.06,14.17,14.17,0,0,1,2.37.2Z"/><path class="a" d="M45.79,9.47c6.71,0,7.5,4.58,7.5,10.27V21h-13c.16,3.43,1.07,6.55,5.53,6.55a15.05,15.05,0,0,0,6.51-1.1v2.37A16.09,16.09,0,0,1,45.79,30c-6.67,0-8.29-4.58-8.29-10.26S39.12,9.47,45.79,9.47Zm-5.53,9.28H50.53c0-3.51-.2-6.83-4.74-6.83S40.38,15.2,40.26,18.75Z"/><path class="a" d="M65.49,9.47c6.71,0,7.5,4.58,7.5,10.27V21H60c.15,3.43,1.06,6.55,5.52,6.55A15.13,15.13,0,0,0,72,26.45v2.37A16.13,16.13,0,0,1,65.49,30c-6.67,0-8.29-4.58-8.29-10.26S58.82,9.47,65.49,9.47ZM60,18.75H70.23c0-3.51-.2-6.83-4.74-6.83S60.08,15.2,60,18.75Z"/><path class="a" d="M76.25,29.6V27.83L87.81,12.2h-11V9.87H91.25v1.77L79.68,27.28h12V29.6Z"/><path class="a" d="M102.5,9.47c6.71,0,7.5,4.58,7.5,10.27V21H97c.16,3.43,1.07,6.55,5.53,6.55a15.05,15.05,0,0,0,6.51-1.1v2.37A16.09,16.09,0,0,1,102.5,30c-6.67,0-8.29-4.58-8.29-10.26S95.83,9.47,102.5,9.47ZM97,18.75h10.27c0-3.51-.2-6.83-4.74-6.83S97.09,15.2,97,18.75Z"/></svg>