<svg xmlns="http://www.w3.org/2000/svg" viewBox="0 0 275 30"><defs><style>.a{fill:#3bf;}.b{fill:#007dc5;}.c{fill:#007dc4;}</style></defs><title>temp-pelco-breeze-workmark</title><path class="a" d="M165,0h9.36c6.9,0,9.19,3.51,9.19,7.82A6.52,6.52,0,0,1,179.68,14c3.4.91,4.86,4.15,4.86,7.31,0,4.61-2.53,8.32-9.91,8.32H165Zm9.75,2.49h-7.07V13h7.39c4.46,0,5.56-2.61,5.56-5.13S179.76,2.49,174.75,2.49Zm-7.07,24.63H175c5.56,0,6.63-3,6.63-5.84,0-4-1.7-5.85-6.55-5.85h-7.39Z"/><path class="a" d="M199.74,12.24a7.62,7.62,0,0,0-2.37-.32,10.73,10.73,0,0,0-5.72,1.26V29.6h-2.77V9.87h1.54l.6,1.66a10.66,10.66,0,0,1,6.35-2.06,14.49,14.49,0,0,1,2.37.2Z"/><path class="a" d="M210.79,9.47c6.71,0,7.5,4.58,7.5,10.27V21h-13c.16,3.43,1.07,6.55,5.53,6.55a15.11,15.11,0,0,0,6.51-1.1v2.37A16.08,16.08,0,0,1,210.79,30c-6.67,0-8.29-4.58-8.29-10.26S204.12,9.47,210.79,9.47Zm-5.53,9.28h10.27c0-3.51-.2-6.83-4.74-6.83S205.38,15.2,205.26,18.75Z"/><path class="a" d="M230.49,9.47c6.71,0,7.5,4.58,7.5,10.27V21H225c.15,3.43,1.06,6.55,5.52,6.55a15.16,15.16,0,0,0,6.52-1.1v2.37A16.15,16.15,0,0,1,230.49,30c-6.67,0-8.29-4.58-8.29-10.26S223.82,9.47,230.49,9.47ZM225,18.75h10.26c0-3.51-.2-6.83-4.74-6.83S225.08,15.2,225,18.75Z"/><path class="a" d="M241.25,29.6V27.83L252.81,12.2h-11V9.87h14.41v1.77L244.68,27.28h12V29.6Z"/><path class="a" d="M267.5,9.47c6.71,0,7.5,4.58,7.5,10.27V21H262c.16,3.43,1.07,6.55,5.53,6.55a15.11,15.11,0,0,0,6.51-1.1v2.37A16.08,16.08,0,0,1,267.5,30c-6.67,0-8.29-4.58-8.29-10.26S260.83,9.47,267.5,9.47ZM262,18.75h10.27c0-3.51-.2-6.83-4.74-6.83S262.09,15.2,262,18.75Z"/><path class="b" d="M45.68,0,28.49,30H52.67l4.15-7.23H42.31l2.41-4.29h11.6l4-7H48.72l2.49-4.29H65.72L69.87,0ZM73.36,0,56.16,30h21l4.14-7.23H70.52L83.57,0Zm43.15,7.23L120.66,0H100.29a6,6,0,0,0-5.24,3.1L82.39,25.19A3.21,3.21,0,0,0,85.19,30h18.62L108,22.77H95.4a.82.82,0,0,1-.82-.82.78.78,0,0,1,.14-.46l7.51-13.1a2.1,2.1,0,0,1,1.88-1.16ZM36.9,0H17.2L0,30H10.21l5.22-9.11H27a6,6,0,0,0,5.24-3.09l7.44-13a3.19,3.19,0,0,0,.43-1.6A3.22,3.22,0,0,0,36.9,0ZM27.37,8.51l-2.28,4a2.12,2.12,0,0,1-1.89,1.16H19.58l3.68-6.43h3.43a.82.82,0,0,1,.82.82A.78.78,0,0,1,27.37,8.51ZM143.23,0h-16A6,6,0,0,0,122,3.1L109.36,25.19a3.12,3.12,0,0,0-.43,1.6A3.22,3.22,0,0,0,112.16,30h16a5.94,5.94,0,0,0,5.23-3.1L146,4.81a3.19,3.19,0,0,0,.43-1.6A3.22,3.22,0,0,0,143.23,0Zm-9.54,8.51-7.5,13.1a2.11,2.11,0,0,1-1.88,1.16h-1.93a.83.83,0,0,1-.83-.82.86.86,0,0,1,.14-.46l7.5-13.1a2.11,2.11,0,0,1,1.89-1.16H133a.82.82,0,0,1,.82.82A.78.78,0,0,1,133.69,8.51Z"/><path class="c" d="M137,26.21h-1.2v-.4h2.87v.4h-1.2v3.28H137Zm2.2-.4H140l1.19,3,1.16-3h.76v3.68h-.48V26.24h0l-1.31,3.25H141l-1.3-3.25h0v3.25h-.47Z"/></svg>