<svg xmlns="http://www.w3.org/2000/svg" viewBox="0 0 308 150"><defs><style>.a,.b,.d,.e,.f,.g,.h,.i,.j{fill:#fff;}.a{opacity:0.6;}.a,.b,.d,.e,.f,.i,.j{isolation:isolate;}.b{opacity:0.75;}.c{fill:#f91;}.d{opacity:0.9;}.e{opacity:0.85;}.f,.h{opacity:0.85;}.i{opacity:0.65;}.j{opacity:0.8;}</style></defs><title>cloud-rounded-sizes</title><path class="a" d="M137.67,61.2H120.83a5.11,5.11,0,0,0-4.44,7.68l8.42,14.59a5.13,5.13,0,0,0,8.88,0l8.42-14.59a5.12,5.12,0,0,0-4.44-7.68Z"/><path class="b" d="M111.6,69.54a6.56,6.56,0,0,0-11.36,0L89.46,88.21a6.56,6.56,0,0,0,5.68,9.84H116.7a6.56,6.56,0,0,0,5.68-9.84Z"/><path class="c" d="M197.78,13.52a7.72,7.72,0,0,0-13.38,0l-12.69,22A7.72,7.72,0,0,0,178.4,47.1h25.39a7.72,7.72,0,0,0,7.72-7.72,7.59,7.59,0,0,0-1-3.86Z"/><path class="d" d="M202.88,52.29H179.3a7.19,7.19,0,0,0-7.17,7.19,7.31,7.31,0,0,0,1,3.57l11.79,20.42a7.17,7.17,0,0,0,12.42,0l11.79-20.42a7.18,7.18,0,0,0-6.21-10.76Z"/><path class="e" d="M169.34,66.87a7.17,7.17,0,0,0-12.42,0L145.13,87.29a7.18,7.18,0,0,0,6.21,10.76h23.58a7.19,7.19,0,0,0,7.17-7.19,7.31,7.31,0,0,0-1-3.57Z"/><path class="f" d="M232,3.44H209A7,7,0,0,0,202.91,14l11.53,20a7,7,0,0,0,12.14,0l11.54-20A7,7,0,0,0,232,3.44Z"/><path class="g" d="M257,13a7.83,7.83,0,0,0-13.57,0L230.56,35.33a7.84,7.84,0,0,0,6.79,11.76h25.77a7.84,7.84,0,0,0,6.79-11.76Z"/><path class="h" d="M261.35,51H236.94a7.43,7.43,0,0,0-6.44,11.14l12.21,21.15a7.44,7.44,0,0,0,12.87,0l12.2-21.15A7.43,7.43,0,0,0,261.35,51Z"/><path class="d" d="M226.58,64.12a7,7,0,0,0-12.14,0l-11.53,20a7,7,0,0,0,2.58,9.56,7.09,7.09,0,0,0,3.51.93h23a7,7,0,0,0,6.08-10.52Z"/><path class="g" d="M284.1,66.87a7.17,7.17,0,0,0-12.42,0L259.89,87.29a7.18,7.18,0,0,0,6.21,10.76h23.58a7.19,7.19,0,0,0,7.17-7.19,7.31,7.31,0,0,0-1-3.57Z"/><path class="a" d="M24.77,116.57a4.72,4.72,0,0,0-6.45-1.71,4.67,4.67,0,0,0-1.71,1.71L8.86,130a4.71,4.71,0,0,0,4.08,7.07h15.5A4.72,4.72,0,0,0,32.52,130Z"/><path class="e" d="M58.44,105.22H34.86A7.18,7.18,0,0,0,28.65,116l11.79,20.4a7.17,7.17,0,0,0,12.42,0L64.65,116a7.18,7.18,0,0,0-6.21-10.76Z"/><path class="i" d="M79.4,113.89a5.16,5.16,0,0,0-8.94,0L62,128.58a5.16,5.16,0,0,0,4.46,7.73h17a5.17,5.17,0,0,0,5.15-5.17,5.22,5.22,0,0,0-.69-2.56Z"/><path class="a" d="M115.63,101.91H90.53a7.62,7.62,0,0,0-6.61,11.45l12.55,21.73a7.63,7.63,0,0,0,13.22,0l12.55-21.73a7.63,7.63,0,0,0-6.61-11.45Z"/><path class="i" d="M139.52,115.92a7.84,7.84,0,0,0-13.58,0l-12.89,22.32A7.84,7.84,0,0,0,119.84,150h25.77a7.84,7.84,0,0,0,6.79-11.76Z"/><path class="j" d="M170.25,101.91H148a6.75,6.75,0,0,0-5.86,10.14l11.12,19.26a6.76,6.76,0,0,0,11.71,0l11.12-19.26a6.76,6.76,0,0,0-5.86-10.14Z"/><path class="a" d="M202.09,114.45a5.78,5.78,0,0,0-10,0L182.6,130.9a5.78,5.78,0,0,0,5,8.66h19a5.78,5.78,0,0,0,5-8.66Z"/><path class="b" d="M234.72,101.91H211.81A7,7,0,0,0,204.9,109a7.08,7.08,0,0,0,.91,3.36l11.45,19.84a7,7,0,0,0,12.07,0l11.45-19.84a7,7,0,0,0-2.64-9.54,7.08,7.08,0,0,0-3.36-.91Z"/><path class="j" d="M256.14,115.15a7.17,7.17,0,0,0-12.42,0l-11.79,20.42a7.18,7.18,0,0,0,6.21,10.76h23.58a7.19,7.19,0,0,0,7.17-7.19,7.31,7.31,0,0,0-1-3.57Z"/><path class="d" d="M292,101.91H266.65A7.73,7.73,0,0,0,260,113.49l12.7,22a7.72,7.72,0,0,0,13.38,0l12.69-22A7.71,7.71,0,0,0,292,101.91Z"/></svg>