<svg xmlns="http://www.w3.org/2000/svg" viewBox="0 0 345 170"><defs><style>.a{fill:#fff;}.b{fill:#d4effc;}.c{fill:#f7941d;}.d{fill:#90cef1;}.e{fill:#53b7e8;}</style></defs><title>temp-cloud-logo-white</title><path class="a" d="M79.25,46,68.06,26.6a7.27,7.27,0,0,0-12.6,0L44.27,46a7.27,7.27,0,0,0,6.3,10.91H73A7.27,7.27,0,0,0,79.25,46Z"/><path class="a" d="M71.48,61.88h-28a9.09,9.09,0,0,0-7.88,13.64l14,24.23a9.09,9.09,0,0,0,15.75,0l14-24.23A9.09,9.09,0,0,0,71.48,61.88Z"/><path class="b" d="M45.86,101.89l-14-24.23a9.09,9.09,0,0,0-15.75,0l-14,24.23A9.09,9.09,0,0,0,10,115.53H38A9.1,9.1,0,0,0,45.86,101.89Z"/><path class="a" d="M99.54,21.27H81.63a5.82,5.82,0,0,0-5,8.73l9,15.51a5.82,5.82,0,0,0,10.08,0l9-15.51A5.82,5.82,0,0,0,99.54,21.27Z"/><path class="c" d="M146.34,43.78l-14-24.23a9.08,9.08,0,0,0-15.74,0l-14,24.23a9.09,9.09,0,0,0,7.87,13.64h28A9.09,9.09,0,0,0,146.34,43.78Z"/><path class="d" d="M200.11,77.54h-17.9a5.82,5.82,0,0,0-5,8.73l9,15.51a5.82,5.82,0,0,0,10.08,0l9-15.51A5.82,5.82,0,0,0,200.11,77.54Z"/><path class="e" d="M236.82,104.74,225.63,85.35a7.27,7.27,0,0,0-12.6,0l-11.19,19.39a7.27,7.27,0,0,0,6.3,10.91h22.38A7.27,7.27,0,0,0,236.82,104.74Z"/><path class="e" d="M74.87,154.09,63.67,134.7a7.27,7.27,0,0,0-12.6,0L39.88,154.09A7.27,7.27,0,0,0,46.18,165H68.57A7.27,7.27,0,0,0,74.87,154.09Z"/><path class="d" d="M37.81,119.94h-28A9.08,9.08,0,0,0,2,133.57L16,157.8a9.09,9.09,0,0,0,15.75,0l14-24.23A9.09,9.09,0,0,0,37.81,119.94Z"/><path class="b" d="M112.79,101.89l-14-24.23a9.09,9.09,0,0,0-15.75,0l-14,24.23a9.1,9.1,0,0,0,7.88,13.64h28A9.09,9.09,0,0,0,112.79,101.89Z"/><path class="b" d="M179.9,101.89l-14-24.23a9.09,9.09,0,0,0-15.75,0l-14,24.23A9.09,9.09,0,0,0,144,115.53h28A9.1,9.1,0,0,0,179.9,101.89Z"/><path class="a" d="M138.47,61.82h-28a9.09,9.09,0,0,0-7.87,13.64l14,24.23a9.09,9.09,0,0,0,15.74,0l14-24.23A9.09,9.09,0,0,0,138.47,61.82Z"/><path class="d" d="M104.92,119.94h-28a9.09,9.09,0,0,0-7.88,13.63l14,24.23a9.09,9.09,0,0,0,15.75,0l14-24.23A9.08,9.08,0,0,0,104.92,119.94Z"/><path class="d" d="M172,119.94H144a9.08,9.08,0,0,0-7.87,13.63l14,24.23a9.09,9.09,0,0,0,15.75,0l14-24.23A9.09,9.09,0,0,0,172,119.94Z"/><path class="e" d="M142,154.09,130.78,134.7a7.27,7.27,0,0,0-12.6,0L107,154.09a7.27,7.27,0,0,0,6.3,10.91h22.38A7.27,7.27,0,0,0,142,154.09Z"/><path class="e" d="M209.08,154.09,197.89,134.7a7.27,7.27,0,0,0-12.6,0l-11.2,19.39a7.27,7.27,0,0,0,6.3,10.91h22.39A7.27,7.27,0,0,0,209.08,154.09Z"/><path class="e" d="M276.18,154.09,265,134.7a7.27,7.27,0,0,0-12.6,0L241.2,154.09A7.27,7.27,0,0,0,247.5,165h22.38A7.27,7.27,0,0,0,276.18,154.09Z"/><path class="d" d="M239.13,119.94h-28a9.09,9.09,0,0,0-7.88,13.63l14,24.23a9.09,9.09,0,0,0,15.75,0l14-24.23A9.08,9.08,0,0,0,239.13,119.94Z"/><path class="e" d="M306.23,119.94h-28a9.09,9.09,0,0,0-7.88,13.63l14,24.23a9.09,9.09,0,0,0,15.75,0l14-24.23A9.09,9.09,0,0,0,306.23,119.94Z"/><path class="e" d="M343.29,154.09,332.1,134.7a7.27,7.27,0,0,0-12.6,0l-11.19,19.39a7.27,7.27,0,0,0,6.3,10.91H337A7.27,7.27,0,0,0,343.29,154.09Z"/></svg>