<svg xmlns="http://www.w3.org/2000/svg" viewBox="0 0 1200 280"><defs><style>.a{fill:#ccc;}.a,.b,.c,.d,.e,.f,.g,.h,.i,.j{stroke:#fafafb;stroke-miterlimit:10;stroke-width:3px;}.b{fill:#666;}.c{fill:#555;}.d{fill:#777;}.e{fill:#888;}.f{fill:#999;}.g{fill:#eee;}.h{fill:#aaa;}.i{fill:#ddd;}.j{fill:#bbb;}</style></defs><title>extra-clouds-sharp-wide-fafafb-strokes</title><polygon class="a" points="883.47 221.91 844.5 199.41 883.47 176.91 883.47 221.91"/><polygon class="b" points="883.47 229.89 936.25 199.41 883.47 168.94 883.47 229.89"/><polygon class="c" points="936.25 199.41 888.61 171.91 936.25 144.41 936.25 199.41"/><polygon class="d" points="936.25 254.41 888.61 226.91 936.25 199.41 936.25 254.41"/><polygon class="e" points="936.25 251.94 979.55 226.94 936.25 201.94 936.25 251.94"/><polygon class="f" points="991.02 227.44 943.39 199.94 991.02 172.44 991.02 227.44"/><polygon class="b" points="936.25 196.91 979.55 171.91 936.25 146.91 936.25 196.91"/><polygon class="d" points="991.02 170.94 938.25 140.47 991.02 110 991.02 170.94"/><polygon class="e" points="991.02 228.94 1041.25 199.94 991.02 170.94 991.02 228.94"/><polygon class="d" points="991.02 170.94 1043.8 140.47 991.02 110 991.02 170.94"/><polygon class="e" points="1041.25 199.94 991.02 170.94 1041.25 141.94 1041.25 199.94"/><polygon class="a" points="1041.25 193.44 1080.22 170.94 1041.25 148.44 1041.25 193.44"/><polygon class="e" points="1049.8 245.41 1093.1 220.41 1049.8 195.41 1049.8 245.41"/><polygon class="a" points="1150.21 248.39 1102.58 220.89 1150.21 193.39 1150.21 248.39"/><polygon class="g" points="1151.03 243.39 1190 220.89 1151.03 198.39 1151.03 243.39"/><polygon class="h" points="1102.58 225.89 1049.8 195.41 1102.58 164.94 1102.58 225.89"/><polygon class="i" points="1102.58 220.89 1138.95 199.89 1102.58 178.89 1102.58 220.89"/><polygon class="h" points="360.34 122.97 399.31 100.47 360.34 77.97 360.34 122.97"/><polygon class="d" points="360.34 130.94 307.56 100.47 360.34 70 360.34 130.94"/><polygon class="a" points="200.27 144.53 239.3 122 200.27 99.47 200.27 144.53"/><polygon class="c" points="307.56 100.47 360.34 70 307.56 39.53 307.56 100.47"/><polygon class="e" points="307.56 161.41 360.34 130.94 307.56 100.47 307.56 161.41"/><polygon class="d" points="307.56 161.41 254.78 130.94 307.56 100.47 307.56 161.41"/><polygon class="b" points="254.78 130.94 307.56 100.47 254.78 70 254.78 130.94"/><polygon class="b" points="307.56 100.47 254.78 70 307.56 39.53 307.56 100.47"/><polygon class="e" points="254.78 70 293.75 47.5 254.78 25 254.78 70"/><polygon class="h" points="254.78 118 213.21 94 254.78 70 254.78 118"/><polygon class="d" points="254.78 70 211.48 45 254.78 20 254.78 70"/><polygon class="e" points="207.15 97.5 254.78 70 207.15 42.5 207.15 97.5"/><polygon class="i" points="207.15 97.5 168.18 75 207.15 52.5 207.15 97.5"/><polygon class="e" points="200.27 154.4 152.7 126.93 200.27 99.47 200.27 154.4"/><polygon class="d" points="105.13 154.4 152.7 126.93 105.13 99.47 105.13 154.4"/><polygon class="j" points="105.13 147.21 70 126.93 105.13 106.65 105.13 147.21"/><polygon class="b" points="152.7 126.93 200.27 99.47 152.7 72 152.7 126.93"/><polygon class="e" points="152.7 126.93 105.13 99.47 152.7 72 152.7 126.93"/><polygon class="b" points="152.7 167.49 187.83 147.21 152.7 126.93 152.7 167.49"/><polygon class="e" points="152.7 172 113.67 149.47 152.7 126.93 152.7 172"/><polygon class="d" points="1049.8 240.41 1010.83 217.91 1049.8 195.41 1049.8 240.41"/></svg>